<svg width="119" height="149" viewBox="0 0 119 149" fill="none" xmlns="http://www.w3.org/2000/svg">
<g clip-path="url(#clip0_159_142807)">
<path d="M5.01261 98.4306C5.25753 97.6504 5.53511 96.8051 6.1066 96.1875C6.67809 95.6348 7.59247 95.4072 8.37622 95.4072C2.67767 101.422 8.22927 113.58 9.89474 120.586C9.71513 124.39 9.56818 128.177 9.37224 131.981C5.76371 121.968 1.61634 108.899 5.02894 98.4469L5.01261 98.4306Z" fill="white"/>
<path d="M17.455 138.629C18.0755 140.14 18.647 141.75 19.4634 143.164C21.684 147.114 27.2356 148.219 30.7952 145.423C33.1464 143.651 33.6689 140.872 34.5017 138.222C36.3631 132.322 38.3878 126.486 40.3635 120.635C40.3635 117.904 40.3472 115.173 40.3635 112.442C40.3635 110.28 41.7188 108.411 43.7761 107.728C43.6618 104.185 41.2942 101.763 38.1429 100.365C29.146 105.144 18.6143 101.763 10.9727 95.9272C6.02528 98.0241 7.78873 106.672 8.99702 110.687C9.84608 113.661 10.6788 116.636 11.5279 119.611C13.4383 125.966 14.8425 132.517 17.455 138.645V138.629ZM28.7378 109.451C27.6928 108.882 28.6235 107.306 29.6685 107.858C33.3587 109.63 35.661 113.612 34.9589 117.676C34.7629 118.912 34.4854 120.147 34.2568 121.382C33.2444 126.681 32.2157 131.98 31.2034 137.279C30.9258 138.742 30.6319 140.205 30.3543 141.668C30.1257 142.822 28.3459 142.335 28.5745 141.181C30.0767 133.362 31.5953 125.56 33.0811 117.741C33.8322 114.214 31.9218 110.963 28.7378 109.435V109.451ZM17.4714 108.557C18.6796 108.655 19.5287 109.89 19.5614 111.028C19.4471 113.141 17.0958 112.849 16.3447 111.239C15.7406 110.215 16.0345 108.525 17.4714 108.557Z" fill="white"/>
<path d="M42.2077 116.018C42.3057 113.758 41.5056 110.361 44.3304 109.483C44.9672 109.223 45.6203 108.882 46.3061 109.207C47.2205 109.646 47.5634 111.093 47.8246 111.97C48.2165 113.32 48.5594 114.669 48.8696 116.034C50.6004 123.365 50.4045 131.2 47.2531 138.124C46.2734 141.083 44.2814 143.505 42.2893 145.862C42.0444 135.946 42.2893 125.95 42.2077 116.018Z" fill="white"/>
<path d="M16.4254 108.996C17.7643 107.712 19.6094 109.581 19.5604 111.044C19.6094 112.247 18.3521 112.962 17.3398 112.312C16.2948 111.678 15.56 110.036 16.4417 108.996H16.4254Z" fill="#C4D831"/>
<path d="M28.737 109.451C27.692 108.882 28.6227 107.306 29.6677 107.858C33.3579 109.63 35.6602 113.613 34.9581 117.676C34.7621 118.912 34.4845 120.147 34.2559 121.382C33.2436 126.681 32.2149 131.98 31.2026 137.28C30.925 138.742 30.6311 140.205 30.3535 141.668C30.1249 142.822 28.3451 142.335 28.5737 141.181C29.2595 137.588 29.9616 133.996 30.6474 130.404C31.4638 126.178 32.2802 121.968 33.0803 117.741C33.8314 114.214 31.921 110.963 28.737 109.435V109.451Z" fill="#C8C8C9"/>
<path d="M3.6909 64.7665C4.91552 62.9785 7.36475 61.4017 9.66703 61.5643C5.24208 64.8152 3.03777 69.4641 2.71121 74.9095C2.62957 74.7144 2.5316 74.5194 2.46628 74.3243C1.37229 71.1871 1.81316 67.5135 3.6909 64.7665Z" fill="#C4D831"/>
<path d="M0.668827 74.8122C1.07703 75.9175 1.68118 76.9741 2.51391 77.7706C2.30165 83.5573 4.0651 89.474 8.31043 93.5702C7.10214 93.5702 5.84487 94.0091 4.9958 94.7406C4.93049 94.7893 4.86518 94.8381 4.79986 94.9031C4.73455 94.9681 4.68557 95.0332 4.65291 95.0982C-0.719071 103.892 2.85681 118.245 5.82854 127.494C6.25308 128.794 6.71027 130.095 7.18378 131.395C7.55933 132.403 7.83691 133.622 8.8166 134.223C10.0249 134.971 11.0862 134.142 11.1679 132.874C11.2822 130.647 11.3638 128.404 11.4781 126.177C12.768 130.777 13.9926 135.41 15.952 139.783C16.6052 141.343 17.1766 143.05 18.1074 144.48C19.087 145.976 20.4586 147.162 22.0751 147.926C26.2225 149.926 31.4965 148.446 34.0437 144.627C35.5949 142.091 36.0194 139.067 37.0481 136.304C38.1257 132.988 39.2361 129.688 40.3627 126.372V141.961C40.3627 143.196 40.3137 144.432 40.3627 145.667C40.428 146.984 41.7343 148.918 43.0895 147.699C44.1182 146.772 44.9346 145.537 45.7673 144.448C47.5961 142.416 48.5431 139.848 49.5555 137.344C52.9354 129.087 52.1353 119.854 49.6208 111.467C49.1146 109.467 48.0043 107.094 45.5877 107.224C45.4081 103.599 42.9752 100.852 39.9872 99.2757C41.1791 98.4954 42.3058 97.6339 43.2855 96.5936C47.6614 95.472 50.976 91.7822 51.7108 87.3609C52.315 84.0774 51.6618 78.8109 47.8084 77.7543C46.3715 68.3753 39.2034 60.8005 29.978 58.5411C29.9616 57.3383 29.929 56.1354 29.9127 54.9326C32.2476 54.575 33.962 52.6244 34.256 50.3487C34.8111 44.9684 27.9369 42.4001 24.7366 46.7889C22.5323 49.8123 24.41 54.2824 28.0676 54.9163C28.0839 55.9729 28.1002 57.0457 28.1329 58.1022C22.3527 56.7856 16.8991 56.9807 11.7394 60.1666C11.4454 60.0366 11.1515 59.939 10.825 59.8578C2.82415 58.5899 -1.7804 68.0989 0.717812 74.7959L0.668827 74.8122ZM5.01213 98.4304C5.25705 97.6502 5.53463 96.8049 6.10612 96.1872C6.67761 95.6346 7.59199 95.407 8.37574 95.407C2.6772 101.438 8.24512 113.58 9.89427 120.586C9.71466 124.389 9.5677 128.177 9.37176 131.98C6.59597 124.487 4.22838 116.701 3.82017 108.687C3.62423 105.241 3.86916 101.73 5.02846 98.4467L5.01213 98.4304ZM11.5271 119.61C10.678 116.636 9.84528 113.661 8.99621 110.687C7.78793 106.672 6.02448 98.024 10.9719 95.9272C18.5809 101.746 29.1616 105.127 38.1421 100.365C41.2934 101.763 43.661 104.185 43.7753 107.728C41.7343 108.395 40.379 110.28 40.3627 112.442C40.3464 115.173 40.3627 117.904 40.3627 120.634C38.387 126.486 36.3623 132.338 34.5009 138.222C33.6681 140.872 33.1456 143.635 30.7944 145.423C27.2348 148.219 21.6669 147.114 19.4626 143.164C17.9277 140.222 16.8174 137.052 15.6581 133.947C14.1723 129.201 12.9313 124.373 11.5271 119.594V119.61ZM42.2078 112.458C42.2405 111.125 43.0242 109.874 44.3305 109.484C46.6654 108.248 47.3185 110.069 47.841 111.971C49.4249 117.481 50.4372 123.268 49.7841 129.006C49.2453 133.329 47.7594 137.556 45.751 141.392C44.706 142.952 43.4977 144.415 42.2894 145.862C42.2568 145.781 42.2078 145.683 42.2078 145.586C42.2078 134.549 42.2078 123.512 42.2078 112.458ZM5.06112 71.545C6.57964 64.2466 14.2866 59.3051 21.4873 59.1263C23.7243 59.1426 25.9776 59.4839 28.1492 59.9878C28.1492 60.703 28.1819 61.4182 28.1819 62.1334C28.1982 63.32 30.0433 63.32 30.0269 62.1334C30.0269 61.5808 30.0106 61.0281 29.9943 60.4592C38.1584 62.6211 44.4937 69.3668 45.9306 77.673C40.2321 79.0384 36.5093 87.3934 37.6196 92.79C37.9788 94.448 38.8279 96.0572 40.5423 96.6099C32.7211 102.835 23.1528 101.584 15.103 96.5123C5.20807 90.8557 2.82415 82.2569 5.04479 71.545H5.06112ZM44.2652 94.3179C41.8649 95.4883 39.9055 95.2282 39.4157 92.3023C38.7952 89.0839 40.0525 85.5404 41.8812 82.9233C44.6244 78.9246 48.837 77.5105 49.931 83.5573C50.6821 87.9136 48.3799 92.5299 44.2652 94.3179ZM2.4486 74.3245C0.505545 69.1718 3.41197 61.4995 9.64934 61.5483C5.2244 64.783 3.02009 69.4481 2.69352 74.8935C2.61188 74.6984 2.51391 74.5033 2.4486 74.3083V74.3245ZM32.4272 50.1699C32.019 53.5834 27.3655 54.2986 25.9286 51.2102C24.5897 48.4306 27.6594 45.3585 30.4678 46.7076C31.8231 47.3578 32.5415 48.707 32.4272 50.1699Z" fill="#323232"/>
<path d="M5.66511 86.3694C7.34692 90.7907 11.1514 94.1554 15.1191 96.5286C23.169 101.584 32.7373 102.852 40.5585 96.6262C38.844 96.0735 37.9786 94.4643 37.6357 92.8063C36.5091 87.4097 40.2483 79.0547 45.9468 77.6893C44.5099 69.3669 38.1746 62.6374 30.0105 60.4755C30.0105 61.0281 30.0268 61.5808 30.0431 62.1497C30.0595 63.3363 28.2144 63.3363 28.198 62.1497C28.198 61.4345 28.1654 60.7193 28.1654 60.0041C25.9937 59.5002 23.7404 59.1588 21.5035 59.1426C14.3027 59.3214 6.59582 64.2628 5.07729 71.5612C4.08127 76.3564 3.91799 81.7368 5.68144 86.3856L5.66511 86.3694ZM8.24497 72.0489C10.6126 70.1958 13.8945 71.3174 16.3274 72.4553C21.2422 74.7634 26.8428 76.8441 30.2554 81.2979C32.0025 83.5898 32.8679 86.3369 33.0965 89.1815C33.3088 91.6522 33.5047 94.7569 31.5453 96.6424C29.3084 98.8043 25.4059 98.5605 22.6138 97.9265C16.3601 96.4148 10.3023 92.4812 7.47754 86.5807C5.71409 82.9396 4.7344 74.861 8.24497 72.0489Z" fill="white"/>
<path d="M13.7968 93.8952C18.0912 96.9999 26.9411 100.608 31.5456 96.626C33.505 94.7405 33.2927 91.6358 33.0968 89.1651C32.8682 86.3205 32.0028 83.5734 30.2557 81.2815C26.8431 76.8277 21.2425 74.7471 16.3277 72.4389C10.3026 69.448 5.99196 71.3173 5.92664 78.3394C5.58375 84.6463 8.6208 90.3192 13.7968 93.8952ZM11.8375 83.1508C10.6455 82.4681 9.68213 80.8101 9.68213 79.4447C9.68213 78.0793 10.6455 77.5266 11.8375 78.2094C13.0294 78.8921 13.9928 80.55 13.9928 81.9154C13.9928 83.2808 13.0294 83.8335 11.8375 83.1508ZM21.1609 86.0442C21.1609 84.6788 22.1242 84.1261 23.3162 84.8088C24.5081 85.4915 25.4715 87.1495 25.4715 88.5149C25.4715 89.8803 24.5081 90.433 23.3162 89.7503C22.1242 89.0676 21.1609 87.4096 21.1609 86.0442Z" fill="#323232"/>
<path d="M23.3174 84.8087C24.5094 85.4914 25.4728 87.1494 25.4728 88.5148C25.4728 89.8802 24.5094 90.4329 23.3174 89.7502C22.1255 89.0675 21.1621 87.4095 21.1621 86.0441C21.1621 84.6787 22.1255 84.126 23.3174 84.8087Z" fill="#C4D831"/>
<path d="M9.68359 79.4449C9.68359 78.0795 10.647 77.5269 11.8389 78.2096C13.0309 78.8923 13.9942 80.5503 13.9942 81.9157C13.9942 83.2811 13.0309 83.8337 11.8389 83.151C10.647 82.4683 9.68359 80.8103 9.68359 79.4449Z" fill="#C4D831"/>
<path d="M29.3749 53.1771C26.2399 53.4859 24.3621 49.6335 26.6154 47.4066C28.9014 45.1309 32.7385 47.0002 32.4446 50.1699C32.2813 51.7304 30.9424 53.047 29.3912 53.1771H29.3749Z" fill="#C4D831"/>
<path d="M44.2656 94.3178C41.8653 95.4881 39.9059 95.228 39.4161 92.3022C38.7956 89.0837 40.0529 85.5402 41.8817 82.9231C43.0573 81.2326 45.8984 78.2417 48.1517 79.9322C49.2294 80.7612 49.7029 82.2729 49.9315 83.5408C50.6826 87.8971 48.3803 92.5135 44.2656 94.3015V94.3178Z" fill="#C4D831"/>
<path d="M115.945 70.6672C114.802 71.3336 113.643 71.9513 112.468 72.569C112.582 72.2114 112.631 71.8375 112.663 71.4636C112.859 67.9526 112.68 64.4578 112.761 60.9468C112.761 58.3785 112.761 55.8103 112.761 53.242C112.729 51.8278 112.925 50.4299 112.778 49.0158C113.219 40.7258 108.043 38.954 101.871 35.3455C97.7068 32.9723 93.5758 30.534 89.4774 28.0633C76.1862 20.0172 63.0094 11.711 49.2773 4.42882C53.4247 2.21816 53.6696 1.14535 58.0619 3.94117C65.1974 8.05364 72.3328 12.1986 79.4356 16.3598C89.6897 22.4229 100.058 28.3396 110.116 34.6953C111.929 35.8656 113.741 37.1335 115.113 38.7915C117.284 41.3922 117.48 44.9195 117.48 48.1542C117.48 50.69 117.48 53.2095 117.464 55.7452C117.464 58.5248 117.448 61.2881 117.431 64.0677C117.35 66.2621 118.019 69.2042 115.896 70.6509L115.945 70.6672Z" fill="#C4D831"/>
<path d="M52.1202 41.7664C57.6228 45.0336 63.0927 48.3821 68.5627 51.6981C68.8076 51.8444 69.0362 52.2345 68.9056 52.5271C68.0075 54.689 67.0931 56.8346 66.1951 58.9965C68.9382 57.9887 71.6814 56.9647 74.4245 55.9569C74.849 55.7943 75.2082 55.583 75.6491 55.7943C81.1517 59.0453 86.6543 62.3125 92.1569 65.5472C95.9124 67.7579 99.6679 69.9848 103.44 72.1792C105.073 73.1382 106.885 74.6336 108.877 74.2923C110.183 74.0647 110.902 73.0082 111.13 71.7728C111.392 69.5784 111.163 67.319 111.245 65.1083C111.245 60.5082 111.245 55.9081 111.277 51.308C111.31 48.1546 111.636 44.6435 109.4 42.1078C108.273 40.8236 106.787 39.8971 105.317 39.0356C103.391 37.914 101.431 36.825 99.5046 35.7196C84.8092 27.3159 70.669 17.9856 55.8756 9.76071C54.0142 8.72041 52.1528 7.6801 50.2751 6.6723C48.8055 5.71327 46.8788 4.99806 45.6705 6.73732C44.7561 8.16774 44.9684 10.0045 44.9684 11.6138C44.9684 13.9057 44.9684 16.2139 44.9521 18.5058C44.9521 20.7652 44.9521 23.0246 44.9357 25.2841C44.9847 29.1202 44.3643 33.2977 46.3073 36.8087C47.6299 39.1169 49.8832 40.466 52.1202 41.7989V41.7664ZM74 43.4569C76.8737 45.0987 79.7312 46.7566 82.6049 48.3984C88.2055 51.6168 93.8061 54.8353 99.4067 58.0537C100.239 58.5251 99.4883 59.8093 98.6556 59.3216C90.1812 54.4452 81.7069 49.585 73.2489 44.7085C72.4161 44.2372 73.1672 42.953 74 43.4407V43.4569ZM57.933 27.0721C59.3046 27.8686 60.6925 28.6488 62.064 29.4453C74.5551 36.6462 87.0952 43.7983 99.5863 51.0154C100.419 51.4868 99.6679 52.7709 98.8352 52.2833C84.9562 44.2859 71.0609 36.3536 57.1819 28.34C56.3492 27.8686 57.1003 26.5844 57.933 27.0721ZM57.2309 20.0337C58.6025 20.8302 59.9904 21.6105 61.3619 22.4069C73.853 29.6078 86.3931 36.7599 98.8842 43.9771C99.7169 44.4485 98.9658 45.7326 98.133 45.2449C84.2541 37.2476 70.3588 29.3152 56.4798 21.3016C55.647 20.8302 56.3981 19.5461 57.2309 20.0337Z" fill="white"/>
<path d="M51.5152 43.1315C56.7728 46.2849 62.0142 49.4546 67.2556 52.6405C66.2105 55.1275 65.1819 57.5983 64.1369 60.0852C63.9246 60.5891 64.5451 61.1743 65.0512 60.9955C65.4921 60.833 65.933 60.6704 66.3575 60.5079C69.2966 59.4188 72.2357 58.3297 75.1747 57.2406C81.7223 61.1255 88.2863 64.9942 94.8502 68.8628C97.8546 70.6346 100.875 72.4226 103.896 74.1619C105.774 75.381 108.174 76.4701 110.346 75.3648C111.685 74.7146 112.975 73.9343 114.313 73.2516C115.358 72.6827 116.681 72.1788 117.53 71.3173C119.441 69.3667 118.951 66.197 118.967 63.7101C118.983 58.541 119.016 53.372 119.016 48.1867C119.016 45.4559 118.853 42.6276 117.693 40.0918C116.208 36.8896 113.105 34.874 110.231 33.0047C99.5038 26.3078 88.5475 20.0009 77.6403 13.5965C71.7948 10.183 65.933 6.78574 60.0711 3.38849C58.6996 2.592 57.328 1.64922 55.8095 1.12907C54.3726 0.592659 52.7561 0.706443 51.4825 1.56795C49.6048 2.592 47.727 3.5998 45.8493 4.62385C43.1061 6.03802 43.5143 9.93917 43.498 12.5399C43.498 16.7662 43.4817 21.0087 43.4653 25.2349C43.2041 33.8988 43.1061 38.5801 51.5315 43.1152L51.5152 43.1315ZM52.1193 41.7661C49.8823 40.4332 47.629 39.084 46.3065 36.7759C44.3634 33.2648 45.0002 29.0873 44.9349 25.2512C44.9349 22.9918 44.9349 20.7324 44.9512 18.4729C44.9512 16.181 44.9512 13.8728 44.9675 11.5809C44.9349 9.50029 44.6573 6.07053 47.3841 5.66416C48.5108 5.53412 49.3272 6.13555 50.2742 6.6557C52.152 7.67975 54.0134 8.70381 55.8748 9.74411C70.6845 17.969 84.8247 27.283 99.5038 35.703C101.43 36.8246 103.39 37.8974 105.317 39.019C106.786 39.8643 108.272 40.7908 109.399 42.0912C111.636 44.6269 111.293 48.1542 111.276 51.2914C111.244 55.8915 111.276 60.4916 111.244 65.0917C111.162 67.3024 111.374 69.5618 111.129 71.7562C110.901 72.9916 110.182 74.0644 108.876 74.2757C106.884 74.617 105.072 73.1216 103.439 72.1626C99.667 69.9682 95.9116 67.7413 92.1561 65.5306C86.6535 62.2796 81.1509 59.0287 75.6483 55.7777C75.1911 55.5664 74.8482 55.7777 74.4236 55.9403C71.6805 56.9481 68.9374 57.9721 66.1942 58.9799C67.0923 56.818 68.0067 54.6724 68.9047 52.5105C69.0353 52.2179 68.8231 51.8278 68.5618 51.6815C67.2229 50.8688 65.884 50.056 64.5451 49.2433C60.414 46.7401 56.283 44.2206 52.1193 41.7498V41.7661ZM115.946 70.6671C114.803 71.3336 113.644 71.9512 112.468 72.5689C112.583 72.2113 112.632 71.8375 112.664 71.4636C112.86 67.9526 112.681 64.4578 112.762 60.9467C112.762 58.3785 112.762 55.8102 112.762 53.242C112.73 51.8278 112.926 50.4299 112.779 49.0157C113.024 43.1152 110.77 40.3519 105.774 37.5886C102.851 35.9306 99.9446 34.2726 97.0382 32.5659C92.2051 29.7538 87.4209 26.8604 82.6531 23.9346C71.6805 17.1888 60.6426 10.4918 49.2619 4.42879C53.4256 2.20188 53.6705 1.16158 58.0464 3.94115C65.1819 8.05361 72.3173 12.1986 79.4201 16.3598C89.6742 22.4229 100.043 28.3396 110.101 34.6952C111.913 35.8656 113.726 37.1335 115.097 38.7915C117.269 41.3922 117.465 44.9195 117.465 48.1542C117.465 53.4533 117.432 58.7523 117.416 64.0677C117.334 66.2458 118.004 69.2204 115.881 70.6509L115.946 70.6671Z" fill="#323232"/>
<path d="M57.2309 20.0335C71.0772 28.0146 84.9725 35.9469 98.8025 43.928C99.7169 44.3507 98.9984 45.7323 98.1167 45.2447C85.9522 38.2551 73.7877 31.2656 61.6232 24.2597C59.9087 23.2844 58.1453 22.3579 56.4798 21.3014C55.647 20.83 56.3981 19.5458 57.2309 20.0335Z" fill="#C4D831"/>
<path d="M57.9321 27.0721C71.7784 35.0532 85.6737 42.9855 99.5037 50.9666C100.418 51.3892 99.6996 52.7709 98.8179 52.2833C86.6534 45.2937 74.4889 38.3041 62.3243 31.2983C60.6099 30.323 58.8464 29.3965 57.181 28.3399C56.3482 27.8685 57.0993 26.5844 57.9321 27.0721Z" fill="#C4D831"/>
<path d="M73.9992 43.4567C82.4735 48.3331 90.9478 53.1933 99.4059 58.0698C100.239 58.5411 99.4875 59.8253 98.6548 59.3376C91.2254 55.0789 83.8124 50.8039 76.3831 46.5451C75.3381 45.9437 74.2931 45.3422 73.2317 44.7408C72.399 44.2694 73.1501 42.9853 73.9828 43.4729L73.9992 43.4567Z" fill="#C4D831"/>
</g>
<defs>
<clipPath id="clip0_159_142807">
<rect width="119" height="148" fill="white" transform="translate(0 0.820312)"/>
</clipPath>
</defs>
</svg>
