<svg width="163" height="123" viewBox="0 0 163 123" fill="none" xmlns="http://www.w3.org/2000/svg">
<g clip-path="url(#clip0_159_142828)">
<path d="M141.73 93.4495C141.369 87.5181 140.963 81.5566 140.226 75.6554C140.151 75.1134 140.09 74.5564 140.015 74.0144C139.579 70.6122 139.158 67.2099 138.466 63.8528C138.24 62.7839 137.985 61.7151 137.639 60.6914C137.563 60.4806 137.488 60.2699 137.413 60.0591C137.398 60.0139 137.323 59.8333 137.323 59.8182C137.293 59.743 137.262 59.6677 137.232 59.6075C137.082 59.2612 136.901 58.915 136.706 58.5838C136.616 58.4332 136.525 58.2827 136.42 58.1322C136.375 58.0569 136.315 57.9967 136.27 57.9214C136.255 57.8913 136.225 57.8612 136.21 57.8461C135.999 57.5902 135.773 57.3343 135.533 57.1085C135.412 57.0031 135.292 56.8977 135.172 56.7923C135.142 56.7773 135.126 56.7622 135.096 56.7321C135.036 56.6869 134.976 56.6418 134.901 56.5966C134.63 56.4009 134.329 56.2203 134.043 56.0547C133.637 55.8289 133.216 55.603 132.795 55.3923C132.043 55.0159 131.291 54.6847 130.539 54.3234C128.628 53.4352 126.718 52.5771 124.777 51.7642C123.86 51.3728 122.927 51.0265 122.1 50.4695C122.009 50.4093 121.919 50.334 121.814 50.2738C121.197 49.8372 120.626 49.3555 120.084 48.8286C119.693 48.4372 119.317 48.0157 118.956 47.5791C117.211 50.1383 115.842 52.9535 114.563 55.7686C112.819 59.6225 111.299 63.627 109.885 67.6465C108.246 72.3133 106.756 77.0253 105.388 81.7825C105.147 82.6104 104.921 83.4384 104.696 84.2664H106.049C106.441 84.2664 106.786 84.6277 106.771 85.0191V86.5697C106.741 88.8279 106.726 91.086 106.696 93.3442L106.666 97.5594C106.666 97.7701 106.576 97.9357 106.456 98.0561C106.456 98.0561 106.441 98.0712 106.425 98.0863C106.305 98.2067 106.14 98.282 105.929 98.282H103.402C102.665 98.2519 101.943 98.2519 101.206 98.2368C101.115 98.6734 101.01 99.125 100.92 99.5616C101.296 99.5315 101.672 99.5164 102.048 99.5014C102.274 99.5014 102.484 99.5014 102.71 99.5014C102.8 99.4562 102.906 99.4411 103.011 99.4261C103.026 99.4261 103.041 99.4261 103.056 99.4261C104.094 99.3358 105.132 99.3057 106.17 99.2304C108.306 99.0949 110.442 98.9745 112.578 98.839C115.03 98.6884 117.497 98.5379 119.949 98.3873C121.994 98.2669 124.025 98.1465 126.071 98.011C126.913 97.9658 127.756 97.9056 128.598 97.8604C128.989 97.8303 129.335 98.2217 129.32 98.5981C129.32 99.0196 128.974 99.3057 128.583 99.3207C128.568 99.3207 128.553 99.3207 128.538 99.3207C127.5 99.411 126.462 99.4411 125.424 99.5164C123.288 99.6519 121.152 99.7723 119.016 99.9078C116.564 100.058 114.097 100.209 111.645 100.359C109.599 100.48 107.569 100.6 105.523 100.736C105.222 100.751 104.936 100.766 104.635 100.796C105.372 102.241 105.914 103.792 106.11 105.418C106.32 107.119 106.125 108.835 105.583 110.461L108.697 110.491L114.924 110.551L120.46 110.596L127.996 110.657L132.99 110.702L138.842 110.747L142.588 110.777C142.557 110.039 142.527 109.287 142.497 108.549C142.302 103.506 142.046 98.4777 141.745 93.4495H141.73ZM124.567 97.8002C124.145 97.8002 123.875 97.454 123.845 97.0626C123.709 95.3313 123.634 93.585 123.559 91.8538C123.378 87.6837 123.258 83.5288 123.153 79.3587C123.093 77.1006 123.032 74.8424 122.987 72.5843C122.972 71.6359 124.431 71.6509 124.461 72.5843C124.476 73.3822 124.491 74.1951 124.522 74.993C124.612 78.8017 124.717 82.5954 124.837 86.4041C124.958 89.9569 125.033 93.5248 125.319 97.0626C125.349 97.454 124.943 97.8002 124.582 97.7852L124.567 97.8002ZM135.698 60.1645C134.72 60.3 133.878 60.6763 133.051 61.2032C131.396 62.242 129.997 63.7474 128.824 65.283C127.695 66.7583 126.688 68.354 125.92 70.0401C125.755 70.4014 125.229 70.4767 124.913 70.296C124.552 70.0702 124.491 69.6487 124.657 69.2874C125.078 68.354 125.59 67.4508 126.131 66.5927C127.274 64.7711 128.628 63.0248 130.223 61.5645C131.637 60.2548 133.366 59.0204 135.337 58.7343C135.728 58.6741 136.119 58.8397 136.24 59.2612C136.33 59.6075 136.119 60.1043 135.713 60.1645H135.698Z" fill="#189655"/>
<path d="M84.9149 67.6614C84.945 67.9023 84.9601 68.113 84.9149 68.3689C84.7194 69.3324 84.4637 70.2959 84.223 71.2594C83.4859 74.1197 82.5533 76.9348 82.087 79.8554C81.6056 82.9114 81.8613 86.118 82.4329 89.189C82.6435 90.303 82.6586 91.4472 82.7338 92.5762C82.824 94.1419 82.8993 95.6925 82.9745 97.2581C83.0046 97.785 83.0196 98.3119 83.0497 98.8388C83.1249 98.8689 83.2001 98.884 83.2904 98.9141C83.6213 98.6431 83.9522 98.3571 84.2681 98.0861C84.3885 97.9807 84.5389 97.8904 84.6141 97.7399C84.6442 97.6796 84.6743 97.6194 84.6893 97.5592C84.6743 97.499 84.6592 97.4388 84.6592 97.3635V95.8129C84.6893 93.5548 84.7044 91.2966 84.7344 89.0385L84.7645 84.8233C84.7645 84.4319 85.1105 84.0856 85.5016 84.1007H85.8024C86.5395 84.1007 87.2917 84.1157 88.0287 84.1157H88.2092C88.7056 80.0962 89.2622 76.0918 89.894 72.0874C90.3152 69.3475 90.8567 66.6528 91.6389 64.0032C92.2707 61.8203 93.0228 59.6676 93.8652 57.5449C94.0006 57.1987 94.151 56.8675 94.2864 56.5212C94.3165 56.4008 94.3616 56.2954 94.4218 56.19C95.0836 54.6093 95.7756 53.0286 96.5127 51.478C96.2269 51.5684 95.9411 51.6587 95.6553 51.749C93.3989 52.4716 91.1124 53.149 88.8711 53.9018C87.8031 54.248 86.7501 54.6093 85.7122 55.0007C84.9902 55.2717 84.2681 55.5728 83.5762 55.904C83.4709 55.9492 83.3656 56.0094 83.2603 56.0545C83.7416 59.3665 84.223 62.6784 84.7044 66.0054C84.7796 66.5624 84.8698 67.1044 84.945 67.6614H84.9149Z" fill="#189655"/>
<path d="M92.5104 66.2916C91.8335 68.9261 91.4123 71.5907 91.0062 74.2704C90.5098 77.5522 90.0585 80.834 89.6523 84.1309L94.3456 84.1761C94.3606 83.6944 94.3757 83.1976 94.4058 82.7158H94.1049C93.7138 82.7158 93.3678 82.3696 93.3829 81.9782V81.4362C93.3979 80.1717 93.413 78.892 93.413 77.6275C93.413 77.2361 93.7589 76.8898 94.15 76.9049H94.6464C94.5411 75.7457 94.4358 74.5865 94.3456 73.4273C94.0297 69.5283 93.774 65.5991 93.8793 61.6699C93.3678 63.1904 92.9015 64.741 92.4954 66.2916H92.5104Z" fill="white"/>
<path d="M97.294 38.2003C97.3842 38.3659 97.4895 38.5165 97.5948 38.667C97.6249 38.7122 97.67 38.7724 97.7001 38.8176C97.7001 38.8176 97.7302 38.8477 97.7302 38.8627C97.7452 38.8778 97.8205 38.9681 97.8505 38.9982C97.9408 39.1187 98.0461 39.224 98.1664 39.3294C98.2116 39.3746 98.2567 39.4197 98.3018 39.4499C98.3169 39.4649 98.3469 39.48 98.362 39.5101C98.4522 39.5703 98.5425 39.6305 98.6327 39.6907C98.6779 39.7208 98.738 39.7359 98.7832 39.766C98.8433 39.7811 98.9035 39.8112 98.9637 39.8262C98.9637 39.8262 98.9637 39.8262 98.9787 39.8262C98.9938 39.8262 99.0389 39.8262 99.069 39.8262C99.1141 39.8262 99.1743 39.8262 99.2194 39.8262C99.2194 39.8262 99.2946 39.8112 99.3247 39.7961C99.3548 39.7961 99.3698 39.7811 99.3999 39.766C99.3999 39.766 99.3999 39.766 99.4149 39.766C99.4149 39.766 99.415 39.766 99.445 39.766C99.4902 39.7359 99.5503 39.7058 99.5955 39.6757C99.6707 39.6004 99.7459 39.5402 99.8211 39.4649C99.8512 39.4348 99.8813 39.3896 99.8963 39.3746C99.9114 39.3445 99.9414 39.3144 99.9565 39.2843C100.032 39.1789 100.092 39.0735 100.152 38.9531C100.182 38.8928 100.227 38.8176 100.257 38.7574C100.257 38.7272 100.287 38.6971 100.302 38.667C100.363 38.5165 100.408 38.381 100.453 38.2305C100.453 38.2003 100.468 38.1552 100.483 38.1251C99.3999 38.095 98.3168 38.0649 97.2188 38.0498C97.2488 38.095 97.2639 38.1401 97.294 38.1853V38.2003Z" fill="white"/>
<path d="M80.2667 111.319C79.9959 111.469 79.7402 111.74 79.4995 111.936C79.3491 112.056 79.1836 112.177 79.0332 112.297C79.1084 112.297 79.1987 112.297 79.2739 112.312C79.4845 112.147 79.68 111.996 79.8906 111.846C80.2516 111.575 80.6277 111.304 80.9887 111.048C80.8985 111.078 80.8082 111.108 80.718 111.153C80.6277 111.183 80.5224 111.259 80.4171 111.274C80.5224 111.259 80.2817 111.334 80.2667 111.319Z" fill="white"/>
<path d="M99.4602 39.7804C99.4602 39.7804 99.4307 39.7804 99.416 39.7804C99.4307 39.7804 99.4455 39.7804 99.4602 39.7656V39.7804Z" fill="white"/>
<path d="M90.9609 23.5223C91.0662 25.2234 91.2016 26.9245 91.352 28.6106C91.5927 31.1699 91.8334 33.5785 92.3599 36.1077C92.4651 36.5894 92.5704 37.0711 92.7209 37.5378C92.781 37.7034 92.8412 37.8841 92.9014 38.0497C92.9164 38.0948 92.9465 38.155 92.9465 38.1701C92.9766 38.2454 93.0067 38.3056 93.0368 38.3809C93.0969 38.5314 93.1721 38.6819 93.2474 38.8475C93.8791 40.2325 94.6012 41.5874 95.5489 42.7767C96.4815 43.951 97.6398 45.0349 99.0838 45.5317C99.5201 45.6822 99.9713 45.7725 100.423 45.8177C100.332 45.4112 100.347 44.9596 100.423 44.5832C100.603 43.7703 101.355 43.2434 102.152 43.2283C102.483 43.2283 102.814 43.2283 103.145 43.2283H104.454C105.011 43.2434 105.522 43.3488 105.928 43.7703C106.064 43.9058 106.169 44.0563 106.229 44.2219C106.575 44.1015 106.921 43.9811 107.252 43.8456C107.598 43.695 107.944 43.5294 108.29 43.3638C109.629 42.566 110.907 41.6476 112.065 40.5938C112.156 40.5035 112.261 40.4584 112.366 40.4282C112.517 40.2928 112.652 40.1422 112.803 40.0067C114.412 38.3508 115.826 36.3335 116.322 34.0452C116.322 34.0452 116.322 34.0302 116.322 34.0151C115.239 33.4882 114.382 32.4344 113.916 31.3053C113.118 29.3934 113.103 27.0751 113.916 25.1481C111.99 23.989 110.05 22.7997 108.32 21.3695C106.755 20.0748 105.357 18.5242 103.958 17.0489C101.837 14.8209 99.7457 12.5627 97.6849 10.2896C96.7974 10.7863 95.97 11.3584 95.2179 12.0358C93.8791 13.2703 92.8111 14.8209 92.1342 16.4919C91.5024 18.0275 91.1414 19.6533 91.006 21.219C90.9609 21.6555 90.6149 21.9115 90.2539 21.9265C90.2539 22.2276 90.2539 22.5136 90.2689 22.8147C90.66 22.8448 90.9158 23.176 90.9459 23.5524L90.9609 23.5223ZM93.8491 26.4127C92.9014 26.4127 92.9164 24.9374 93.8491 24.9374C94.7817 24.9374 94.7817 26.4127 93.8491 26.4127ZM102.122 37.6281C101.972 38.4561 101.716 39.2992 101.25 40.0067C100.588 41.0003 99.4599 41.6326 98.2715 41.1358C96.8275 40.5487 95.97 39.0131 95.3834 37.6432C95.3834 37.6432 95.3834 37.6281 95.3834 37.6131C95.3232 37.5077 95.2931 37.4023 95.2931 37.2819C95.2931 37.1765 95.3232 37.0711 95.3683 36.9808C95.4135 36.8604 95.5037 36.755 95.6241 36.6797C95.6241 36.6797 95.6391 36.6647 95.6541 36.6496C95.6692 36.6496 95.6842 36.6496 95.6993 36.6346C95.7294 36.6346 95.7444 36.6195 95.7745 36.6045C95.8497 36.5743 95.9249 36.5593 96.0152 36.5593C96.2408 36.5593 96.4664 36.5593 96.6921 36.5743C98.2565 36.6195 99.836 36.6496 101.4 36.6948C101.912 36.6948 102.183 37.1615 102.107 37.6281H102.122ZM102.844 26.8342C101.897 26.8342 101.912 25.3589 102.844 25.3589C103.777 25.3589 103.777 26.8342 102.844 26.8342ZM100.708 20.948C101.521 20.6168 102.483 20.6469 103.341 20.7523C104.198 20.8727 105.116 21.0534 105.868 21.5201C106.214 21.7308 106.319 22.1674 106.124 22.5287C105.943 22.8749 105.447 22.9803 105.116 22.7846C105.041 22.7395 104.98 22.6943 104.905 22.6642C104.845 22.6341 104.665 22.5739 104.83 22.6341C104.65 22.5739 104.484 22.4986 104.304 22.4534C104.123 22.3932 103.927 22.348 103.747 22.3179C103.642 22.3029 103.536 22.2728 103.431 22.2577C103.386 22.2577 103.341 22.2577 103.296 22.2427C103.296 22.2427 103.296 22.2427 103.266 22.2427C102.844 22.1975 102.438 22.1674 102.017 22.1975C101.972 22.1975 101.912 22.1975 101.867 22.1975C101.867 22.1975 101.822 22.1975 101.791 22.1975C101.761 22.1975 101.701 22.1975 101.701 22.1975C101.671 22.1975 101.626 22.1975 101.596 22.2126C101.415 22.2427 101.25 22.3029 101.084 22.3631C100.708 22.5136 100.287 22.1824 100.182 21.8362C100.047 21.4297 100.347 21.0835 100.708 20.9329V20.948ZM97.2336 24.7567C97.6548 24.7567 97.9406 25.103 97.9556 25.4944C98.0609 26.9848 97.9105 28.3848 97.1133 29.6795C96.8726 30.0709 96.6018 30.4472 96.301 30.8086C96.1054 31.0344 95.8347 31.2903 95.8196 31.6215C95.8196 31.7269 95.8196 31.7419 95.8948 31.8322C95.9851 31.9677 96.0904 32.0731 96.2107 32.1785C96.4965 32.4344 96.8425 32.6301 97.1885 32.8108C98.0158 33.2624 97.2637 34.527 96.4364 34.0753C95.6541 33.6538 94.7215 33.0516 94.4357 32.1484C94.1198 31.1548 94.7666 30.387 95.3533 29.6795C95.8948 29.002 96.4063 28.1138 96.4815 27.2708C96.5417 26.6837 96.5266 26.0815 96.4815 25.4944C96.4514 25.103 96.8425 24.7567 97.2186 24.7718L97.2336 24.7567ZM91.0512 21.4899C91.1113 21.2942 91.2317 21.1738 91.3971 21.0534C91.9838 20.6168 92.751 20.4663 93.458 20.4512C94.1198 20.4361 94.8268 20.5265 95.4436 20.7824C95.8196 20.948 96.0453 21.2641 95.955 21.6856C95.8647 22.0319 95.3984 22.348 95.0524 22.1975C94.7967 22.0921 94.526 22.0168 94.2402 21.9566C94.2101 21.9566 94.195 21.9566 94.1649 21.9566C94.0897 21.9566 94.0145 21.9416 93.9543 21.9416C93.8039 21.9416 93.6535 21.9265 93.5031 21.9416C93.4128 21.9416 93.3376 21.9416 93.2474 21.9416C93.2173 21.9416 93.1872 21.9416 93.1571 21.9416C93.0217 21.9717 92.8863 21.9867 92.7359 22.0319C92.6607 22.047 92.6005 22.0771 92.5404 22.0921L92.4651 22.1222C92.3448 22.1824 92.2245 22.2577 92.1192 22.333C91.7882 22.5739 91.3069 22.3631 91.1113 22.062C91.006 21.9115 90.991 21.6706 91.0361 21.4899H91.0512Z" fill="white"/>
<path d="M98.6475 50.3489C98.6475 50.3489 98.6174 50.4392 98.6024 50.4693C98.6024 50.4994 98.5873 50.5295 98.5723 50.5596C98.4971 50.7102 98.4369 50.8457 98.3617 50.9962C97.399 52.9533 96.5114 54.8802 95.6992 56.8824C95.6691 57.1685 95.639 57.4696 95.6089 57.7556C95.6992 57.8158 95.7744 57.8911 95.8345 57.9814C95.8646 58.0266 95.8947 58.0868 95.9398 58.1319C96.015 58.2072 96.0752 58.2975 96.1504 58.3578C96.2256 58.418 96.2858 58.4932 96.361 58.5535C96.361 58.5535 96.361 58.5535 96.3911 58.5685C96.4212 58.5986 96.4663 58.6137 96.4964 58.6438C96.9176 58.9298 97.1432 59.0201 97.5945 59.1556C98.467 59.4266 99.189 59.5169 100.122 59.532C101.054 59.5621 102.062 59.4868 102.935 59.3664C103.882 59.2309 104.815 59.0352 105.732 58.7642C106.124 58.6438 106.515 58.5083 106.906 58.3728L107.026 58.3277C107.056 58.3277 107.071 58.3126 107.101 58.2975C107.177 58.2674 107.252 58.2223 107.342 58.1922C107.492 58.1319 107.628 58.0567 107.763 57.9814C108.591 57.5298 109.328 58.8094 108.5 59.261C107.628 59.7277 106.68 60.0589 105.717 60.3148C103.702 60.8568 101.551 61.1428 99.4598 60.9923C98.0759 60.8869 96.5716 60.5707 95.4585 59.7126C95.4284 60.2395 95.3983 60.7815 95.3833 61.3084C95.2479 66.1408 95.5939 70.9582 96.0301 75.7605C97.1432 74.4809 98.2413 73.1862 99.3093 71.8615C104.168 65.8849 108.636 59.5922 113.795 53.8565C113.81 53.8415 113.825 53.8264 113.855 53.8114C113.855 53.8114 113.855 53.7963 113.855 53.7813C114.893 51.5532 116.022 49.3101 117.39 47.2477C117.135 47.1875 116.894 46.9918 116.864 46.7358C116.834 46.4799 116.804 46.239 116.759 45.9831C116.518 44.2218 116.292 42.4454 116.052 40.684C115.991 40.2926 116.142 39.9012 116.578 39.7808C116.638 39.7808 116.683 39.7657 116.744 39.7657C116.744 39.7657 116.744 39.7657 116.759 39.7657C116.819 39.7657 116.879 39.7657 116.924 39.7958L116.623 37.3721C116.518 37.5527 116.428 37.7183 116.322 37.899C116.217 38.0796 116.112 38.2452 115.991 38.4108C114.307 40.9399 111.99 43.0626 109.313 44.4777C109.027 44.6433 108.756 44.8089 108.47 44.9745C107.778 45.3659 107.071 45.7272 106.349 46.0433C106.109 46.7208 105.462 47.2025 104.695 47.2176H102.438C101.897 47.2778 101.37 47.3079 100.829 47.2929C100.753 48.4821 100.708 49.6714 100.483 50.8457C100.257 52.0199 99.8358 53.2544 98.9333 54.0823C98.6324 54.3533 98.1812 54.3684 97.8954 54.0823C97.6246 53.8114 97.6096 53.3146 97.8954 53.0436C98.2263 52.7576 98.4971 52.336 98.6475 51.9597C98.8581 51.4478 98.9784 50.9209 99.0837 50.379C99.1288 50.1682 99.1589 49.9274 99.174 49.7015C99.0085 49.8822 98.843 50.0628 98.6776 50.2435C98.6776 50.2435 98.6776 50.3338 98.6625 50.379L98.6475 50.3489Z" fill="white"/>
<path d="M117.182 39.8861C117.182 39.8861 117.212 39.9011 117.227 39.9162C117.242 39.9162 117.257 39.9463 117.272 39.9614C117.302 39.9915 117.332 40.0065 117.347 40.0366C117.347 40.0366 117.347 40.0517 117.362 40.0667C117.377 40.0968 117.407 40.127 117.422 40.1571C117.422 40.1571 117.422 40.1721 117.422 40.1872C117.437 40.2323 117.452 40.2624 117.452 40.3076C117.482 40.5635 117.513 40.8044 117.558 41.0603C117.783 42.7163 118.009 44.3873 118.219 46.0433C118.25 46.0132 118.265 45.9831 118.295 45.9379C118.626 45.4863 119.242 45.4562 119.558 45.9379C119.588 45.9981 119.633 46.0583 119.679 46.1035C119.724 46.1788 119.784 46.239 119.829 46.3143C119.829 46.3143 119.844 46.3444 119.859 46.3444C119.889 46.3895 119.934 46.4347 119.964 46.4799C120.145 46.7057 120.34 46.9315 120.521 47.1573C121.017 47.7143 121.544 48.2412 122.131 48.7079C123.68 49.9424 125.635 50.5445 127.441 51.3274C127.907 51.5231 128.373 51.7489 128.824 51.9446C128.509 51.4177 128.268 50.8306 128.102 50.2133C127.756 48.8133 127.937 47.4132 128.057 45.9981C128.193 44.3121 128.193 42.4002 127.967 40.8044C127.847 39.9463 127.666 39.1033 127.35 38.3054C127.35 38.2753 127.35 38.2753 127.335 38.2602C127.335 38.2602 127.335 38.2602 127.335 38.2452C127.335 38.2151 127.305 38.1699 127.29 38.1398C127.245 38.0495 127.215 37.9591 127.17 37.8688C127.08 37.6882 126.989 37.5226 126.884 37.357C126.658 36.9806 126.553 36.8301 126.267 36.5139C126.011 36.2429 125.696 35.9419 125.47 35.7913C125.124 35.5354 124.733 35.3096 124.342 35.1289C123.981 34.9633 123.59 34.8128 123.168 34.6924C122.777 34.9784 122.341 35.2042 121.845 35.3397C120.446 35.7311 119.212 35.2343 118.25 34.3311C118.084 34.3461 117.934 34.3612 117.768 34.3461C117.768 34.3612 117.768 34.3913 117.768 34.4063C117.738 34.5719 117.693 34.7225 117.648 34.873C117.648 34.9182 117.618 34.9784 117.603 35.0236C117.573 35.1289 117.543 35.2494 117.497 35.3547C117.482 35.3999 117.467 35.4601 117.452 35.5053C117.407 35.6408 117.347 35.7763 117.302 35.9118C117.272 35.987 117.242 36.0623 117.212 36.1376C117.182 36.2128 117.151 36.2731 117.121 36.3483C117.076 36.4387 117.046 36.5139 117.001 36.6043C116.986 36.6494 116.956 36.6946 116.941 36.7247C116.836 36.9354 116.73 37.1312 116.625 37.3419L116.926 39.7657C117.016 39.7807 117.106 39.8259 117.182 39.871V39.8861Z" fill="#333333"/>
<path d="M88.3442 98.1313C88.3141 98.7184 88.284 99.3206 88.2539 99.9077C89.0211 100.028 89.8033 100.164 90.5704 100.299C90.6156 100.299 90.6457 100.299 90.6908 100.314C90.6908 100.314 90.7209 100.314 90.751 100.314C90.7961 100.314 90.8563 100.314 90.9014 100.329C91.0668 100.344 91.2173 100.359 91.3827 100.359C91.7438 100.374 92.0897 100.359 92.4508 100.359C93.263 100.329 94.0904 100.269 94.9027 100.179C96.4069 100.028 97.8961 99.8324 99.4004 99.6819C99.5057 99.1851 99.611 98.7033 99.7163 98.2065L92.3455 98.1463L88.3592 98.1162L88.3442 98.1313Z" fill="white"/>
<path d="M95.911 58.1316C95.8514 58.0571 95.8961 58.1018 95.911 58.1316V58.1316Z" fill="white"/>
<path d="M103.162 84.2362C103.598 82.6404 104.049 81.0597 104.515 79.479C105.899 74.767 107.419 70.0701 109.088 65.4484C109.961 63.0548 110.863 60.6912 111.841 58.3428C111.375 58.8998 110.908 59.4718 110.442 60.0289C105.854 65.6742 101.612 71.5906 96.8287 77.0553C97.0093 77.1907 97.1296 77.4015 97.1296 77.6424V78.1843C97.1145 79.4489 97.0995 80.7285 97.0995 81.9931C97.0995 82.3845 96.7385 82.7307 96.3624 82.7157H95.8961C95.8811 83.1974 95.866 83.6791 95.8359 84.1759L99.0851 84.206L103.162 84.2362Z" fill="white"/>
<path d="M122.386 21.5502C122.386 21.5502 122.431 21.4448 122.446 21.3996C123.093 19.563 123.048 17.5457 122.642 15.6489C122.326 14.1886 121.814 12.7283 121.107 11.3584C121.138 11.4487 121.168 11.5541 121.198 11.6444C122.145 14.8359 122.401 18.2232 122.386 21.5652V21.5502Z" fill="#333333"/>
<path d="M116.971 22.1674C116.971 21.7459 116.941 21.3243 116.895 20.9179C116.805 19.7436 116.655 18.5995 116.459 17.4403C116.143 15.4532 115.752 13.4509 115.151 11.524C114.564 9.58199 113.556 7.77548 111.977 6.4507C111.405 5.96896 110.608 5.50228 109.886 5.11087C109.555 4.93022 109.209 4.74956 108.878 4.56891C108.742 4.49364 108.472 4.40331 108.381 4.28288C107.328 3.90652 106.275 3.53017 105.207 3.15381C103.763 3.36457 102.349 3.75598 100.965 4.1775C99.7771 4.5388 98.5888 4.93022 97.4756 5.50228C96.3926 6.05929 95.3697 6.72168 94.4521 7.5045C92.5567 9.10025 90.9021 11.1777 90.3305 13.6467C90.0296 14.9112 90.0447 16.2059 90.2252 17.4704C90.6915 15.8596 91.4135 14.3241 92.4063 12.9692C93.7301 11.1476 95.475 9.70243 97.4907 8.67873C97.7765 8.52819 98.1525 8.5583 98.3782 8.79917C99.2657 9.79275 100.168 10.7713 101.071 11.7498C102.635 13.4509 104.215 15.137 105.824 16.8081C107.253 18.2834 108.682 19.8039 110.322 21.0082C111.721 22.0319 113.18 22.9352 114.669 23.8234C115.271 23.0255 116.068 22.4233 116.956 22.1523L116.971 22.1674Z" fill="#333333"/>
<path d="M79.4397 118.454C77.6647 118.996 75.8746 119.553 74.0996 120.095V121.179C74.7013 120.983 75.303 120.803 75.9047 120.607C79.199 119.583 82.4783 118.545 85.7726 117.521C87.6529 116.934 89.5482 116.347 91.4285 115.76V114.902C91.248 114.886 91.0525 114.856 90.8719 114.841C90.7967 114.917 90.6914 114.977 90.5711 115.007C89.8791 115.218 89.1872 115.428 88.4952 115.654C85.4867 116.588 82.4632 117.506 79.4547 118.439L79.4397 118.454Z" fill="#E7E7E6"/>
<path d="M84.5087 115.353C85.4112 115.082 86.3138 114.796 87.2163 114.525C86.3138 114.435 85.4112 114.36 84.5087 114.269C83.4707 114.902 82.5532 115.715 81.4701 116.256C79.8606 117.054 77.875 115.594 78.2059 113.818C78.2059 113.773 78.236 113.742 78.236 113.697C77.9351 113.667 77.6343 113.637 77.3334 113.607C77.1228 113.757 76.9273 113.923 76.7167 114.074C75.7239 114.796 74.7311 115.669 73.4224 115.398C73.2268 115.353 73.0463 115.293 72.8809 115.218C73.1516 116.377 73.4224 117.521 73.6932 118.68C73.6932 118.68 73.7082 118.68 73.7232 118.68C74.3099 118.5 74.8815 118.319 75.4682 118.138C78.4766 117.205 81.5002 116.287 84.5087 115.353Z" fill="#E7E7E6"/>
<path d="M70.3234 104.364C71.4666 103.31 72.5948 102.211 73.7831 101.202C75.0016 100.178 76.4908 99.6214 77.9048 98.944C78.5967 98.6128 79.2134 98.2214 79.9806 98.1461C80.4921 98.1009 81.0185 98.1913 81.5149 98.3267C81.5149 98.2966 81.5149 98.2665 81.5149 98.2364C81.4096 95.7374 81.3194 93.2384 81.1238 90.7544C81.0938 90.4383 81.0637 90.1222 81.0336 89.806C81.0185 89.7308 81.0035 89.6404 80.9885 89.5652C80.8681 88.9028 80.7478 88.2253 80.6575 87.5629C80.3416 85.3349 80.2213 83.0918 80.462 80.8487C80.6726 78.8766 81.1389 76.9497 81.6503 75.0378C82.2821 72.6893 82.9289 70.3559 83.4705 67.9773C83.4103 67.5558 83.3501 67.1192 83.2899 66.6977C82.8387 63.5965 82.3874 60.5104 81.9512 57.4092C81.8308 57.6049 81.7105 57.8006 81.6052 57.9963C80.7929 59.5318 80.3416 61.233 79.9806 62.9191C79.77 63.9427 79.5895 64.9664 79.3187 65.9751C78.687 68.2784 77.8897 70.5215 77.0624 72.7495C75.3927 77.2658 73.5575 81.7068 71.6772 86.1328C71.4365 86.6898 71.1958 87.2468 70.9551 87.8038C70.8799 87.9995 70.8047 88.15 70.6543 88.2855C69.9022 88.9931 69.0899 89.6254 68.3077 90.3028C67.9466 90.6189 67.5856 90.92 67.2246 91.2362C67.2547 91.3717 67.2848 91.5072 67.3149 91.6426C68.3077 95.8729 69.3155 100.118 70.3083 104.348L70.3234 104.364ZM70.1729 91.2964C70.2632 90.905 70.7145 90.6792 71.0755 90.7845C72.9107 91.3265 74.3698 92.7567 74.9865 94.5632C75.1219 94.9546 74.821 95.346 74.46 95.4664C74.0689 95.5869 73.6778 95.3159 73.5575 94.9395C73.5424 94.8793 73.5124 94.8342 73.4973 94.7739C73.4973 94.7438 73.4973 94.7438 73.4823 94.7288C73.4522 94.6535 73.4071 94.5782 73.377 94.518C73.2867 94.3374 73.1965 94.1718 73.0912 94.0212C73.046 93.9459 72.9859 93.8707 72.9407 93.7954C72.9107 93.7502 72.8806 93.7201 72.8505 93.675C72.7301 93.5244 72.5948 93.3889 72.4594 93.2535C72.3842 93.1782 72.309 93.118 72.2337 93.0427C72.2037 93.0126 72.1736 92.9825 72.1435 92.9674C71.978 92.847 71.8126 92.7416 71.632 92.6362C71.4967 92.561 71.3312 92.4405 71.1657 92.3954C71.1507 92.3954 71.1356 92.3954 71.1206 92.3954C71.0755 92.3803 71.0303 92.3652 70.9852 92.3351C70.895 92.305 70.7897 92.2749 70.6994 92.2448C70.3083 92.1244 70.0977 91.733 70.188 91.3416L70.1729 91.2964Z" fill="white"/>
<path d="M70.3234 104.364C71.4666 103.31 72.5948 102.211 73.7831 101.202C75.0016 100.178 76.4908 99.6214 77.9048 98.944C78.5967 98.6128 79.2134 98.2214 79.9806 98.1461C80.4921 98.1009 81.0185 98.1913 81.5149 98.3267C81.5149 98.2966 81.5149 98.2665 81.5149 98.2364C81.4096 95.7374 81.3194 93.2384 81.1238 90.7544C81.0938 90.4383 81.0637 90.1222 81.0336 89.806C81.0185 89.7308 81.0035 89.6404 80.9885 89.5652C80.8681 88.9028 80.7478 88.2253 80.6575 87.5629C80.3416 85.3349 80.2213 83.0918 80.462 80.8487C80.6726 78.8766 81.1389 76.9497 81.6503 75.0378C82.2821 72.6893 82.9289 70.3559 83.4705 67.9773C83.4103 67.5558 83.3501 67.1192 83.2899 66.6977C82.8387 63.5965 82.3874 60.5104 81.9512 57.4092C81.8308 57.6049 81.7105 57.8006 81.6052 57.9963C80.7929 59.5318 80.3416 61.233 79.9806 62.9191C79.77 63.9427 79.5895 64.9664 79.3187 65.9751C78.687 68.2784 77.8897 70.5215 77.0624 72.7495C75.3927 77.2658 73.5575 81.7068 71.6772 86.1328C71.4365 86.6898 71.1958 87.2468 70.9551 87.8038C70.8799 87.9995 70.8047 88.15 70.6543 88.2855C69.9022 88.9931 69.0899 89.6254 68.3077 90.3028C67.9466 90.6189 67.5856 90.92 67.2246 91.2362C67.2547 91.3717 67.2848 91.5072 67.3149 91.6426C68.3077 95.8729 69.3155 100.118 70.3083 104.348L70.3234 104.364ZM70.1729 91.2964C70.2632 90.905 70.7145 90.6792 71.0755 90.7845C72.9107 91.3265 74.3698 92.7567 74.9865 94.5632C75.1219 94.9546 74.821 95.346 74.46 95.4664C74.0689 95.5869 73.6778 95.3159 73.5575 94.9395C73.5424 94.8793 73.5124 94.8342 73.4973 94.7739C73.4973 94.7438 73.4973 94.7438 73.4823 94.7288C73.4522 94.6535 73.4071 94.5782 73.377 94.518C73.2867 94.3374 73.1965 94.1718 73.0912 94.0212C73.046 93.9459 72.9859 93.8707 72.9407 93.7954C72.9107 93.7502 72.8806 93.7201 72.8505 93.675C72.7301 93.5244 72.5948 93.3889 72.4594 93.2535C72.3842 93.1782 72.309 93.118 72.2337 93.0427C72.2037 93.0126 72.1736 92.9825 72.1435 92.9674C71.978 92.847 71.8126 92.7416 71.632 92.6362C71.4967 92.561 71.3312 92.4405 71.1657 92.3954C71.1507 92.3954 71.1356 92.3954 71.1206 92.3954C71.0755 92.3803 71.0303 92.3652 70.9852 92.3351C70.895 92.305 70.7897 92.2749 70.6994 92.2448C70.3083 92.1244 70.0977 91.733 70.188 91.3416L70.1729 91.2964Z" fill="#189655"/>
<path d="M84.2531 98.0861C83.9222 98.357 83.5913 98.6431 83.2754 98.9141C83.5762 99.0194 83.8771 99.1098 84.193 99.185C84.915 99.3506 85.6521 99.4861 86.3741 99.6066C86.5246 99.6367 86.6599 99.6517 86.8104 99.6818C86.8254 99.17 86.8555 98.6431 86.8856 98.1312H85.3813C85.0504 98.1162 84.7646 97.8753 84.6894 97.5742C84.6743 97.6344 84.6593 97.6947 84.6142 97.7549C84.5239 97.9054 84.3885 97.9957 84.2682 98.1011L84.2531 98.0861Z" fill="white"/>
<path d="M65.5548 119.433C63.2081 119.222 60.8766 119.011 58.5299 118.801C58.2291 118.771 57.9433 118.74 57.6424 118.725C55.2206 118.53 52.7837 118.319 50.3619 118.123C47.3684 117.867 44.39 117.626 41.3966 117.371C38.4332 117.13 35.4849 116.874 32.5215 116.633C29.8139 116.407 27.1213 116.181 24.4137 115.955C22.2024 115.775 19.9912 115.579 17.7649 115.398C16.2606 115.278 14.7714 115.142 13.2672 115.022C12.9663 114.992 12.6505 114.977 12.3496 114.947V116.257C12.9363 116.302 13.5229 116.362 14.1096 116.422C15.7943 116.558 17.4941 116.708 19.1789 116.844C21.5255 117.039 23.8872 117.235 26.2338 117.431C29.0166 117.657 31.7995 117.897 34.5823 118.123C37.5758 118.379 40.5542 118.62 43.5477 118.876C46.511 119.117 49.4593 119.373 52.4227 119.614C55.1303 119.839 57.8229 120.065 60.5306 120.291C62.7418 120.472 64.9531 120.667 67.1793 120.848C68.6836 120.969 70.1728 121.104 71.677 121.224C71.9779 121.255 72.2938 121.27 72.5946 121.3V120.095C71.9328 120.05 71.2558 119.96 70.594 119.9C68.9092 119.749 67.2245 119.599 65.5397 119.448L65.5548 119.433Z" fill="#E7E7E6"/>
<path d="M162.292 110.957H159.961C158.11 110.927 156.26 110.912 154.41 110.897H153.673C153.673 110.897 153.538 110.897 153.477 110.897C152.951 110.897 152.74 110.897 152.74 110.897L146.543 110.837H145.46C144.978 110.837 144.497 110.822 144.031 110.822C143.94 108.202 143.82 105.598 143.7 102.979C143.414 97.0773 143.083 91.176 142.617 85.2747C142.361 82.0832 142.075 78.8767 141.684 75.7002C141.218 71.9969 140.782 68.2634 140.09 64.5901C139.698 62.5126 139.232 60.3749 138.284 58.463C137.623 57.1232 136.645 56.0242 135.411 55.1963C134.81 54.7898 134.163 54.4586 133.516 54.1425C133.516 54.1425 133.486 54.1274 133.471 54.1124C132.418 53.5704 131.41 52.908 130.628 52.0048C130.101 51.3875 129.74 50.695 129.53 49.9423C129.485 49.7617 129.44 49.581 129.409 49.3853C129.409 49.3401 129.409 49.295 129.394 49.2498C129.394 49.2498 129.394 49.2498 129.394 49.2348C129.394 49.1444 129.379 49.0391 129.364 48.9487C129.334 48.5874 129.334 48.2261 129.364 47.8648C129.394 47.2325 129.47 46.6003 129.515 45.968C129.65 44.1464 129.635 42.2496 129.379 40.4431C129.229 39.3591 128.943 38.2752 128.477 37.2967C128.206 36.7096 127.86 36.1676 127.424 35.6558C126.581 34.6471 125.483 33.9848 124.28 33.5482C125.303 32.1331 125.739 30.1911 125.769 28.5803C125.769 26.5028 125.137 24.0038 123.483 22.6037C123.543 22.4983 123.603 22.393 123.648 22.2725C124.476 20.3004 124.506 18.0573 124.16 15.9798C123.784 13.7066 122.911 11.4936 121.693 9.53659C120.489 7.59458 118.925 5.81818 116.999 4.59878C116.653 4.26758 116.292 3.95144 115.931 3.65036C114.036 2.09977 111.765 0.970693 109.283 0.850259C107.808 0.790041 106.379 1.12124 105.041 1.73846C103.807 1.91911 102.604 2.20515 101.415 2.55139C100.092 2.92775 98.768 3.33422 97.5194 3.90628C96.286 4.46329 95.1277 5.17084 94.0446 5.99883C91.9086 7.62469 90.0433 9.82262 89.1558 12.3818C88.1329 15.3475 88.7497 18.4638 89.5469 21.3994C89.6522 21.7757 89.9531 21.9413 90.2389 21.9263C90.5849 21.9112 90.9459 21.6553 90.991 21.2187C91.1264 19.6531 91.4874 18.0272 92.1192 16.4917C92.7961 14.8206 93.8641 13.2701 95.2029 12.0356C95.955 11.3431 96.7824 10.771 97.6699 10.2893C99.7307 12.5625 101.822 14.8357 103.943 17.0487C105.342 18.524 106.74 20.0746 108.305 21.3693C110.05 22.7994 111.975 23.9887 113.901 25.1479C113.073 27.0748 113.103 29.3932 113.901 31.3051C114.367 32.4492 115.224 33.488 116.307 34.0149C116.307 34.0149 116.307 34.0299 116.307 34.045C115.811 36.3332 114.397 38.3505 112.788 40.0065C112.652 40.157 112.502 40.2925 112.351 40.428C112.246 40.4581 112.141 40.5033 112.05 40.5936C110.892 41.6474 109.614 42.5507 108.275 43.3636C107.929 43.5292 107.598 43.6948 107.237 43.8453C106.906 43.9808 106.56 44.1163 106.214 44.2217C106.139 44.0561 106.049 43.9055 105.913 43.7701C105.507 43.3636 104.996 43.2431 104.439 43.2431H103.13C102.799 43.2431 102.468 43.213 102.137 43.2281C101.34 43.2281 100.588 43.7701 100.408 44.583C100.332 44.9593 100.317 45.411 100.408 45.8174C99.9563 45.7723 99.505 45.6819 99.0688 45.5314C97.6247 45.0346 96.4665 43.9507 95.5338 42.7765C94.5862 41.5872 93.8641 40.2172 93.2323 38.8473C93.1571 38.6968 93.097 38.5462 93.0217 38.3806C92.9917 38.3053 92.9616 38.2451 92.9315 38.1699C92.9315 38.1548 92.9014 38.0946 92.8864 38.0494C92.8262 37.8838 92.766 37.7182 92.7059 37.5376C92.5554 37.0709 92.4501 36.5892 92.3448 36.1074C91.8184 33.5783 91.5777 31.1696 91.337 28.6104C91.1715 26.9092 91.0361 25.2232 90.9459 23.522C90.9308 23.1457 90.6601 22.8145 90.269 22.7844C90.2539 22.7844 90.2389 22.7844 90.2088 22.7844C89.8327 22.7844 89.4416 23.1156 89.4717 23.507C89.562 25.0275 89.6823 26.5329 89.8177 28.0534C90.0584 30.733 90.3291 33.4277 90.8406 36.0773C90.9008 36.3784 90.9609 36.6795 91.0361 36.9655C91.6078 39.2237 92.6607 41.3614 94.0446 43.2431C95.0374 44.583 96.2408 45.8325 97.7451 46.5551C98.2565 46.811 98.783 46.9766 99.3245 47.097C99.3245 47.1422 99.3095 47.1874 99.3095 47.2325C99.2644 48.0304 99.2192 48.8885 99.129 49.6713C99.0989 49.8972 99.0688 50.138 99.0387 50.3488C98.9485 50.8907 98.8131 51.4176 98.6025 51.9295C98.4521 52.3058 98.1813 52.7274 97.8504 53.0134C97.5495 53.2844 97.5796 53.7812 97.8504 54.0521C98.1362 54.3532 98.5874 54.3231 98.8883 54.0521C99.8059 53.2392 100.227 51.9897 100.438 50.8155C100.663 49.6412 100.708 48.4519 100.784 47.2626C101.31 47.2777 101.852 47.2476 102.393 47.1723H104.65C105.417 47.1723 106.064 46.6906 106.304 46.0131C107.041 45.697 107.748 45.3357 108.425 44.9443C108.711 44.7787 108.982 44.6131 109.268 44.4475C111.945 43.0324 114.262 40.9248 115.946 38.3806C116.067 38.215 116.172 38.0344 116.277 37.8688C116.383 37.7032 116.488 37.5225 116.578 37.3419C116.684 37.1462 116.789 36.9354 116.894 36.7246C116.909 36.6795 116.939 36.6343 116.954 36.6042C116.999 36.5139 117.03 36.4386 117.075 36.3483C117.105 36.273 117.135 36.2128 117.165 36.1375C117.195 36.0623 117.225 35.987 117.255 35.9117C117.315 35.7762 117.36 35.6407 117.406 35.5052C117.421 35.4601 117.436 35.3999 117.451 35.3547C117.481 35.2493 117.526 35.1289 117.556 35.0235C117.556 34.9783 117.586 34.9332 117.601 34.873C117.646 34.7224 117.676 34.5568 117.721 34.4063C117.721 34.3912 117.721 34.3611 117.721 34.3461C117.872 34.3461 118.037 34.3461 118.203 34.331C119.166 35.2192 120.399 35.716 121.798 35.3396C122.294 35.2042 122.731 34.9783 123.122 34.6923C123.543 34.8127 123.949 34.9482 124.295 35.1289C124.686 35.3095 125.062 35.5354 125.423 35.7913C125.634 35.9418 125.965 36.2429 126.22 36.5139C126.506 36.83 126.612 36.9806 126.837 37.3569C126.942 37.5225 127.033 37.7032 127.123 37.8688C127.168 37.9591 127.213 38.0494 127.243 38.1397C127.258 38.1699 127.273 38.215 127.288 38.2451C127.288 38.2602 127.288 38.2602 127.288 38.2602C127.288 38.2602 127.288 38.2752 127.303 38.3053C127.619 39.1032 127.8 39.9613 127.92 40.8044C128.146 42.4001 128.146 44.297 128.01 45.9981C127.89 47.4132 127.725 48.7982 128.056 50.2133C128.206 50.8456 128.462 51.4176 128.778 51.9445C128.311 51.7338 127.845 51.523 127.394 51.3273C125.604 50.5445 123.648 49.9423 122.084 48.7079C121.497 48.2412 120.971 47.7143 120.474 47.1573C120.279 46.9315 120.098 46.7207 119.918 46.4798C119.888 46.4347 119.842 46.3895 119.812 46.3443C119.812 46.3443 119.797 46.3293 119.782 46.3142C119.737 46.239 119.677 46.1787 119.632 46.1035C119.587 46.0432 119.557 45.9981 119.511 45.9379C119.196 45.4411 118.579 45.4862 118.248 45.9379C118.218 45.968 118.203 45.9981 118.173 46.0433C117.947 44.3873 117.721 42.7162 117.511 41.0603C117.481 40.8044 117.451 40.5635 117.406 40.3076C117.406 40.2624 117.391 40.2172 117.375 40.1871C117.375 40.1871 117.375 40.1721 117.375 40.157C117.375 40.1269 117.345 40.0968 117.315 40.0667C117.315 40.0667 117.315 40.0516 117.3 40.0366C117.27 40.0065 117.255 39.9764 117.225 39.9613C117.21 39.9613 117.195 39.9312 117.18 39.9161C117.18 39.9161 117.15 39.9011 117.135 39.886C117.06 39.8409 116.969 39.7957 116.879 39.7807C116.819 39.7807 116.759 39.7656 116.714 39.7506C116.714 39.7506 116.714 39.7506 116.699 39.7506C116.638 39.7506 116.578 39.7506 116.533 39.7656C116.112 39.871 115.961 40.2775 116.007 40.6689C116.247 42.4302 116.473 44.2066 116.714 45.968C116.744 46.2239 116.774 46.4648 116.819 46.7207C116.849 46.9917 117.09 47.1723 117.345 47.2325C115.977 49.295 114.863 51.5381 113.81 53.7661C113.81 53.7661 113.81 53.7812 113.81 53.7962C113.795 53.8113 113.765 53.8263 113.75 53.8414C108.591 59.5771 104.123 65.8698 99.2644 71.8463C98.1963 73.1711 97.0983 74.4658 95.9851 75.7454C95.5639 70.9431 95.2029 66.1257 95.3383 61.2932C95.3533 60.7663 95.3834 60.2244 95.4135 59.6975C96.5116 60.5556 98.0309 60.8717 99.4148 60.9771C101.506 61.1277 103.657 60.8416 105.672 60.2997C106.62 60.0437 107.583 59.7126 108.455 59.2459C109.283 58.7942 108.561 57.5146 107.718 57.9663C107.583 58.0415 107.432 58.1168 107.297 58.177C107.222 58.2071 107.147 58.2523 107.056 58.2824C107.026 58.2824 107.011 58.2974 106.981 58.3125L106.861 58.3577C106.47 58.5082 106.079 58.6437 105.687 58.7491C104.77 59.0201 103.837 59.2158 102.89 59.3512C102.017 59.4717 101.009 59.547 100.077 59.5168C99.1591 59.4867 98.422 59.4115 97.5495 59.1405C97.1133 59.005 96.8726 58.8996 96.4514 58.6286C96.4213 58.5985 96.3762 58.5835 96.3461 58.5534C96.3461 58.5534 96.3311 58.5534 96.316 58.5383C96.2408 58.4781 96.1656 58.4179 96.1054 58.3426C96.0302 58.2673 95.955 58.1921 95.8949 58.1168C95.8648 58.0716 95.8347 58.0114 95.7896 57.9663C95.7294 57.8609 95.6542 57.7856 95.5639 57.7404C95.594 57.4544 95.6241 57.1533 95.6542 56.8673C96.4815 54.8651 97.354 52.9532 98.3167 50.9811C98.3919 50.8305 98.4521 50.695 98.5273 50.5445C98.5273 50.5144 98.5574 50.4843 98.5574 50.4542C98.5724 50.409 98.5875 50.3789 98.6025 50.3337C98.6025 50.2886 98.6175 50.2434 98.6175 50.1982C98.6175 50.123 98.6175 50.0627 98.6025 49.9875C98.6025 49.9423 98.5574 49.8821 98.5423 49.8369C98.4822 49.7165 98.3919 49.6262 98.2716 49.5509C98.2716 49.5509 98.2716 49.5509 98.2565 49.5509C98.091 49.4455 97.8955 49.4004 97.715 49.4756C97.6999 49.4756 97.6849 49.4756 97.6699 49.4907C97.6398 49.4907 97.5947 49.5208 97.5646 49.5359C95.8949 50.2133 94.1349 50.68 92.42 51.2219C90.0433 51.9596 87.6666 52.7123 85.3351 53.5855C84.5679 53.8715 83.8007 54.1726 83.0636 54.5188C82.7026 54.6393 82.3266 54.7597 82.0257 54.9855C81.9806 55.0156 81.9355 55.0457 81.8903 55.1059C79.5287 57.4996 78.9119 60.9771 78.2651 64.1385C77.8289 66.2311 77.1219 68.2634 76.4149 70.2656C74.7301 75.0529 72.8047 79.7498 70.8341 84.4166C70.5333 85.1242 70.2324 85.8468 69.9165 86.5544C69.8714 86.6597 69.8263 86.7651 69.7812 86.8705C69.7812 86.8705 69.7812 86.8856 69.7812 86.9006C69.7661 86.9458 69.736 87.006 69.721 87.0511C69.6909 87.1114 69.6307 87.2167 69.6006 87.292C69.5104 87.3673 69.4352 87.4426 69.3449 87.5178C68.9388 87.8641 68.5326 88.2103 68.1415 88.5566C67.7203 88.9179 67.2991 89.2792 66.878 89.6405C66.186 86.6748 65.479 83.694 64.7871 80.7283C64.3659 78.9519 64.0049 77.1454 63.5235 75.3841C63.5235 75.3841 63.5235 75.369 63.5235 75.354C63.5235 75.354 63.5235 75.3239 63.5235 75.3088C63.5235 75.2787 63.5085 75.2486 63.4934 75.2185C63.4032 74.9625 63.1926 74.8271 62.9669 74.797C62.9218 74.797 62.8616 74.7819 62.8165 74.7668C62.2599 74.7217 61.7184 74.6765 61.1618 74.6163C60.4699 74.5561 59.793 74.4959 59.101 74.4357C58.2737 74.3604 57.4614 74.3002 56.6341 74.2249C54.4078 74.0292 52.1815 73.8335 49.9702 73.6528L41.8022 72.9453C38.8388 72.6894 35.8604 72.4334 32.8971 72.1775C29.9036 71.9216 26.8951 71.6506 23.9017 71.3947C21.1038 71.1538 18.3059 70.9129 15.508 70.6721C13.1313 70.4613 10.7696 70.2656 8.39291 70.0549C6.69312 69.9043 4.99332 69.7538 3.29352 69.6183C2.48123 69.543 1.68398 69.4527 0.871688 69.4075C0.841603 69.4075 0.796475 69.4075 0.76639 69.4075C0.285032 69.3624 -0.0609444 69.9043 0.0443528 70.3258C0.405372 71.7861 0.76639 73.2313 1.12741 74.6916C1.99987 78.1691 2.85729 81.6316 3.72975 85.1091C4.78272 89.3243 5.8357 93.5546 6.88867 97.7698C7.79122 101.398 8.69376 105.026 9.61135 108.654C10.0476 110.43 10.4387 112.222 10.9351 113.983V114.013C10.9351 114.059 10.92 114.104 10.92 114.164L10.89 116.949C10.89 117.25 11.0404 117.461 11.251 117.581C11.3563 117.641 11.4917 117.687 11.612 117.702C12.1686 117.747 12.7101 117.792 13.2667 117.837C14.7709 117.958 16.2601 118.093 17.7644 118.214C19.9756 118.394 22.1868 118.59 24.4131 118.771C27.1208 118.996 29.8134 119.222 32.521 119.448C35.4844 119.689 38.4327 119.945 41.3961 120.186C44.3895 120.442 47.3679 120.682 50.3614 120.938C53.1442 121.164 55.912 121.405 58.6949 121.631C58.6949 121.631 58.7099 121.631 58.725 121.631C61.0716 121.827 63.4332 122.022 65.7799 122.218C67.4646 122.353 69.1644 122.504 70.8492 122.639C71.6464 122.7 72.4587 122.805 73.256 122.835C73.286 122.835 73.3312 122.835 73.3613 122.835C73.4966 122.835 73.617 122.805 73.7223 122.745C73.8426 122.775 73.963 122.775 74.0683 122.745C74.7602 122.579 75.4371 122.323 76.114 122.113C79.2128 121.149 82.3266 120.171 85.4253 119.207C87.6967 118.5 89.9832 117.822 92.2546 117.069C92.2847 117.069 92.3298 117.039 92.3599 117.039C92.6758 116.949 92.9014 116.663 92.9014 116.332V114.254C92.9164 113.833 92.5855 113.547 92.1944 113.517C91.1264 113.411 90.0734 113.321 89.0054 113.216C88.9603 113.216 88.9001 113.216 88.855 113.216C89.0656 113.065 89.216 112.809 89.1709 112.553C89.2611 112.523 89.3363 112.508 89.4266 112.478C89.923 112.327 90.4194 112.177 90.9008 112.011C91.0512 111.951 91.2016 111.906 91.352 111.846L96.7673 111.891H98.0309C99.5351 111.921 101.039 111.921 102.544 111.936L106.109 111.966L113.389 112.026L117.451 112.056L126.461 112.132L129.951 112.162L137.773 112.222C139.608 112.237 141.443 112.312 143.279 112.267H143.354C144.617 112.267 145.61 112.282 146.573 112.297L151.432 112.342H151.763C152.078 112.342 152.304 112.342 152.47 112.342C152.725 112.342 152.815 112.342 152.8 112.342L158.787 112.388C159.916 112.388 161.029 112.433 162.157 112.418C162.202 112.418 162.262 112.418 162.307 112.418C163.255 112.418 163.27 110.957 162.307 110.942L162.292 110.957ZM104.98 45.0045C104.98 45.0045 104.98 45.0798 104.98 45.1099C104.98 45.2153 104.98 45.3206 104.98 45.426C104.98 45.4561 104.98 45.4862 104.98 45.5163C104.98 45.5163 104.98 45.5314 104.98 45.5465C104.98 45.5465 104.98 45.5465 104.98 45.5916C104.965 45.6217 104.935 45.6518 104.92 45.6819C104.89 45.6819 104.875 45.7121 104.845 45.7271C104.845 45.7271 104.815 45.7271 104.785 45.7422C104.77 45.7422 104.755 45.7422 104.74 45.7422C104.74 45.7422 104.725 45.7422 104.71 45.7422H102.875C102.634 45.7271 102.393 45.7121 102.153 45.7271C102.137 45.7271 102.107 45.7271 102.092 45.7271C102.258 45.7271 102.077 45.7121 102.062 45.7271C102.032 45.7271 102.017 45.697 101.987 45.6819C101.987 45.6819 101.972 45.6669 101.957 45.6368C101.957 45.6217 101.927 45.5916 101.912 45.5615C101.912 45.5615 101.912 45.5163 101.897 45.5013C101.897 45.5013 101.897 45.4712 101.897 45.4561C101.897 45.426 101.897 45.3959 101.897 45.3507C101.897 45.2454 101.897 45.155 101.897 45.0497C101.897 45.0196 101.897 45.0045 101.897 44.9744C101.897 44.9744 101.897 44.9744 101.897 44.9593C101.897 44.9593 101.897 44.9443 101.897 44.9292C101.897 44.9142 101.897 44.8991 101.897 44.8991C101.897 44.8991 101.897 44.8991 101.897 44.8841C101.897 44.854 101.927 44.8389 101.942 44.8088C101.942 44.8088 101.972 44.7787 101.987 44.7636C102.017 44.7636 102.047 44.7335 102.062 44.7185C102.077 44.7185 102.107 44.7185 102.122 44.7185C102.122 44.7185 102.122 44.7185 102.137 44.7185C102.168 44.7185 102.198 44.7185 102.228 44.7185H102.634C103.311 44.7185 103.988 44.7185 104.665 44.7335C104.695 44.7335 104.74 44.7335 104.74 44.7335H104.77C104.785 44.7335 104.815 44.7636 104.83 44.7787C104.83 44.7787 104.845 44.7937 104.86 44.8088C104.86 44.8238 104.89 44.854 104.89 44.854C104.89 44.854 104.89 44.8841 104.905 44.8841C104.905 44.8841 104.905 44.9142 104.92 44.9593C104.92 44.9593 104.92 44.9744 104.92 44.9894L104.98 45.0045ZM122.64 15.6336C123.046 17.5455 123.092 19.5477 122.445 21.3843C122.43 21.4445 122.4 21.4897 122.385 21.5349C122.4 18.1928 122.144 14.8206 121.196 11.6141C121.166 11.5238 121.136 11.4184 121.106 11.328C121.813 12.698 122.339 14.1583 122.64 15.6185V15.6336ZM112.141 2.95786C114.066 3.75574 115.721 5.17084 117.06 6.7666C117.676 7.50426 118.233 8.30213 118.684 9.19034C119.782 11.3732 120.339 13.8271 120.64 16.2508C120.85 18.0272 120.925 19.8187 120.925 21.6101C120.504 21.6101 120.068 21.6854 119.662 21.851C119.421 21.9413 119.196 22.0618 118.985 22.1972C118.805 22.137 118.639 22.1069 118.459 22.0768C118.428 20.6918 118.218 19.2767 118.022 17.9369C117.706 15.8293 117.315 13.7066 116.729 11.6592C116.127 9.53659 115.164 7.47415 113.555 5.92356C112.276 4.6891 110.712 3.95144 109.192 3.09335C108.696 2.80732 108.109 2.65677 107.568 2.46107C109.087 2.17504 110.667 2.37074 112.141 2.98797V2.95786ZM110.321 21.023C108.681 19.8187 107.252 18.2982 105.823 16.8229C104.213 15.1518 102.634 13.4658 101.069 11.7646C100.167 10.7861 99.2644 9.80756 98.3769 8.81398C98.1512 8.55806 97.7752 8.543 97.4893 8.69355C95.4737 9.71724 93.7287 11.1624 92.405 12.984C91.4272 14.3389 90.7052 15.8895 90.2238 17.4853C90.0433 16.2056 90.0283 14.926 90.3291 13.6615C90.9008 11.2076 92.5554 9.13012 94.4508 7.51931C95.3834 6.73649 96.4063 6.0741 97.4743 5.51709C98.5875 4.94503 99.7608 4.55361 100.964 4.19231C102.348 3.77079 103.777 3.37938 105.206 3.16862C106.259 3.54498 107.327 3.92133 108.38 4.29769C108.47 4.41813 108.741 4.50845 108.876 4.58372C109.207 4.76437 109.553 4.94503 109.884 5.12568C110.606 5.51709 111.404 5.98377 111.975 6.46551C113.555 7.77523 114.548 9.58175 115.149 11.5388C115.736 13.4658 116.127 15.468 116.458 17.4551C116.638 18.6143 116.804 19.7585 116.894 20.9327C116.924 21.3542 116.954 21.7607 116.969 22.1822C116.082 22.4532 115.27 23.0553 114.683 23.8532C113.194 22.965 111.735 22.0618 110.336 21.0381L110.321 21.023ZM115.54 31.2298C114.623 29.5739 114.563 27.391 115.315 25.6597C115.6 24.9672 116.097 24.2597 116.699 23.8683C116.984 23.6876 117.27 23.5672 117.556 23.507C117.406 23.7027 117.285 23.8984 117.165 24.1091C115.826 26.4275 115.676 29.5136 116.668 31.9825C116.759 32.2234 116.879 32.4643 116.999 32.6901C116.368 32.389 115.901 31.8471 115.555 31.2298H115.54ZM121.948 33.7288C121.332 34.06 120.625 34.1052 119.978 33.8192C119.256 33.488 118.669 32.7955 118.278 32.0277C117.255 30.1008 117.24 27.6017 118.052 25.5995C118.368 24.8016 118.925 23.9586 119.587 23.507C120.234 23.0704 120.895 22.9349 121.587 23.1607C121.963 23.2812 122.324 23.507 122.64 23.8081C123.001 24.1543 123.287 24.5457 123.528 24.9973C124.114 26.0813 124.34 27.3458 124.34 28.5652C124.31 30.4319 123.678 32.7955 121.963 33.7288H121.948ZM95.8798 82.7155H96.3461C96.7372 82.7155 97.0983 82.3843 97.0832 81.9929L97.1133 78.1842V77.6422C97.1133 77.4013 96.993 77.1906 96.8124 77.0551C101.611 71.5904 105.853 65.6741 110.426 60.0287C110.892 59.4566 111.358 58.8996 111.825 58.3426C110.847 60.6911 109.945 63.0546 109.072 65.4482C107.387 70.0699 105.883 74.7518 104.499 79.4788C104.033 81.0595 103.582 82.6553 103.145 84.236L99.0688 84.2059L95.8196 84.1758C95.8347 83.694 95.8497 83.1973 95.8798 82.7155ZM103.491 85.7113H105.281C105.281 86.8856 105.266 88.0447 105.251 89.219L105.191 95.9934V96.8063C103.115 96.7913 101.039 96.7762 98.9635 96.7461L87.8923 96.6558H86.1022C86.1022 95.4816 86.1173 94.3224 86.1323 93.1481L86.1925 86.3737V85.5608C88.2683 85.5758 90.3442 85.5909 92.42 85.621H94.4959C94.6313 85.8016 94.8268 85.907 95.0525 85.907C95.2781 85.907 95.4737 85.8016 95.609 85.6511L103.491 85.7113ZM99.7006 98.2365C99.5953 98.7333 99.49 99.215 99.3847 99.7118C97.8805 99.8624 96.3913 100.058 94.887 100.209C94.0747 100.299 93.2474 100.359 92.4351 100.389C92.0741 100.389 91.7281 100.389 91.3671 100.389C91.2016 100.389 91.0512 100.374 90.8857 100.359C90.8406 100.359 90.7804 100.359 90.7353 100.344C90.7052 100.344 90.6902 100.344 90.6751 100.344C90.63 100.344 90.5999 100.344 90.5548 100.329C89.7876 100.194 89.0205 100.058 88.2382 99.9376C88.2683 99.3505 88.2984 98.7483 88.3285 98.1612L92.3148 98.1913L99.6855 98.2515L99.7006 98.2365ZM94.3605 73.412C94.4508 74.5711 94.5561 75.7303 94.6614 76.8895H94.165C93.7739 76.8895 93.4279 77.2207 93.4279 77.6121L93.3978 81.4208V81.9628C93.3978 82.3542 93.7287 82.7005 94.1198 82.7005H94.4207C94.4057 83.1822 94.3906 83.679 94.3605 84.1607L89.6673 84.1156C90.0734 80.8187 90.5247 77.5368 91.0211 74.255C91.4272 71.5753 91.8484 68.9107 92.5253 66.2762C92.9315 64.7106 93.3978 63.175 93.9092 61.6546C93.804 65.5687 94.0597 69.5129 94.3756 73.412H94.3605ZM95.6542 78.3648L95.6241 81.2402H94.872C94.872 80.2767 94.887 79.3132 94.9021 78.3648H95.6542ZM83.56 55.9038C84.252 55.5726 84.974 55.2715 85.6961 55.0006C86.734 54.6091 87.787 54.2629 88.855 53.9016C91.1114 53.1489 93.3828 52.4714 95.6391 51.7488C95.9249 51.6585 96.2107 51.5682 96.4966 51.4779C95.7595 53.0284 95.0525 54.5941 94.4056 56.1898C94.3455 56.2802 94.3004 56.4006 94.2703 56.521C94.1349 56.8673 93.9845 57.1985 93.8491 57.5447C93.0067 59.6674 92.2546 61.8202 91.6228 64.003C90.8556 66.6676 90.3141 69.3624 89.8779 72.0872C89.2461 76.0916 88.6895 80.0961 88.1931 84.1156H88.0126C87.2755 84.1156 86.5234 84.1156 85.7863 84.1005H85.4855C85.0944 84.1005 84.7484 84.4317 84.7484 84.8231L84.7183 89.0383L84.6581 95.8127V97.3633C84.6581 97.3633 84.6581 97.4988 84.6732 97.5591C84.7634 97.8601 85.0492 98.101 85.3651 98.101H86.8694C86.8393 98.6279 86.8092 99.1398 86.7942 99.6666C86.6437 99.6365 86.5084 99.6215 86.3579 99.5914C85.6209 99.4709 84.8988 99.3355 84.1768 99.1699C83.8609 99.0946 83.56 99.0043 83.2592 98.8989C83.184 98.8688 83.1088 98.8537 83.0185 98.8236C83.0035 98.2967 82.9734 97.7698 82.9433 97.2429C82.8681 95.6773 82.7929 94.1116 82.7026 92.561C82.6425 91.4319 82.6124 90.2878 82.4018 89.1738C81.8302 86.1027 81.5594 82.8962 82.0558 79.8401C82.5221 76.9196 83.4548 74.1045 84.1918 71.2441C84.4325 70.2807 84.6882 69.3322 84.8838 68.3537C84.9289 68.0978 84.9289 67.887 84.8838 67.6462C84.8086 67.0892 84.7183 66.5472 84.6431 65.9902C84.1617 62.6782 83.6804 59.3663 83.199 56.0393C83.3043 55.9941 83.4096 55.9339 83.5149 55.8888L83.56 55.9038ZM68.322 90.3179C69.1042 89.6555 69.9165 89.0082 70.6687 88.3007C70.8191 88.1501 70.8793 87.9996 70.9695 87.8189C71.2102 87.2619 71.4509 86.7049 71.6916 86.1479C73.5869 81.7219 75.407 77.2809 77.0768 72.7646C77.9041 70.5366 78.7164 68.2784 79.3331 65.9902C79.6039 64.9816 79.7844 63.9579 79.995 62.9342C80.341 61.2481 80.8073 59.547 81.6196 58.0114C81.7249 57.8157 81.8452 57.62 81.9655 57.4243C82.4168 60.5255 82.8681 63.6116 83.3043 66.7128C83.3645 67.1343 83.4247 67.5709 83.4848 67.9924C82.9433 70.371 82.2965 72.7044 81.6647 75.0529C81.1533 76.9648 80.6869 78.8917 80.4763 80.8638C80.2357 83.1069 80.371 85.35 80.6719 87.578C80.7621 88.2555 80.8825 88.9179 81.0028 89.5803C81.0028 89.6555 81.0329 89.7459 81.048 89.8211C81.078 90.1373 81.1081 90.4534 81.1382 90.7696C81.3338 93.2535 81.424 95.7676 81.5293 98.2515C81.5293 98.2817 81.5293 98.3118 81.5293 98.3419C81.0329 98.2064 80.5064 98.101 79.995 98.1612C79.2278 98.2365 78.596 98.6279 77.9191 98.9591C76.5051 99.6365 75.0009 100.178 73.7975 101.217C72.6091 102.226 71.4809 103.31 70.3377 104.379C69.3449 100.148 68.3371 95.9031 67.3443 91.6728C67.3142 91.5373 67.2841 91.4018 67.254 91.2663C67.615 90.9502 67.9761 90.6491 68.3371 90.333L68.322 90.3179ZM11.266 109.301C10.3936 105.824 9.53614 102.361 8.66368 98.8838C7.61071 94.6686 6.55773 90.4384 5.50476 86.2232C4.60222 82.5951 3.69967 78.967 2.78208 75.3389C2.48123 74.1346 2.18038 72.9302 1.87953 71.7259C1.81936 71.47 1.75919 71.214 1.69902 70.9431C1.92466 70.9581 2.1503 70.9882 2.37593 71.0033C3.88018 71.1388 5.39947 71.2592 6.90371 71.3947C9.12999 71.5904 11.3563 71.7861 13.5675 71.9667C16.2902 72.2076 19.0129 72.4334 21.7356 72.6743C24.6989 72.9302 27.6773 73.1861 30.6407 73.4421C33.6341 73.698 36.6426 73.969 39.6361 74.2249C42.434 74.4658 45.2319 74.7066 48.0298 74.9475C50.4065 75.1583 52.7681 75.354 55.1449 75.5647C56.8447 75.7153 58.5444 75.8658 60.2442 76.0013C60.8911 76.0615 61.5379 76.1368 62.1847 76.182C62.4856 77.4766 62.7864 78.7713 63.1023 80.066C63.9146 83.5435 64.7419 87.0361 65.5542 90.5136C66.547 94.7439 67.5549 98.9892 68.5477 103.219C69.4051 106.863 70.2625 110.506 71.1199 114.149C71.4057 115.353 71.6915 116.573 71.9774 117.777C72.0375 118.033 72.0977 118.304 72.1428 118.56C71.9172 118.545 71.6915 118.515 71.4659 118.5C69.9767 118.364 68.4875 118.229 66.9983 118.093C64.7871 117.897 62.5758 117.702 60.3646 117.491C57.672 117.25 54.9944 117.009 52.3018 116.768C49.3535 116.497 46.4202 116.241 43.4719 115.97C40.4935 115.699 37.5301 115.428 34.5517 115.173C31.7689 114.917 28.986 114.676 26.2032 114.42C23.8566 114.209 21.525 113.998 19.1784 113.788C17.4936 113.637 15.8088 113.486 14.1241 113.336C13.4923 113.276 12.8455 113.2 12.2137 113.155C11.8978 111.861 11.5669 110.581 11.251 109.286L11.266 109.301ZM72.6091 121.3C72.3083 121.27 71.9924 121.255 71.6916 121.224C70.1873 121.104 68.6981 120.968 67.1939 120.848C64.9826 120.667 62.7714 120.472 60.5451 120.291C57.8375 120.065 55.1449 119.839 52.4372 119.614C49.4739 119.373 46.5255 119.117 43.5622 118.876C40.5687 118.62 37.5903 118.379 34.5969 118.123C31.814 117.897 29.0312 117.657 26.2483 117.431C23.9017 117.235 21.54 117.039 19.1934 116.844C17.5086 116.708 15.8088 116.558 14.1241 116.422C13.5374 116.377 12.9508 116.302 12.3491 116.256V114.947C12.665 114.977 12.9658 114.992 13.2817 115.022C14.786 115.142 16.2752 115.278 17.7794 115.398C19.9906 115.579 22.2019 115.775 24.4282 115.955C27.1358 116.181 29.8284 116.407 32.536 116.633C35.4994 116.874 38.4477 117.13 41.4111 117.37C44.4045 117.626 47.3829 117.867 50.3764 118.123C52.7982 118.319 55.2351 118.53 57.6569 118.725C57.9578 118.755 58.2436 118.786 58.5444 118.801C60.8911 119.011 63.2226 119.222 65.5693 119.433C67.254 119.583 68.9388 119.734 70.6235 119.885C71.3004 119.945 71.9623 120.02 72.6392 120.08V121.285L72.6091 121.3ZM73.7223 118.68C73.7223 118.68 73.7072 118.68 73.6922 118.68C73.4214 117.521 73.1507 116.377 72.8799 115.218C73.0454 115.293 73.2259 115.368 73.4214 115.398C74.7452 115.669 75.738 114.811 76.7157 114.074C76.9263 113.923 77.1219 113.757 77.3325 113.607C77.6333 113.637 77.9342 113.667 78.235 113.697C78.235 113.742 78.2049 113.773 78.2049 113.818C77.889 115.594 79.8746 117.069 81.4691 116.256C82.5522 115.715 83.4848 114.902 84.5077 114.269C85.4103 114.36 86.3128 114.435 87.2154 114.525C86.3128 114.796 85.4103 115.082 84.5077 115.353C81.4992 116.287 78.4757 117.205 75.4672 118.138C74.8805 118.319 74.3089 118.5 73.7223 118.68ZM80.4312 111.274C80.5365 111.258 80.6418 111.198 80.7321 111.153C80.8223 111.123 80.9126 111.093 81.0028 111.048C80.6268 111.304 80.2657 111.575 79.9047 111.846C79.7092 111.996 79.4986 112.147 79.288 112.312C79.2128 112.312 79.1225 112.312 79.0473 112.297C79.1977 112.177 79.3632 112.056 79.5136 111.936C79.7543 111.755 80.01 111.469 80.2808 111.319C80.3109 111.319 80.5365 111.258 80.4312 111.274ZM80.6568 115.022C80.6869 115.022 80.7471 114.992 80.6568 115.022V115.022ZM90.5548 115.022C90.6751 114.977 90.7804 114.917 90.8556 114.856C91.0361 114.871 91.2317 114.902 91.4272 114.917V115.775C89.5319 116.362 87.6516 116.949 85.7713 117.536C82.477 118.56 79.1977 119.599 75.9034 120.622C75.3017 120.818 74.7 120.999 74.0833 121.194V120.11C75.8734 119.568 77.6484 119.011 79.4234 118.469C82.4319 117.536 85.4554 116.618 88.4639 115.684C89.1558 115.474 89.8478 115.263 90.5397 115.037L90.5548 115.022ZM104.198 109.949C102.86 109.964 101.521 109.979 100.182 110.009C97.8353 110.039 95.5038 110.069 93.1571 110.099C92.7059 110.099 92.2546 110.099 91.8033 110.114C91.5175 110.129 91.2467 110.28 90.976 110.385C90.7203 110.476 90.4796 110.566 90.2238 110.656C89.7726 110.807 89.3063 110.957 88.8399 111.078C88.1029 111.289 87.3507 111.469 86.6137 111.695C85.1696 112.147 83.906 112.854 82.6725 113.712C82.1009 114.104 81.5443 114.51 80.9276 114.856C80.8674 114.887 80.8073 114.917 80.7471 114.962C80.7321 114.962 80.6569 115.007 80.6418 115.007C80.6117 115.007 80.5365 115.007 80.5215 115.007C80.2357 114.977 80.0401 114.887 79.8446 114.691C79.6791 114.525 79.634 114.345 79.649 114.119C79.649 114.074 79.649 114.013 79.7393 113.893C79.7994 113.803 79.9499 113.682 80.0852 113.577C80.7621 113.02 81.4691 112.508 82.1912 112.026C82.9132 111.529 83.6653 111.093 84.4024 110.626C85.1846 110.144 85.9217 109.587 86.6437 109.015C86.7791 108.91 86.8995 108.805 87.0349 108.699C87.3207 108.473 87.3056 108.007 87.095 107.736C86.8543 107.435 86.4933 107.374 86.1473 107.54C84.8537 108.157 83.4848 108.594 82.131 109.076C81.4691 109.316 80.7922 109.542 80.1454 109.813C79.7844 109.949 79.4685 110.099 79.1827 110.325C77.7236 111.484 76.2645 112.674 74.7 113.697C74.4894 113.833 74.2939 113.953 74.0532 113.968C73.9028 113.968 73.6621 113.938 73.5267 113.863C73.4816 113.833 73.3011 113.712 73.3462 113.742C73.2409 113.652 73.1958 113.592 73.1657 113.532C73.0905 113.411 73.0755 113.276 73.1055 113.17C73.1807 112.929 73.4365 112.719 73.6471 112.523C73.978 112.222 74.324 111.921 74.67 111.635C75.5274 110.912 76.3848 110.205 77.2723 109.497C77.4678 109.347 77.6484 109.196 77.8439 109.045C77.9191 108.985 77.9943 108.925 78.0695 108.865C78.1147 108.835 78.1598 108.79 78.2049 108.759C78.2049 108.759 78.22 108.744 78.2501 108.729C78.5509 108.504 78.8518 108.323 79.1827 108.142C79.3482 108.052 79.5136 107.977 79.6791 107.886C81.1683 107.299 82.6425 106.697 84.1317 106.11C84.4927 105.959 84.7634 105.628 84.6581 105.207C84.5679 104.845 84.1317 104.559 83.7556 104.68C82.1912 105.237 80.6117 105.824 79.1075 106.531C78.8969 106.622 78.6863 106.697 78.4757 106.787C78.235 106.878 77.9793 106.968 77.7687 107.134C77.5581 107.299 77.3626 107.465 77.152 107.63C76.2645 108.353 75.3619 109.076 74.4744 109.783C73.6922 110.415 72.8949 111.063 72.1127 111.695C72.0977 111.71 72.0676 111.725 72.0526 111.755C71.8721 110.987 71.6916 110.205 71.511 109.437C72.4888 108.534 73.4666 107.645 74.4594 106.757C74.9106 106.351 75.3619 105.944 75.8282 105.553C75.9185 105.478 75.9937 105.417 76.0839 105.342C76.114 105.312 76.1441 105.282 76.1892 105.267C76.1892 105.267 76.2043 105.252 76.2193 105.252C76.2193 105.252 76.2344 105.252 76.2645 105.222C76.5352 105.056 76.806 104.906 77.0918 104.77C77.7537 104.454 78.4757 104.183 79.2128 103.942C79.8145 103.776 80.4011 103.626 80.9727 103.385C81.0329 103.37 81.0931 103.34 81.1533 103.31C81.8903 102.964 81.3789 101.654 80.5967 101.955C80.5666 101.955 80.5365 101.985 80.4914 101.985C80.702 101.895 80.4463 101.985 80.356 102.015C80.1755 102.075 79.995 102.12 79.8145 102.181C79.4685 102.286 79.1376 102.391 78.7916 102.512C77.9793 102.738 77.152 102.948 76.3848 103.295C75.0761 103.897 73.993 104.966 72.9401 105.929C72.3384 106.486 71.7367 107.119 71.0899 107.676C70.9545 107.103 70.8191 106.531 70.6837 105.959C70.804 105.854 70.9244 105.749 71.0447 105.628C72.0977 104.665 73.1356 103.701 74.1886 102.753C74.7301 102.271 75.2566 101.834 75.8884 101.488C76.5352 101.127 77.1971 100.841 77.874 100.54C78.1899 100.389 78.5208 100.254 78.8367 100.088C79.1225 99.9527 79.4083 99.757 79.7092 99.6516C80.1905 99.486 80.6418 99.5763 81.1533 99.7269C81.9054 99.9376 82.6274 100.254 83.3795 100.465C84.1467 100.675 84.959 100.811 85.7412 100.946C87.2003 101.202 88.6745 101.413 90.1336 101.669C92.1794 102.03 94.3154 101.699 96.3461 101.458C98.5574 101.202 100.799 100.901 103.025 100.946C103.792 102.346 104.379 103.837 104.604 105.432C104.83 106.953 104.635 108.473 104.168 109.919L104.198 109.949ZM138.826 110.747L132.975 110.701L127.98 110.656L120.444 110.596L114.909 110.551L108.681 110.491L105.567 110.461C106.124 108.835 106.319 107.119 106.094 105.417C105.898 103.792 105.357 102.241 104.619 100.796C104.92 100.781 105.206 100.766 105.507 100.736C107.553 100.615 109.583 100.495 111.629 100.359C114.081 100.209 116.548 100.058 119 99.9075C121.136 99.772 123.272 99.6516 125.408 99.5161C126.446 99.4559 127.484 99.4107 128.522 99.3204C128.537 99.3204 128.552 99.3204 128.567 99.3204C128.958 99.2903 129.304 99.0042 129.304 98.5978C129.304 98.2214 128.973 97.83 128.582 97.8601C127.74 97.9053 126.897 97.9655 126.055 98.0107C124.009 98.1311 121.978 98.2515 119.933 98.387C117.481 98.5376 115.014 98.6881 112.562 98.8387C110.426 98.9742 108.29 99.0946 106.154 99.2301C105.116 99.2903 104.078 99.3354 103.04 99.4258C103.025 99.4258 103.01 99.4258 102.995 99.4258C102.89 99.4258 102.799 99.4559 102.694 99.5011C102.468 99.5011 102.258 99.5011 102.032 99.5011C101.656 99.5011 101.28 99.5312 100.904 99.5613C100.994 99.1247 101.1 98.6731 101.19 98.2365H103.386C104.228 98.2666 105.071 98.2666 105.913 98.2816C106.124 98.2816 106.289 98.2064 106.41 98.0859C106.41 98.0859 106.425 98.0709 106.44 98.0558C106.56 97.9354 106.635 97.7698 106.65 97.5591L106.68 93.3438L106.74 86.5694V85.0188C106.756 84.6274 106.425 84.2812 106.018 84.2812H104.665C104.89 83.4381 105.116 82.6101 105.357 81.7821C106.725 77.025 108.2 72.313 109.854 67.6462C111.268 63.6267 112.803 59.6222 114.532 55.7683C115.796 52.9532 117.165 50.138 118.925 47.5788C119.271 48.0154 119.662 48.4369 120.053 48.8283C120.58 49.3552 121.166 49.852 121.783 50.2735C121.873 50.3337 121.963 50.409 122.069 50.4692C122.911 51.0262 123.829 51.3875 124.746 51.7639C126.687 52.5768 128.612 53.4349 130.508 54.3231C131.26 54.6694 132.027 55.0156 132.764 55.392C133.185 55.6027 133.606 55.8135 134.012 56.0544C134.313 56.22 134.599 56.4006 134.87 56.5963C134.93 56.6415 135.005 56.6866 135.065 56.7318C135.095 56.7469 135.111 56.7619 135.141 56.792C135.261 56.8974 135.381 57.0028 135.502 57.1082C135.742 57.334 135.968 57.5748 136.179 57.8458C136.194 57.8759 136.224 57.906 136.239 57.9211C136.284 57.9964 136.344 58.0566 136.389 58.1318C136.494 58.2824 136.585 58.4329 136.675 58.5835C136.87 58.9147 137.036 59.2609 137.201 59.6072C137.232 59.6824 137.262 59.7427 137.292 59.8179C137.292 59.8179 137.367 60.0136 137.382 60.0588C137.457 60.2696 137.532 60.4803 137.608 60.6911C137.954 61.7298 138.209 62.7836 138.435 63.8525C139.142 67.2096 139.563 70.6119 139.984 74.0141C140.059 74.5561 140.12 75.1131 140.195 75.655C140.917 81.5563 141.338 87.5028 141.699 93.4492C142 98.4774 142.256 103.521 142.451 108.549C142.481 109.286 142.511 110.039 142.542 110.777L138.796 110.747H138.826Z" fill="#2E2F2E"/>
<path d="M70.6693 92.2151C70.7595 92.2452 70.8648 92.2753 70.9551 92.3055C71.0002 92.3205 71.0453 92.3356 71.0904 92.3657C71.0904 92.3657 71.1205 92.3657 71.1356 92.3657C71.286 92.4108 71.4665 92.5313 71.6019 92.6065C71.7824 92.7119 71.9479 92.8173 72.1133 92.9377C72.1434 92.9678 72.1735 92.998 72.2036 93.013C72.2788 93.0732 72.354 93.1485 72.4292 93.2238C72.5646 93.3593 72.7 93.4947 72.8203 93.6453C72.8504 93.6904 72.8805 93.7206 72.9106 93.7657C72.9708 93.841 73.0159 93.9163 73.061 93.9915C73.1663 94.1571 73.2566 94.3227 73.3468 94.4883C73.3769 94.5636 73.422 94.6238 73.4521 94.6991C73.4521 94.6991 73.4521 94.7292 73.4672 94.7442C73.4822 94.8045 73.5123 94.8496 73.5273 94.9098C73.6477 95.2711 74.0237 95.5572 74.4299 95.4367C74.7909 95.3314 75.0767 94.9249 74.9564 94.5335C74.3396 92.727 72.8805 91.2968 71.0453 90.7549C70.6843 90.6495 70.233 90.8753 70.1428 91.2667C70.0525 91.6581 70.2481 92.0646 70.6542 92.17L70.6693 92.2151Z" fill="#2E2F2E"/>
<path d="M102.861 25.3589C101.913 25.3589 101.898 26.8192 102.861 26.8342C103.824 26.8493 103.824 25.3739 102.861 25.3589Z" fill="#2E2F2E"/>
<path d="M93.8648 24.9521C92.9172 24.9521 92.9021 26.4124 93.8648 26.4275C94.8276 26.4425 94.8276 24.9672 93.8648 24.9521Z" fill="#2E2F2E"/>
<path d="M101.416 36.6946C99.8514 36.6494 98.272 36.6193 96.7075 36.5741C96.4819 36.5741 96.2563 36.5741 96.0306 36.5591C95.9554 36.5591 95.8652 36.5591 95.79 36.6042C95.7599 36.6042 95.7448 36.6193 95.7147 36.6344C95.6997 36.6344 95.6847 36.6344 95.6696 36.6494C95.6696 36.6494 95.6546 36.6645 95.6395 36.6795C95.5192 36.7548 95.4289 36.8602 95.3838 36.9806C95.3387 37.0709 95.3086 37.1763 95.3086 37.2817C95.3086 37.4021 95.3387 37.5226 95.3988 37.6129C95.3988 37.6129 95.3988 37.6279 95.3988 37.643C95.9855 38.9979 96.8429 40.5334 98.287 41.1356C99.4603 41.6173 100.604 41.0001 101.265 40.0065C101.732 39.299 101.972 38.4559 102.138 37.6279C102.228 37.1613 101.942 36.7096 101.431 36.6946H101.416ZM99.2497 39.856C99.2497 39.856 99.3099 39.856 99.2948 39.856C99.2948 39.856 99.2648 39.856 99.2497 39.856ZM100.453 38.2452C100.408 38.3957 100.348 38.5312 100.303 38.6817C100.303 38.7118 100.273 38.742 100.258 38.7721C100.227 38.8323 100.197 38.9076 100.152 38.9678C100.092 39.0731 100.032 39.1936 99.9567 39.299C99.9417 39.3291 99.9116 39.3592 99.8965 39.3893C99.8965 39.3893 99.8514 39.4495 99.8213 39.4796C99.7461 39.5549 99.6709 39.6302 99.5957 39.6904C99.5506 39.7205 99.4904 39.7506 99.4453 39.7807C99.4453 39.7807 99.4302 39.7807 99.4152 39.7807C99.4152 39.7807 99.4453 39.7807 99.4603 39.7807C99.4453 39.7807 99.4302 39.7807 99.4152 39.7958C99.37 39.8108 99.3851 39.8108 99.4152 39.7958C99.3851 39.7958 99.3701 39.8108 99.34 39.8259C99.3099 39.8259 99.2648 39.8259 99.2347 39.856C99.2347 39.856 99.1294 39.856 99.0843 39.856C99.0692 39.856 99.0241 39.856 98.994 39.856H98.979C98.9188 39.856 98.8586 39.8259 98.7984 39.7958C98.7533 39.7656 98.6931 39.7506 98.648 39.7205C98.5578 39.6603 98.4675 39.6 98.3773 39.5398C98.3622 39.5248 98.3321 39.5097 98.3171 39.4796C98.272 39.4345 98.2268 39.4043 98.1817 39.3592C98.0764 39.2538 97.9711 39.1484 97.8658 39.028C97.8357 38.9979 97.7756 38.9076 97.7455 38.8925C97.7455 38.8774 97.7154 38.8473 97.7154 38.8473C97.6853 38.8022 97.6402 38.742 97.6101 38.6968C97.5048 38.5462 97.3995 38.3807 97.3092 38.2301C97.2792 38.1849 97.2641 38.1398 97.234 38.0946C98.3171 38.1247 99.4001 38.1548 100.498 38.1699C100.498 38.2 100.483 38.2452 100.468 38.2753L100.453 38.2452Z" fill="#2E2F2E"/>
<path d="M135.322 58.7343C133.367 59.0203 131.637 60.2547 130.208 61.5645C128.629 63.0247 127.275 64.771 126.116 66.5926C125.575 67.4658 125.063 68.354 124.642 69.2873C124.477 69.6486 124.537 70.0702 124.898 70.296C125.214 70.4766 125.74 70.4013 125.906 70.04C126.673 68.354 127.681 66.7582 128.809 65.2829C129.997 63.7323 131.381 62.2419 133.036 61.2032C133.863 60.6763 134.706 60.2999 135.683 60.1644C136.075 60.1042 136.3 59.6225 136.21 59.2612C136.105 58.8396 135.698 58.6891 135.307 58.7343H135.322Z" fill="#2E2F2E"/>
<path d="M96.483 27.2709C96.3928 28.129 95.8964 29.0021 95.3548 29.6796C94.7832 30.3871 94.1214 31.1549 94.4372 32.1485C94.723 33.0518 95.6406 33.6389 96.4379 34.0754C97.2652 34.5271 98.0173 33.2625 97.19 32.8109C96.8591 32.6302 96.5131 32.4345 96.2123 32.1786C96.0919 32.0732 95.9866 31.9678 95.8964 31.8324C95.8362 31.727 95.8061 31.727 95.8212 31.6216C95.8362 31.3055 96.107 31.0495 96.3025 30.8087C96.6034 30.4474 96.8741 30.071 97.1148 29.6796C97.897 28.3849 98.0474 26.9849 97.9572 25.4945C97.9271 25.1031 97.6413 24.7568 97.2351 24.7568C96.8591 24.7568 96.468 25.088 96.4981 25.4794C96.5432 26.0666 96.5432 26.6687 96.4981 27.2558L96.483 27.2709Z" fill="#2E2F2E"/>
<path d="M101.085 22.3778C101.25 22.3176 101.416 22.2574 101.596 22.2273C101.626 22.2273 101.671 22.2273 101.702 22.2122C101.702 22.2122 101.762 22.2122 101.792 22.2122C101.822 22.2122 101.852 22.2122 101.867 22.2122C101.912 22.2122 101.972 22.2122 102.017 22.2122C102.439 22.1821 102.845 22.2122 103.266 22.2574C103.266 22.2574 103.281 22.2574 103.296 22.2574C103.341 22.2574 103.386 22.2574 103.431 22.2725C103.537 22.2875 103.642 22.3176 103.747 22.3327C103.943 22.3778 104.123 22.423 104.304 22.4682C104.484 22.5284 104.65 22.5886 104.83 22.6488C104.665 22.5886 104.83 22.6488 104.906 22.6789C104.981 22.709 105.056 22.7542 105.116 22.7994C105.447 22.9951 105.943 22.8897 106.124 22.5434C106.32 22.1821 106.214 21.7456 105.868 21.5348C105.116 21.0681 104.214 20.8875 103.341 20.767C102.484 20.6466 101.521 20.6315 100.709 20.9627C100.348 21.0982 100.062 21.4595 100.182 21.866C100.288 22.2122 100.694 22.5434 101.085 22.3929V22.3778Z" fill="#2E2F2E"/>
<path d="M94.4958 85.6363H92.42C90.3441 85.6062 88.2833 85.5761 86.2074 85.561V86.374C86.1774 88.6321 86.1623 90.8903 86.1473 93.1484L86.1172 96.641H87.9072C91.5926 96.6862 95.278 96.7163 98.9785 96.7464L105.191 96.8066V95.9937C105.221 93.7355 105.236 91.4774 105.251 89.2192L105.281 85.7266H103.491C100.859 85.6815 98.2264 85.6664 95.609 85.6514C95.4736 85.8019 95.278 85.9073 95.0524 85.9073C94.8268 85.9073 94.6312 85.8019 94.4958 85.6363Z" fill="white"/>
<path d="M92.135 22.3179C92.2403 22.2427 92.3606 22.1674 92.4809 22.1072C92.4809 22.1072 92.5411 22.0771 92.5562 22.0771C92.6163 22.047 92.6915 22.0319 92.7517 22.0169C92.8871 21.9717 93.0225 21.9566 93.1729 21.9265C93.203 21.9265 93.2331 21.9265 93.2632 21.9265C93.3534 21.9265 93.4286 21.9265 93.5189 21.9265C93.6693 21.9265 93.8197 21.9265 93.9701 21.9265C94.0454 21.9265 94.1206 21.9416 94.1807 21.9416C94.2108 21.9416 94.2259 21.9416 94.256 21.9416C94.5267 21.9867 94.8125 22.062 95.0682 22.1824C95.4293 22.333 95.8956 22.0319 95.9708 21.6706C96.0761 21.2491 95.8505 20.9179 95.4593 20.7673C94.8426 20.5114 94.1356 20.406 93.4737 20.4361C92.7667 20.4512 91.9845 20.6168 91.4129 21.0383C91.2475 21.1588 91.1271 21.2792 91.067 21.4749C91.0218 21.6555 91.0369 21.8814 91.1422 22.047C91.3377 22.348 91.8191 22.5588 92.15 22.3179H92.135Z" fill="#2E2F2E"/>
<path d="M94.873 81.2402H95.6252C95.6252 80.2918 95.6402 79.3283 95.6553 78.3799H94.9031C94.9031 79.3283 94.8881 80.2918 94.873 81.2402Z" fill="white"/>
<path d="M113.555 5.89356C115.165 7.44416 116.128 9.50659 116.729 11.6293C117.316 13.6917 117.707 15.7993 118.023 17.9069C118.218 19.2618 118.429 20.6618 118.459 22.0468C118.625 22.0769 118.805 22.1221 118.986 22.1673C119.196 22.0318 119.422 21.9113 119.662 21.821C120.069 21.6554 120.49 21.5801 120.926 21.5801C120.926 19.7887 120.866 17.9972 120.64 16.2208C120.354 13.7971 119.798 11.3583 118.685 9.16035C118.233 8.2872 117.677 7.47426 117.06 6.7366C115.736 5.1559 114.067 3.7408 112.141 2.92787C110.667 2.31064 109.088 2.11494 107.568 2.40097C108.11 2.58162 108.697 2.74722 109.193 3.03325C110.712 3.89134 112.292 4.64406 113.555 5.86346V5.89356Z" fill="#C4D831"/>
<path d="M117.151 24.1095C117.271 23.8987 117.407 23.703 117.542 23.5073C117.256 23.5675 116.971 23.688 116.685 23.8686C116.083 24.26 115.602 24.9676 115.301 25.6601C114.564 27.3913 114.609 29.5893 115.527 31.2302C115.873 31.8474 116.339 32.4044 116.971 32.6904C116.85 32.4646 116.73 32.2238 116.64 31.9829C115.647 29.514 115.797 26.4279 117.136 24.1095H117.151Z" fill="white"/>
<path d="M122.641 23.8083C122.325 23.5072 121.98 23.2814 121.588 23.161C120.896 22.9502 120.235 23.0857 119.588 23.5072C118.926 23.9589 118.369 24.8019 118.053 25.5998C117.256 27.602 117.271 30.101 118.279 32.028C118.685 32.7807 119.272 33.4882 119.979 33.8194C120.626 34.1054 121.333 34.0603 121.949 33.7291C123.664 32.7957 124.296 30.4322 124.326 28.5655C124.326 27.331 124.101 26.0815 123.514 24.9976C123.273 24.546 122.987 24.1546 122.626 23.8083H122.641Z" fill="#C4D831"/>
<path d="M80.6719 115.007C80.717 115.007 80.7772 114.962 80.6719 115.007V115.007Z" fill="white"/>
<path d="M103.056 100.976C100.83 100.931 98.5885 101.232 96.3773 101.488C94.3465 101.729 92.1955 102.06 90.1647 101.699C88.7056 101.428 87.2315 101.217 85.7723 100.976C84.9901 100.841 84.1778 100.705 83.4107 100.495C82.6586 100.284 81.9365 99.9828 81.1844 99.7569C80.688 99.6064 80.2217 99.5311 79.7403 99.6817C79.4395 99.787 79.1537 99.9677 78.8679 100.118C78.552 100.269 78.2361 100.419 77.9051 100.57C77.2433 100.871 76.5664 101.172 75.9195 101.518C75.2878 101.865 74.7462 102.301 74.2197 102.783C73.1668 103.731 72.1138 104.695 71.0759 105.658C70.9555 105.764 70.8352 105.869 70.7148 105.989C70.8502 106.561 70.9856 107.134 71.121 107.706C71.7678 107.164 72.3695 106.516 72.9712 105.959C74.0091 104.996 75.1072 103.927 76.4159 103.325C77.1831 102.963 78.0104 102.753 78.8227 102.542C79.1687 102.422 79.4996 102.316 79.8456 102.211C80.0261 102.151 80.2066 102.105 80.3871 102.045C80.4774 102.015 80.7181 101.91 80.5225 102.015C80.5526 102.015 80.5827 101.985 80.6278 101.985C81.41 101.669 81.9215 102.994 81.1844 103.34C81.1242 103.37 81.0641 103.385 81.0039 103.415C80.4323 103.641 79.8306 103.807 79.2439 103.972C78.5068 104.213 77.7848 104.484 77.1229 104.8C76.8371 104.936 76.5664 105.086 76.2956 105.252C76.2806 105.252 76.2655 105.267 76.2505 105.282C76.2505 105.282 76.2505 105.282 76.2204 105.297C76.1903 105.327 76.1452 105.357 76.1151 105.372C76.0248 105.447 75.9496 105.508 75.8594 105.583C75.393 105.974 74.9418 106.381 74.4905 106.787C73.4977 107.675 72.5199 108.564 71.5422 109.467C71.7227 110.235 71.9032 111.018 72.0837 111.785C72.0987 111.77 72.1288 111.755 72.1439 111.725C72.9261 111.093 73.7233 110.445 74.5055 109.813C75.393 109.091 76.2956 108.368 77.1831 107.66C77.3937 107.495 77.5892 107.329 77.7998 107.164C78.0104 106.998 78.2511 106.923 78.5068 106.817C78.7174 106.727 78.928 106.652 79.1386 106.561C80.6429 105.854 82.2073 105.252 83.7867 104.71C84.1628 104.574 84.584 104.875 84.6893 105.237C84.7946 105.658 84.5389 105.989 84.1628 106.14C82.6736 106.727 81.1994 107.329 79.7102 107.916C79.5448 107.992 79.3793 108.082 79.2138 108.172C78.8829 108.338 78.567 108.534 78.2812 108.759C78.2511 108.774 78.2361 108.79 78.2361 108.79C78.1909 108.82 78.1458 108.865 78.1007 108.895C78.0255 108.955 77.9503 109.015 77.8751 109.076C77.6795 109.226 77.4839 109.377 77.3034 109.527C76.431 110.22 75.5585 110.942 74.7011 111.665C74.3551 111.966 74.0091 112.252 73.6782 112.553C73.4676 112.749 73.2119 112.96 73.1367 113.2C73.1066 113.291 73.1367 113.441 73.1969 113.562C73.2269 113.622 73.2721 113.682 73.3774 113.772C73.3322 113.742 73.5127 113.863 73.5579 113.893C73.6933 113.953 73.9339 114.013 74.0844 113.998C74.325 113.968 74.5356 113.848 74.7312 113.727C76.2956 112.704 77.7397 111.514 79.2138 110.355C79.5147 110.114 79.8306 109.979 80.1765 109.843C80.8384 109.587 81.5003 109.347 82.1622 109.106C83.516 108.624 84.8698 108.187 86.1785 107.57C86.5245 107.405 86.8855 107.465 87.1262 107.766C87.3368 108.037 87.3368 108.503 87.066 108.729C86.9306 108.835 86.8103 108.94 86.6749 109.045C85.9528 109.618 85.2158 110.175 84.4336 110.656C83.6814 111.108 82.9444 111.56 82.2223 112.056C81.5003 112.553 80.7933 113.065 80.1164 113.607C79.981 113.712 79.8306 113.833 79.7704 113.923C79.6952 114.043 79.6802 114.119 79.6802 114.149C79.6802 114.375 79.7253 114.555 79.8757 114.721C80.0712 114.932 80.2668 115.007 80.5526 115.037C80.5677 115.037 80.6278 115.037 80.673 115.037C80.688 115.037 80.7632 114.992 80.7782 114.992C80.8384 114.962 80.8986 114.932 80.9588 114.887C81.5605 114.555 82.1321 114.149 82.7037 113.742C83.9372 112.884 85.2158 112.177 86.6448 111.725C87.3819 111.499 88.134 111.319 88.8711 111.108C89.3374 110.972 89.8037 110.837 90.255 110.686C90.5107 110.596 90.7664 110.506 91.0071 110.415C91.2779 110.31 91.5486 110.159 91.8344 110.144C92.2857 110.114 92.737 110.144 93.1883 110.129C95.5349 110.099 97.8665 110.069 100.213 110.039C101.552 110.024 102.891 110.009 104.229 109.979C104.696 108.534 104.891 107.013 104.666 105.493C104.44 103.912 103.853 102.422 103.086 101.006L103.056 100.976Z" fill="white"/>
<path d="M124.491 74.9929C124.476 74.195 124.446 73.382 124.431 72.5842C124.416 71.6357 122.942 71.6207 122.957 72.5842C123.002 74.8423 123.062 77.1004 123.123 79.3586C123.228 83.5286 123.363 87.6836 123.529 91.8537C123.604 93.5849 123.679 95.3312 123.815 97.0624C123.845 97.4539 124.115 97.8001 124.537 97.8001C124.913 97.8001 125.304 97.4689 125.274 97.0775C124.988 93.5397 124.898 89.9719 124.792 86.4191C124.672 82.6103 124.567 78.8166 124.476 75.0079L124.491 74.9929Z" fill="#2E2F2E"/>
<path d="M104.966 44.8995C104.966 44.8995 104.966 44.8694 104.95 44.8694C104.95 44.8694 104.935 44.8393 104.92 44.8242C104.905 44.8092 104.89 44.7941 104.89 44.7941C104.86 44.7941 104.845 44.764 104.83 44.7489C104.83 44.7489 104.815 44.7489 104.8 44.7489C104.8 44.7489 104.755 44.7489 104.725 44.7489C104.048 44.7489 103.371 44.7489 102.694 44.7339H102.288C102.288 44.7339 102.228 44.7339 102.198 44.7339C102.198 44.7339 102.198 44.7339 102.183 44.7339C102.168 44.7339 102.138 44.7339 102.122 44.7339C102.092 44.7489 102.062 44.764 102.047 44.7791C102.032 44.7941 102.002 44.8242 102.002 44.8242C102.002 44.8543 101.972 44.8694 101.957 44.8995C101.957 44.8995 101.957 44.8995 101.957 44.9145C101.957 44.9145 101.957 44.9296 101.957 44.9446C101.957 44.9597 101.957 44.9748 101.957 44.9748C101.957 44.9748 101.957 44.9748 101.957 44.9898C101.957 45.0199 101.957 45.035 101.957 45.0651C101.957 45.1554 101.957 45.2608 101.957 45.3662C101.957 45.3963 101.957 45.4264 101.957 45.4715C101.957 45.4866 101.957 45.5017 101.957 45.5167C101.957 45.5468 101.972 45.5769 101.972 45.5769C101.987 45.607 102.017 45.6371 102.017 45.6522C102.032 45.6673 102.047 45.6974 102.047 45.6974C102.047 45.6974 102.092 45.7275 102.122 45.7425C102.122 45.7425 102.318 45.7425 102.153 45.7425C102.168 45.7425 102.198 45.7425 102.213 45.7425C102.453 45.7425 102.694 45.7425 102.935 45.7425H104.77C104.77 45.7425 104.785 45.7576 104.8 45.7576C104.8 45.7576 104.83 45.7576 104.845 45.7576C104.86 45.7576 104.89 45.7425 104.905 45.7425C104.935 45.7425 104.95 45.7124 104.981 45.6974C104.875 45.7726 105.056 45.5769 104.981 45.6974C104.996 45.6673 105.026 45.6371 105.041 45.607C105.041 45.5769 105.041 45.5619 105.041 45.5619C105.041 45.5619 105.041 45.5468 105.041 45.5318C105.041 45.5017 105.041 45.4715 105.041 45.4414C105.041 45.3361 105.041 45.2307 105.041 45.1253C105.041 45.0952 105.041 45.05 105.041 45.0199C105.041 45.0199 105.041 45.0049 105.041 44.9898C105.026 44.9446 105.011 44.9145 105.026 44.9145L104.966 44.8995Z" fill="white"/>
<path d="M104.951 45.5752C104.951 45.5752 104.966 45.5171 104.951 45.5316C104.951 45.5461 104.951 45.5607 104.951 45.5752Z" fill="white"/>
<path d="M104.89 45.6657C104.788 45.7383 104.963 45.5496 104.89 45.6657V45.6657Z" fill="#2E2F2E"/>
<path d="M19.1942 113.788C21.5408 113.999 23.8724 114.209 26.219 114.42C29.0019 114.676 31.7847 114.917 34.5676 115.173C37.546 115.444 40.5093 115.715 43.4877 115.971C46.4361 116.242 49.3693 116.498 52.3176 116.769C55.0103 117.009 57.6878 117.25 60.3804 117.491C62.5916 117.687 64.8029 117.883 67.0141 118.093C68.5033 118.229 69.9925 118.364 71.4817 118.5C71.7074 118.515 71.933 118.545 72.1586 118.56C72.0985 118.304 72.0534 118.033 71.9932 117.777C71.7074 116.573 71.4216 115.354 71.1358 114.149C70.2783 110.506 69.4209 106.863 68.5635 103.22C67.5707 98.9895 66.5629 94.7442 65.5701 90.5139C64.7578 87.0364 63.9304 83.5438 63.1181 80.0663C62.8173 78.7716 62.5164 77.4769 62.2005 76.1823C61.5537 76.1371 60.9069 76.0618 60.2601 76.0016C58.5603 75.8511 56.8605 75.7005 55.1607 75.565C52.784 75.3543 50.4223 75.1586 48.0456 74.9478C45.2477 74.7069 42.4498 74.4661 39.6519 74.2252C36.6585 73.9693 33.65 73.6983 30.6565 73.4424C27.6932 73.1864 24.7148 72.9305 21.7514 72.6746C19.0287 72.4337 16.306 72.2079 13.5833 71.967C11.3571 71.7713 9.13077 71.5756 6.91953 71.395C5.41529 71.2595 3.896 71.1391 2.39175 71.0036C2.16612 70.9885 1.94048 70.9584 1.71484 70.9434C1.77501 71.1993 1.83518 71.4703 1.89535 71.7262C2.1962 72.9305 2.49705 74.1349 2.7979 75.3392C3.70045 78.9673 4.60299 82.5954 5.52058 86.2235C6.57356 90.4387 7.62653 94.6689 8.6795 98.8841C9.55196 102.362 10.4094 105.824 11.2818 109.302C11.5977 110.596 11.9287 111.876 12.2446 113.171C12.8914 113.216 13.5232 113.291 14.155 113.351C15.8397 113.502 17.5245 113.652 19.2092 113.803L19.1942 113.788ZM31.1529 93.3441C32.0856 93.1785 33.0182 93.57 33.5146 94.3979C33.9959 95.2259 33.8606 96.2496 33.2589 96.9722C32.7023 97.6346 31.6794 97.9056 30.8671 97.5895C29.9796 97.2432 29.408 96.4453 29.393 95.4819C29.408 94.4732 30.1451 93.5097 31.168 93.3291L31.1529 93.3441Z" fill="#E7E7E6"/>
<path d="M32.1758 95.0451C32.1758 95.0451 32.1306 95.015 32.1607 95.0451C32.1607 95.0602 32.1908 95.0753 32.2059 95.0903C32.2059 95.0903 32.1908 95.0602 32.1758 95.0451Z" fill="white"/>
<path d="M31.9207 94.8345H31.8906C31.9057 94.8345 31.9207 94.8646 31.9508 94.8646C31.9659 94.8646 31.9659 94.8646 31.9358 94.8495L31.9207 94.8345Z" fill="white"/>
<path d="M31.8457 94.8044C31.8457 94.8044 31.8457 94.8044 31.8764 94.8044C31.8764 94.8044 31.861 94.8044 31.8457 94.7891V94.8044Z" fill="white"/>
<path d="M32.2812 95.2256C32.2812 95.2256 32.2813 95.2546 32.2958 95.2691C32.2958 95.2691 32.2958 95.2401 32.2812 95.2256Z" fill="white"/>
<path d="M32.3105 95.6904C32.3105 95.6904 32.3105 95.6614 32.3251 95.6323C32.3251 95.6323 32.3251 95.6323 32.3251 95.6468C32.3251 95.6468 32.3251 95.6759 32.3251 95.6904H32.3105Z" fill="white"/>
<path d="M32.2063 95.0901C32.2063 95.0901 32.2063 95.0901 32.1914 95.0752C32.1914 95.0752 32.1914 95.0752 32.2063 95.0901Z" fill="white"/>
<path d="M31.1387 94.925C31.1387 94.925 31.1694 94.925 31.1694 94.9097C31.1694 94.9097 31.154 94.9097 31.1387 94.925Z" fill="white"/>
<path d="M32.2802 95.2242C32.2802 95.2242 32.2802 95.1952 32.2656 95.1807C32.2656 95.1807 32.2656 95.1952 32.2656 95.2097C32.2656 95.2097 32.2656 95.2097 32.2656 95.2242H32.2802Z" fill="white"/>
<path d="M31.4689 94.7894C31.4689 94.7894 31.3636 94.8195 31.3034 94.8345C31.2884 94.8345 31.2583 94.8496 31.2432 94.8647C31.2132 94.8647 31.1831 94.8948 31.168 94.9098C31.1981 94.9098 31.1981 94.9098 31.1229 94.9399C31.1079 94.955 31.0928 94.97 31.0627 95.0001C31.0477 95.0152 31.0327 95.0303 31.0176 95.0453C30.9875 95.1055 30.9574 95.1507 30.9123 95.2109C30.9123 95.226 30.8973 95.2561 30.8973 95.2711C30.8822 95.3163 30.8822 95.3765 30.8672 95.4217C30.8672 95.4518 30.8672 95.4819 30.8672 95.512C30.8672 95.512 30.8672 95.5421 30.8672 95.5572C30.8672 95.5572 30.8672 95.5873 30.8672 95.6324C30.8672 95.6926 30.8973 95.7529 30.9123 95.8131C30.9274 95.8432 30.9424 95.8733 30.9574 95.9034C30.9574 95.9335 30.9875 95.9486 31.0026 95.9787C31.0477 96.0238 31.0928 96.069 31.138 96.1142C31.153 96.1142 31.1831 96.1443 31.1981 96.1593C31.2282 96.1744 31.2583 96.1894 31.2884 96.2045C31.3485 96.2195 31.4238 96.2497 31.4839 96.2647C31.514 96.2647 31.5291 96.2647 31.5591 96.2647C31.5742 96.2647 31.6344 96.2647 31.6795 96.2647C31.7096 96.2647 31.7697 96.2496 31.7848 96.2496C31.8149 96.2496 31.8299 96.2496 31.86 96.2195C31.9051 96.1894 31.9803 96.1593 32.0255 96.1292C32.0255 96.1292 32.0555 96.0991 32.0706 96.0991C32.0856 96.0841 32.1157 96.0539 32.1308 96.0389C32.1308 96.0389 32.1458 96.0088 32.1909 95.9787C32.1909 95.9636 32.221 95.9486 32.221 95.9185C32.236 95.8883 32.2511 95.8582 32.2661 95.8281C32.2661 95.783 32.2962 95.7378 32.3113 95.6926C32.3113 95.6926 32.3113 95.6625 32.3263 95.6023C32.3263 95.5421 32.3263 95.4819 32.3263 95.4217C32.3263 95.4066 32.3263 95.3765 32.3263 95.3614C32.3263 95.3313 32.3113 95.3012 32.2962 95.2711C32.2962 95.2862 32.2962 95.2711 32.2661 95.1958C32.2661 95.1808 32.2361 95.1507 32.2361 95.1356C32.2361 95.1206 32.206 95.1055 32.206 95.0754C32.1909 95.0604 32.1759 95.0453 32.1608 95.0303C32.1308 95.0001 32.1007 94.955 32.0706 94.9249C32.0706 94.9249 32.0405 94.9098 32.0255 94.8948C31.9954 94.8797 31.9653 94.8647 31.9502 94.8496C31.9502 94.8496 31.9202 94.8496 31.8901 94.8195C31.875 94.8195 31.8449 94.8044 31.8149 94.7894C31.7848 94.7894 31.7547 94.7743 31.7246 94.7593C31.6644 94.7593 31.6193 94.7593 31.5591 94.7593C31.5742 94.7593 31.5591 94.7593 31.4839 94.7593L31.4689 94.7894Z" fill="white"/>
<path d="M31.0781 94.9694C31.0781 94.9694 31.1076 94.9694 31.1076 94.9546C31.1076 94.9546 31.1076 94.9546 31.1223 94.9546C31.1076 94.9546 31.0928 94.9841 31.0781 94.9841V94.9694Z" fill="white"/>
<path d="M32.1762 95.9938C32.1762 95.9938 32.1762 95.9938 32.1762 95.9785C32.1609 95.9938 32.1457 96.0091 32.1152 96.0398C32.1152 96.0398 32.1305 96.0398 32.1609 96.0091L32.1762 95.9938Z" fill="white"/>
<path d="M32.2063 95.948C32.2063 95.948 32.2063 95.948 32.1914 95.948C32.1914 95.948 32.1914 95.948 32.2063 95.9331V95.948Z" fill="white"/>
<path d="M30.8525 97.6044C31.6648 97.9206 32.6877 97.6496 33.2442 96.9872C33.8459 96.2646 33.9813 95.2409 33.5 94.4129C33.0186 93.5849 32.0709 93.1935 31.1383 93.3591C30.1154 93.5398 29.3934 94.5032 29.3633 95.5119C29.3633 96.4603 29.9499 97.2732 30.8374 97.6195L30.8525 97.6044ZM31.7099 94.7742C31.7099 94.7742 31.7701 94.7742 31.8002 94.8043C31.8302 94.8043 31.8453 94.8043 31.8754 94.8344C31.8754 94.8344 31.8754 94.8344 31.8453 94.8344C31.8453 94.8344 31.8603 94.8344 31.8754 94.8495H31.9055C31.9506 94.8495 31.9506 94.8796 31.9205 94.8645C31.9506 94.8645 31.9807 94.8946 31.9957 94.9097C31.9957 94.9097 32.0258 94.9248 32.0408 94.9398C32.0709 94.9699 32.101 95 32.1311 95.0452C32.1161 95.0151 32.1311 95.0151 32.1461 95.0452C32.1461 95.0452 32.1612 95.0753 32.1762 95.0903C32.1762 95.0903 32.1762 95.0904 32.1913 95.1054C32.1913 95.1054 32.1913 95.1054 32.1762 95.0903C32.1762 95.1054 32.2063 95.1205 32.2063 95.1506C32.2063 95.1656 32.2364 95.1957 32.2364 95.2108C32.2364 95.2108 32.2364 95.1957 32.2364 95.1807C32.2364 95.1957 32.2364 95.2108 32.2514 95.2258C32.2514 95.2409 32.2514 95.271 32.2665 95.271C32.2665 95.3011 32.2815 95.3312 32.2966 95.3613C32.2966 95.3764 32.2966 95.4065 32.2966 95.4215C32.2966 95.4818 32.2966 95.542 32.2966 95.6022C32.2966 95.6022 32.2966 95.5871 32.2966 95.5721C32.2966 95.5871 32.2966 95.6022 32.2966 95.6323C32.2966 95.6624 32.2815 95.7076 32.2815 95.6925C32.2815 95.7377 32.2514 95.7828 32.2364 95.828C32.2213 95.8581 32.2063 95.8882 32.1913 95.9183C32.1913 95.9334 32.1612 95.9484 32.1612 95.9786C32.1612 95.9786 32.1612 95.9786 32.1762 95.9786C32.1762 95.9786 32.1762 95.9786 32.1612 95.9936C32.1612 95.9936 32.1612 95.9936 32.1612 96.0087C32.1311 96.0538 32.116 96.0538 32.116 96.0388C32.101 96.0538 32.0709 96.0839 32.0559 96.099C32.0559 96.099 32.0258 96.114 32.0108 96.1291C31.9656 96.1592 31.8904 96.1893 31.8453 96.2194C31.8152 96.2194 31.8002 96.2345 31.7701 96.2495C31.755 96.2495 31.6949 96.2495 31.6648 96.2646C31.6196 96.2646 31.5595 96.2646 31.5444 96.2646C31.5143 96.2646 31.4993 96.2646 31.4692 96.2646C31.4091 96.2495 31.3338 96.2345 31.2737 96.2044C31.2436 96.1893 31.2135 96.1743 31.1834 96.1592C31.1684 96.1592 31.1383 96.1291 31.1232 96.114C31.0781 96.0689 31.033 96.0237 30.9879 95.9786C30.9728 95.9484 30.9578 95.9334 30.9427 95.9033C30.9277 95.8732 30.9127 95.8431 30.8976 95.813C30.8826 95.7527 30.8675 95.6925 30.8525 95.6323C30.8525 95.6323 30.8525 95.6624 30.8525 95.6775C30.8525 95.6624 30.8525 95.6474 30.8525 95.6173C30.8525 95.6173 30.8525 95.6172 30.8525 95.6022C30.8525 95.5721 30.8525 95.542 30.8525 95.557C30.8525 95.557 30.8525 95.5269 30.8525 95.5119C30.8525 95.4818 30.8525 95.4517 30.8525 95.4215C30.8525 95.3764 30.8675 95.3162 30.8826 95.271C30.8826 95.2559 30.8826 95.2258 30.8976 95.2108C30.9277 95.1506 30.9578 95.1054 31.0029 95.0452C31.018 95.0301 31.033 95.0151 31.048 95C31.0631 94.985 31.0781 94.9699 31.1082 94.9398C31.1082 94.9398 31.0932 94.9398 31.0781 94.9549C31.0932 94.9549 31.1082 94.9398 31.1232 94.9247L31.1533 94.9097C31.1834 94.8946 31.1985 94.8796 31.2285 94.8645C31.2436 94.8645 31.2737 94.8495 31.2887 94.8344C31.3489 94.8194 31.394 94.8043 31.4542 94.7893C31.4542 94.7893 31.4391 94.7893 31.4241 94.7893C31.4391 94.7893 31.4692 94.7893 31.4843 94.7893C31.5144 94.7893 31.5294 94.7893 31.5444 94.7893C31.6046 94.7893 31.6497 94.7893 31.7099 94.7893V94.7742Z" fill="#2E2F2E"/>
<path d="M31.875 94.8345C31.9051 94.8495 31.9202 94.8646 31.9352 94.8646C31.9202 94.8646 31.8901 94.8495 31.875 94.8345Z" fill="#2E2F2E"/>
<path d="M32.2963 95.2712C32.2963 95.2712 32.2963 95.241 32.2812 95.226C32.2812 95.226 32.2812 95.226 32.2812 95.2109C32.2963 95.2862 32.3113 95.3013 32.3113 95.2862L32.2963 95.2712Z" fill="#2E2F2E"/>
<path d="M32.1901 95.0738C32.1901 95.0738 32.161 95.0448 32.1465 95.0303C32.1465 95.0303 32.1755 95.0593 32.1901 95.0738Z" fill="#2E2F2E"/>
<path d="M32.1309 96.0246C32.1309 96.0246 32.1613 95.9787 32.1918 95.9634C32.1461 95.994 32.1309 96.0093 32.1309 96.0246Z" fill="#2E2F2E"/>
<path d="M31.1682 94.9098C31.1682 94.9098 31.1381 94.9098 31.1381 94.9249C31.1381 94.9249 31.1381 94.9249 31.123 94.9249C31.1983 94.8797 31.1983 94.8797 31.1682 94.8948V94.9098Z" fill="#2E2F2E"/>
<path d="M32.3119 95.6925C32.3119 95.6925 32.3119 95.6624 32.3119 95.6473C32.3119 95.6473 32.3119 95.6473 32.3119 95.6322V95.6172C32.3119 95.6774 32.2969 95.6925 32.2969 95.7075L32.3119 95.6925Z" fill="#2E2F2E"/>
</g>
<defs>
<clipPath id="clip0_159_142828">
<rect width="163" height="122" fill="white" transform="translate(0 0.820312)"/>
</clipPath>
</defs>
</svg>
