<svg width="120" height="120" viewBox="0 0 120 120" fill="none" xmlns="http://www.w3.org/2000/svg">
<g clip-path="url(#clip0_159_142610)">
<path d="M92.1562 99.6937C92.2125 97.425 93.375 95.3062 95.4375 94.2562C98.3813 92.775 101.869 93.9375 103.5 96.75C104.025 97.725 104.494 98.7375 104.944 99.75C114.3 89.175 120 75.2625 120 60.0187C120 26.8687 93.1312 0 60 0C26.8687 0 0 26.8687 0 60C0 75.225 5.68125 89.1187 15.0188 99.6937C15.45 98.7 15.9 97.7062 16.425 96.7312C17.25 95.325 18.525 94.2375 20.1187 93.7875C23.0625 92.9625 26.2125 94.5562 27.3563 97.3875C27.7313 98.3062 27.7875 99.2437 27.7875 100.219V110.606C28.6875 111.169 29.5875 111.731 30.525 112.256C30.1688 110.85 29.8688 109.444 29.7188 107.981C29.3625 104.569 29.6437 100.987 31.1812 97.8562C33.0375 94.0875 36.7312 91.8187 40.725 90.9187C44.625 90.0375 48.7313 90.3 52.6875 90.3H60.975C64.7625 90.3 68.5687 90.3 72.3562 90.3C76.8375 90.3 81.6188 90.9562 85.2375 93.825C90.825 98.25 90.675 106.106 89.025 112.387C89.025 112.444 88.9875 112.5 88.9688 112.556C90.0563 111.956 91.125 111.319 92.175 110.644V104.55C92.175 102.919 92.1375 101.306 92.175 99.675L92.1562 99.6937ZM89.7937 72.0375C89.6437 72.0375 89.5125 72.0187 89.3812 71.9812C87.525 76.575 84.3938 80.6437 80.4375 83.6625C75.5813 87.3562 69.6562 89.1937 63.5812 89.1937C59.0812 89.1937 54.4125 89.5125 49.9875 88.575C41.025 86.6437 33.825 80.1562 30.4875 71.9812C30.3563 72.0375 30.2063 72.0562 30.0188 72.0562C27.75 72.0562 25.1437 72.4125 23.1187 71.2125C21.6562 70.3687 20.5688 68.8687 20.2313 67.2187C20.0812 66.4687 20.1 65.7187 20.1 64.95V58.7625C20.1 55.95 21.525 53.4562 24.2625 52.5C26.025 51.8812 28.2 52.1812 30.0375 52.1812C30.1313 52.1812 30.225 52.1812 30.3188 52.2C34.3125 41.9062 44.3812 34.6125 55.8 34.5562H57.5625C57.9 34.5562 58.2562 34.5562 58.5938 34.5562V27.9C58.1437 27.825 57.7125 27.7125 57.2812 27.5437C54.225 26.4 52.2375 23.55 52.1813 20.325C52.1813 20.1 52.1813 19.875 52.2375 19.65C52.5563 16.2 55.125 13.2937 58.425 12.7125C58.8937 12.6187 59.3813 12.5812 59.8688 12.5812C62.6625 12.5812 65.1562 13.9875 66.5625 16.3312C68.2312 19.1062 67.9312 22.7062 65.8125 25.2562C64.6875 26.625 63.0375 27.5437 61.2375 27.8625V34.5375C64.9125 34.5375 68.5688 34.6687 72.1313 35.7937C78.5063 37.8 84.0188 42.15 87.4688 47.8687C88.2938 49.2562 89.0062 50.7 89.5687 52.2C89.6438 52.2 89.7188 52.1812 89.8125 52.1812C92.0813 52.1812 94.6875 51.825 96.7125 53.025C98.175 53.8687 99.2625 55.3687 99.6 57.0187C99.75 57.7687 99.7312 58.5187 99.7312 59.2875V65.475C99.7312 68.2875 98.3063 70.7812 95.5688 71.7375C93.8063 72.3562 91.6312 72.0562 89.7937 72.0562V72.0375Z" fill="white"/>
<path d="M95.1562 69.0188C96.9562 68.1188 97.0687 66.3751 97.0687 64.6126V59.0251C97.0687 58.3876 97.0875 57.7501 96.8812 57.1313C96.4687 55.9501 95.4187 55.0501 94.1812 54.8438C92.9625 54.6376 91.65 54.7501 90.3937 54.7876C91.4625 58.7626 91.6125 62.9813 90.8437 67.0501C90.6937 67.8376 90.5062 68.6063 90.2812 69.3751H92.3625C93.3187 69.3751 94.275 69.4501 95.175 69.0001L95.1562 69.0188Z" fill="white"/>
<path d="M28.6133 59.1002C28.7633 57.6377 29.0446 56.1939 29.4383 54.8064H27.4696C26.5133 54.8064 25.5571 54.7314 24.6571 55.1814C22.8571 56.0814 22.7446 57.8252 22.7446 59.5877V65.1752C22.7446 65.8127 22.7258 66.4502 22.9321 67.0689C23.3446 68.2502 24.3946 69.1502 25.6321 69.3564C26.8883 69.5814 28.2946 69.4502 29.5883 69.4127C28.6133 66.1314 28.2383 62.6439 28.6133 59.1189V59.1002Z" fill="white"/>
<path d="M65.8684 37.2565C62.5309 37.0127 59.1184 37.2002 55.7809 37.2002C54.2247 37.2002 52.6684 37.3315 51.1309 37.6315C38.7559 40.069 30.0372 51.769 31.2184 64.3127C32.3997 76.8002 43.3684 86.4565 55.7997 86.5315C59.3247 86.5315 62.9434 86.7565 66.4684 86.419C72.5434 85.8377 78.2434 82.8565 82.3309 78.3377C90.8059 68.9815 90.6559 54.2815 82.0309 45.0565C77.8309 40.5752 71.9996 37.6877 65.8497 37.2565H65.8684ZM79.4997 67.444C77.2497 71.8315 72.6371 74.5127 67.7621 74.5877H59.5684C56.8684 74.5877 54.1309 74.7002 51.4309 74.5877C46.6872 74.344 42.2434 71.5127 40.1809 67.2002C38.1184 62.9252 38.4372 57.7127 41.1934 53.8127C43.7434 50.2315 47.7934 48.169 52.1809 48.1502C54.7872 48.1502 57.3934 48.1502 60.0184 48.1502C62.6434 48.1502 65.1371 48.1315 67.6871 48.1502C72.1497 48.1877 76.2747 50.344 78.7872 54.0565C81.4497 58.0127 81.6747 63.244 79.5184 67.4627L79.4997 67.444Z" fill="white"/>
<path d="M85.6318 114.262C86.3255 112.35 86.8505 110.362 87.1505 108.375C87.563 105.637 87.5443 102.3 86.4005 99.6186C84.9568 96.2248 81.7318 94.2936 78.1693 93.5061C74.5318 92.6998 70.6505 92.9811 66.938 92.9811H47.6255C43.763 92.9811 39.638 93.2811 36.413 95.6248C31.2568 99.3748 31.7255 106.669 33.113 112.069C33.2818 112.687 33.4693 113.306 33.6568 113.925C41.6068 117.825 50.5505 120.019 60.0005 120.019C69.4505 120.019 77.8693 117.956 85.6318 114.281V114.262ZM67.0505 104.212C67.913 104.212 68.6068 104.906 68.6068 105.769C68.6068 106.631 67.913 107.325 67.0505 107.325C66.188 107.325 65.4943 106.631 65.4943 105.769C65.4943 104.906 66.188 104.212 67.0505 104.212ZM52.5755 107.325C51.713 107.325 51.0193 106.631 51.0193 105.769C51.0193 104.906 51.713 104.212 52.5755 104.212C53.438 104.212 54.1318 104.906 54.1318 105.769C54.1318 106.631 53.438 107.325 52.5755 107.325ZM58.2568 105.769C58.2568 104.906 58.9505 104.212 59.813 104.212C60.6755 104.212 61.3693 104.906 61.3693 105.769C61.3693 106.631 60.6755 107.325 59.813 107.325C58.9505 107.325 58.2568 106.631 58.2568 105.769Z" fill="white"/>
<path d="M85.2192 93.8248C81.6005 90.956 76.8192 90.2998 72.338 90.2998C68.5505 90.2998 64.7442 90.2998 60.9567 90.2998H52.6692C48.6942 90.2998 44.6067 90.0373 40.7067 90.9185C36.713 91.8185 33.0005 94.0873 31.163 97.856C29.6255 100.969 29.3442 104.55 29.7005 107.981C29.8505 109.444 30.1505 110.869 30.5067 112.256C31.538 112.837 32.588 113.4 33.6567 113.925C33.4692 113.306 33.2817 112.687 33.113 112.069C31.7255 106.65 31.2567 99.3748 36.413 95.6248C39.638 93.281 43.763 92.981 47.6255 92.981H66.938C70.6505 92.981 74.5317 92.6998 78.1692 93.506C81.7317 94.2935 84.9567 96.2248 86.4005 99.6185C87.5442 102.3 87.563 105.637 87.1505 108.375C86.8505 110.381 86.3255 112.369 85.6317 114.262C86.7567 113.737 87.863 113.156 88.9505 112.556C88.9505 112.5 88.988 112.444 89.0067 112.387C90.6755 106.106 90.8067 98.2498 85.2192 93.8248Z" fill="#333333"/>
<path d="M95.5508 71.7188C98.2883 70.7625 99.7133 68.2687 99.7133 65.4562V59.2688C99.7133 58.5 99.7133 57.75 99.582 57C99.2445 55.35 98.1383 53.85 96.6945 53.0063C94.6695 51.8062 92.0633 52.1625 89.7945 52.1625C89.7008 52.1625 89.6258 52.1625 89.5508 52.1812C88.9883 50.6812 88.2758 49.2188 87.4508 47.85C84.0008 42.1313 78.4883 37.7812 72.1133 35.775C68.5508 34.65 64.8945 34.5187 61.2195 34.5187V27.8438C60.7695 27.9187 60.3195 27.9937 59.8695 27.9937C59.4195 27.9937 58.9883 27.9562 58.5758 27.8812V34.5375C58.2383 34.5375 57.882 34.5375 57.5445 34.5375H55.782C44.3633 34.6125 34.2945 41.9062 30.3008 52.1812C30.207 52.1812 30.1133 52.1625 30.0195 52.1625C28.182 52.1625 26.007 51.8625 24.2445 52.4812C21.507 53.4375 20.082 55.9312 20.082 58.7437V64.9313C20.082 65.7 20.082 66.45 20.2133 67.2C20.5508 68.85 21.657 70.35 23.1008 71.1938C25.1258 72.3938 27.732 72.0375 30.0008 72.0375C30.1695 72.0375 30.3195 72 30.4695 71.9625C33.807 80.1375 41.0258 86.6437 49.9695 88.5562C54.3945 89.5125 59.0633 89.175 63.5633 89.175C69.6383 89.175 75.5633 87.3563 80.4195 83.6437C84.3758 80.625 87.507 76.575 89.3633 71.9625C89.4945 72 89.6258 72.0187 89.7758 72.0187C91.6133 72.0187 93.7883 72.3188 95.5508 71.7V71.7188ZM25.6133 69.3563C24.3758 69.1313 23.3258 68.25 22.9133 67.0687C22.707 66.45 22.7258 65.8125 22.7258 65.175V59.5875C22.7258 57.825 22.8383 56.0812 24.6383 55.1812C25.5195 54.7313 26.4758 54.8062 27.4508 54.8062H29.4195C29.0445 56.1937 28.7633 57.6187 28.5945 59.1C28.2195 62.625 28.5945 66.1125 29.5695 69.3937C28.257 69.4312 26.8695 69.5625 25.6133 69.3375V69.3563ZM82.332 78.3375C78.2445 82.8375 72.5445 85.8375 66.4695 86.4188C62.9445 86.7562 59.3258 86.55 55.8008 86.5313C43.3695 86.475 32.4008 76.8 31.2195 64.3125C30.0195 51.75 38.7383 40.0687 51.132 37.6312C52.6695 37.3312 54.2258 37.2 55.782 37.2C59.1383 37.2 62.532 37.0313 65.8695 37.2563C72.0195 37.6875 77.8508 40.575 82.0508 45.0563C90.6758 54.2625 90.8258 68.9625 82.3508 78.3375H82.332ZM90.282 69.3937C90.507 68.625 90.6945 67.8563 90.8445 67.0687C91.632 62.9813 91.4633 58.7812 90.3945 54.8062C91.6508 54.7687 92.982 54.6562 94.182 54.8625C95.4195 55.0875 96.4695 55.9687 96.882 57.15C97.0883 57.7687 97.0695 58.4062 97.0695 59.0437V64.6313C97.0695 66.3938 96.957 68.1375 95.157 69.0375C94.2758 69.4875 93.3195 69.4125 92.3445 69.4125H90.2633L90.282 69.3937Z" fill="#333333"/>
<path d="M67.6678 48.1311C65.1178 48.1123 62.549 48.1311 59.999 48.1311C57.449 48.1311 54.7865 48.1311 52.1615 48.1311C47.774 48.1498 43.724 50.2123 41.174 53.7936C38.399 57.6936 38.099 62.9061 40.1615 67.1811C42.2428 71.4936 46.6678 74.3248 51.4115 74.5686C54.1115 74.6998 56.849 74.5686 59.549 74.5686H67.7428C72.6178 74.5123 77.2303 71.8123 79.4803 67.4248C81.6365 63.2061 81.4115 57.9748 78.749 54.0186C76.2365 50.3061 72.1115 48.1498 67.649 48.1123L67.6678 48.1311ZM77.999 63.9748C76.799 68.6436 72.5428 71.8686 67.7615 71.9248H53.3428C50.5303 71.9248 47.8865 71.5123 45.5803 69.7498C42.2615 67.1998 40.7428 62.7936 41.7928 58.7436C42.8428 54.6373 46.3678 51.4686 50.5865 50.8873C52.5365 50.6248 54.6178 50.7936 56.5865 50.7936H65.5865C68.1928 50.7936 70.6678 50.8311 73.0115 52.1811C77.0803 54.5248 79.1803 59.4186 77.999 63.9748Z" fill="#333333"/>
<path d="M73.0124 52.1811C70.6686 50.8311 68.1936 50.7936 65.5874 50.7936H56.5874C54.6186 50.7936 52.5374 50.6061 50.5874 50.8874C46.3686 51.4686 42.8624 54.6374 41.7936 58.7436C40.7436 62.7936 42.2811 67.1999 45.5811 69.7499C47.8874 71.5311 50.5311 71.9249 53.3436 71.9249H67.7624C72.5624 71.8686 76.7999 68.6436 77.9999 63.9749C79.1811 59.4186 77.0811 54.5249 73.0124 52.1811ZM54.0374 64.3874C52.7811 65.9061 50.5124 66.5061 48.6749 65.8124C46.7249 65.0811 45.4311 63.2811 45.3936 61.1811C45.3936 61.0874 45.3936 60.9936 45.4124 60.8999C45.5624 58.7436 47.1186 56.7561 49.3124 56.3624C51.3561 55.9874 53.4561 56.8499 54.5249 58.6686C55.6124 60.4874 55.3499 62.7562 54.0186 64.3687L54.0374 64.3874ZM73.1999 64.3874C71.9436 65.9061 69.6749 66.5061 67.8374 65.8124C65.8874 65.0811 64.5936 63.2811 64.5561 61.1811C64.5561 61.0874 64.5561 60.9936 64.5749 60.8999C64.7249 58.7436 66.2811 56.7561 68.4749 56.3624C70.5186 55.9874 72.6186 56.8499 73.6874 58.6686C74.7749 60.4874 74.5124 62.7562 73.1811 64.3687L73.1999 64.3874Z" fill="#333333"/>
<path d="M49.3308 56.3811C47.1558 56.7749 45.5996 58.7624 45.4308 60.9187C45.4121 61.0124 45.3933 61.1061 45.4121 61.1999C45.4496 63.2999 46.7433 65.0999 48.6933 65.8311C50.5308 66.5249 52.7996 65.9249 54.0558 64.4061C55.3683 62.7936 55.6496 60.5249 54.5621 58.7061C53.4746 56.8874 51.3933 56.0436 49.3496 56.3999L49.3308 56.3811ZM48.0746 60.8061C48.0746 60.8061 48.0746 60.8999 48.0746 60.9374C48.0746 60.8999 48.0746 60.8624 48.0746 60.8061ZM52.5746 61.4624C52.5746 61.4624 52.5558 61.5936 52.5558 61.6124C52.5183 61.7624 52.4621 61.9124 52.4246 62.0811C52.4246 62.0811 52.4246 62.0811 52.4246 62.0999C52.3683 62.1749 52.3308 62.2686 52.2933 62.3436C52.2558 62.4186 52.1996 62.4749 52.1621 62.5499C52.1621 62.5499 52.1621 62.5686 52.1433 62.5874L52.1808 62.5499C52.0683 62.6999 52.0683 62.7186 52.1433 62.5874C52.0871 62.6811 51.9183 62.8311 51.8621 62.8874C51.8621 62.8874 51.8246 62.9249 51.7871 62.9624C51.9183 62.8312 51.7121 63.0186 51.6933 63.0186C51.5996 63.0749 51.4121 63.2249 51.2808 63.2624C51.4683 63.2062 51.2246 63.2999 51.2058 63.2999C51.2058 63.2999 51.2621 63.2812 51.2808 63.2624C51.1871 63.2999 51.0933 63.3186 50.9996 63.3561C50.9433 63.3561 50.8683 63.3936 50.8121 63.4124C50.8121 63.4124 50.7746 63.4124 50.7371 63.4124C50.6808 63.4124 50.5871 63.4124 50.5683 63.4312C50.4933 63.4312 50.3996 63.4312 50.3246 63.4312C50.2496 63.4312 50.1558 63.4312 50.0808 63.4312C50.0808 63.4312 50.0808 63.4312 50.0621 63.4312C49.8746 63.3937 49.7058 63.3374 49.5183 63.2811C49.4433 63.2249 49.3121 63.1874 49.2371 63.1311C49.1808 63.0936 49.1246 63.0749 49.0871 63.0374C49.0683 63.0374 49.0496 62.9999 49.0121 62.9811C49.0121 62.9811 49.0121 62.9811 48.9746 62.9436C48.8621 62.8311 48.7496 62.7186 48.6371 62.6061C48.6371 62.6061 48.6371 62.6061 48.6183 62.5874C48.5621 62.5124 48.5058 62.4374 48.4683 62.3436C48.4121 62.2686 48.3746 62.1749 48.3371 62.0999C48.3371 62.0999 48.3371 62.0999 48.3371 62.0811C48.2808 61.8936 48.2246 61.7062 48.1871 61.5187C48.1871 61.5187 48.1871 61.5186 48.1871 61.4999C48.1871 61.4061 48.1871 61.2749 48.1871 61.1811C48.1871 61.0874 48.1871 60.9749 48.1871 60.8811C48.1871 60.8061 48.1871 60.7874 48.1871 60.7686C48.2058 60.6561 48.2621 60.5436 48.2808 60.4686C48.2808 60.4124 48.3183 60.3561 48.3371 60.2999C48.3371 60.2999 48.3371 60.2999 48.3558 60.2624C48.4496 60.0936 48.5433 59.9436 48.6371 59.7936C48.6371 59.7936 48.7496 59.6811 48.7871 59.6249C48.8246 59.5874 48.9558 59.4374 49.0121 59.3811C49.0121 59.3811 48.9746 59.4186 48.9371 59.4561C49.0308 59.3436 49.1996 59.2686 49.3308 59.1936C49.3871 59.1561 49.4433 59.1374 49.4996 59.0999C49.4996 59.0999 49.5183 59.0999 49.5371 59.0811C49.5371 59.0811 49.5558 59.0811 49.5746 59.0811C49.7246 59.0436 49.8746 58.9874 50.0433 58.9499C50.0433 58.9499 50.0808 58.9499 50.0996 58.9499C50.1558 58.9499 50.2308 58.9499 50.2871 58.9499C50.4558 58.9499 50.6058 58.9499 50.7558 58.9499C50.8496 58.9686 50.9433 58.9874 51.0371 59.0249C51.1308 59.0436 51.2246 59.0811 51.3183 59.1186C51.3558 59.1186 51.3746 59.1186 51.3933 59.1186C51.5058 59.1749 51.6183 59.2686 51.6933 59.3061C51.7496 59.3436 51.8058 59.3811 51.8621 59.4186C51.9371 59.4936 52.0871 59.6061 52.1808 59.6999C52.1808 59.6999 52.1808 59.7186 52.2183 59.7749C52.2746 59.8499 52.3308 59.9249 52.3683 60.0186C52.4058 60.0749 52.4246 60.1311 52.4621 60.1874C52.4621 60.1874 52.4808 60.2249 52.4996 60.2436C52.5746 60.3561 52.5933 60.5436 52.6308 60.6561C52.6308 60.7124 52.6496 60.7874 52.6683 60.8436C52.6683 60.8436 52.6683 60.8436 52.6683 60.8624C52.6683 60.8624 52.6683 60.8999 52.6683 60.9187C52.6683 61.0687 52.6683 61.2186 52.6683 61.3686C52.6683 61.3874 52.6683 61.4249 52.6683 61.4436L52.5746 61.4624Z" fill="#C4D831"/>
<path d="M52.1444 62.5498C52.1444 62.5498 52.1257 62.5873 52.1069 62.5873C52.0132 62.6998 52.0319 62.6811 52.1444 62.5498Z" fill="#C4D831"/>
<path d="M51.2254 63.2812C51.2254 63.2812 51.1691 63.3187 51.1504 63.3187C51.1504 63.3187 51.4129 63.2249 51.2254 63.2812Z" fill="#C4D831"/>
<path d="M52.575 60.8813C52.575 60.8813 52.575 60.8813 52.575 60.8625C52.575 60.8063 52.5563 60.7313 52.5375 60.675C52.5 60.5438 52.4813 60.375 52.4063 60.2625C52.4063 60.2438 52.3688 60.225 52.3688 60.2063C52.3313 60.15 52.3125 60.0938 52.275 60.0375C52.2187 59.9625 52.1812 59.8875 52.125 59.7938C52.1062 59.7563 52.0875 59.7375 52.0875 59.7188C51.9938 59.6063 51.825 59.4938 51.7688 59.4375C51.7125 59.4 51.6563 59.3625 51.6 59.325C51.525 59.2875 51.4125 59.1938 51.3 59.1375C51.3 59.1375 51.2625 59.1375 51.225 59.1375C51.1313 59.1 51.0375 59.0813 50.9438 59.0438C50.85 59.025 50.7563 59.0063 50.6625 58.9688C50.4938 58.9688 50.3438 58.95 50.1938 58.9688C50.1375 58.9688 50.0813 58.9688 50.0063 58.9688C50.0063 58.9688 49.9687 58.9688 49.95 58.9688C49.8 59.0063 49.65 59.0438 49.4812 59.1C49.4625 59.1 49.4438 59.1 49.4438 59.1C49.4438 59.1 49.4438 59.1 49.4063 59.1188C49.35 59.1563 49.2938 59.175 49.2375 59.2125C49.1063 59.2875 48.9375 59.3625 48.8437 59.475C48.8812 59.4375 48.9 59.4188 48.9188 59.4C48.8625 59.4563 48.7312 59.6063 48.6937 59.6438C48.6375 59.7 48.6 59.775 48.5437 59.8125C48.45 59.9625 48.3563 60.1313 48.2625 60.2813C48.2625 60.3188 48.2437 60.3188 48.2437 60.3188C48.225 60.375 48.2063 60.4313 48.1875 60.4875C48.1688 60.5625 48.1125 60.675 48.0938 60.7875C48.0938 60.7875 48.0938 60.825 48.0938 60.9C48.0938 60.9938 48.0938 61.1063 48.0938 61.2C48.0938 61.2938 48.0938 61.4063 48.0938 61.5188C48.0938 61.5188 48.0938 61.5188 48.0938 61.5375C48.15 61.725 48.1875 61.9125 48.2437 62.1C48.2437 62.1 48.2437 62.1 48.2437 62.1188C48.2812 62.1938 48.3375 62.2875 48.375 62.3625C48.4312 62.4375 48.4687 62.5125 48.525 62.6063C48.525 62.6063 48.525 62.6063 48.5437 62.625C48.6562 62.7375 48.7688 62.85 48.8813 62.9625C48.9 62.9813 48.9 62.9625 48.9188 63C48.9375 63 48.9562 63.0375 48.9937 63.0563C49.05 63.0938 49.1062 63.1313 49.1437 63.15C49.2375 63.2063 49.35 63.2438 49.425 63.3C49.6125 63.3563 49.7813 63.4125 49.9688 63.45C49.9688 63.45 49.9688 63.45 49.9875 63.45C50.0625 63.45 50.1563 63.45 50.2313 63.45C50.3063 63.45 50.4 63.45 50.475 63.45C50.475 63.45 50.5875 63.45 50.6438 63.4313C50.6813 63.4313 50.7 63.4313 50.7187 63.4313C50.775 63.4313 50.85 63.3938 50.9063 63.375C51 63.3563 51.0937 63.3188 51.1875 63.2813C51.3187 63.2438 51.5063 63.0938 51.6 63.0375C51.6188 63.0375 51.825 62.8313 51.6938 62.9813C51.7313 62.9438 51.7688 62.9063 51.7688 62.9063C51.825 62.85 51.9938 62.7188 52.05 62.6063C52.05 62.6063 52.05 62.5875 52.0688 62.5688C52.1063 62.4938 52.1625 62.4375 52.2 62.3625C52.2563 62.2875 52.2938 62.1938 52.3313 62.1188C52.3313 62.1188 52.3313 62.1188 52.3313 62.1C52.3875 61.95 52.425 61.8 52.4625 61.6313C52.4625 61.6125 52.4625 61.5188 52.4813 61.4813C52.4813 61.4625 52.4813 61.425 52.4813 61.4063C52.4813 61.2563 52.4813 61.1063 52.4813 60.9563C52.4813 60.9188 52.4813 60.9188 52.4813 60.9L52.575 60.8813Z" fill="#C4D831"/>
<path d="M68.4753 56.3811C66.3003 56.7749 64.7441 58.7624 64.5753 60.9187C64.5566 61.0124 64.5378 61.1061 64.5566 61.1999C64.5941 63.2999 65.8878 65.0999 67.8378 65.8311C69.6753 66.5249 71.9441 65.9249 73.2003 64.4061C74.5128 62.7936 74.7941 60.5249 73.7066 58.7061C72.6191 56.8874 70.5378 56.0436 68.4941 56.3999L68.4753 56.3811ZM67.2191 60.8061C67.2191 60.8061 67.2191 60.8999 67.2191 60.9374C67.2191 60.8999 67.2191 60.8624 67.2191 60.8061ZM71.7378 61.4624C71.7378 61.4624 71.7191 61.5936 71.7191 61.6124C71.6816 61.7624 71.6253 61.9124 71.5878 62.0811C71.5878 62.0811 71.5878 62.0811 71.5878 62.0999C71.5316 62.1749 71.4941 62.2686 71.4566 62.3436C71.4191 62.4186 71.3628 62.4749 71.3253 62.5499C71.3253 62.5499 71.3253 62.5686 71.3066 62.5874L71.3441 62.5499C71.2316 62.6999 71.2316 62.7186 71.3066 62.5874C71.2503 62.6811 71.0816 62.8311 71.0253 62.8874C71.0253 62.8874 70.9878 62.9249 70.9503 62.9624C71.0816 62.8312 70.8753 63.0186 70.8566 63.0186C70.7628 63.0749 70.5753 63.2249 70.4441 63.2624C70.6316 63.2062 70.3878 63.2999 70.3691 63.2999C70.3691 63.2999 70.4253 63.2812 70.4441 63.2624C70.3503 63.2999 70.2566 63.3186 70.1628 63.3561C70.1066 63.3561 70.0316 63.3936 69.9753 63.4124C69.9753 63.4124 69.9378 63.4124 69.9003 63.4124C69.8441 63.4124 69.7503 63.4124 69.7316 63.4312C69.6566 63.4312 69.5628 63.4312 69.4878 63.4312C69.4128 63.4312 69.3191 63.4312 69.2441 63.4312C69.2441 63.4312 69.2441 63.4312 69.2253 63.4312C69.0378 63.3937 68.8691 63.3374 68.6816 63.2811C68.6066 63.2249 68.4753 63.1874 68.4003 63.1311C68.3441 63.0936 68.2878 63.0749 68.2503 63.0374C68.2316 63.0374 68.2128 62.9999 68.1753 62.9811C68.1753 62.9811 68.1753 62.9811 68.1378 62.9436C68.0253 62.8311 67.9128 62.7186 67.8003 62.6061C67.8003 62.6061 67.8003 62.6061 67.7816 62.5874C67.7253 62.5124 67.6691 62.4374 67.6316 62.3436C67.5753 62.2686 67.5378 62.1749 67.5003 62.0999C67.5003 62.0999 67.5003 62.0999 67.5003 62.0811C67.4441 61.8936 67.3878 61.7062 67.3503 61.5187C67.3503 61.5187 67.3503 61.5186 67.3503 61.4999C67.3503 61.4061 67.3503 61.2749 67.3503 61.1811C67.3503 61.0874 67.3503 60.9749 67.3503 60.8811C67.3503 60.8061 67.3503 60.7874 67.3503 60.7686C67.3691 60.6561 67.4253 60.5436 67.4441 60.4686C67.4441 60.4124 67.4816 60.3561 67.5003 60.2999C67.5003 60.2999 67.5003 60.2999 67.5191 60.2624C67.6128 60.0936 67.7066 59.9436 67.8003 59.7936C67.8003 59.7936 67.9128 59.6811 67.9503 59.6249C68.0066 59.5499 68.3441 59.1936 68.1003 59.4561C68.1941 59.3436 68.3628 59.2686 68.4941 59.1936C68.5503 59.1561 68.6066 59.1374 68.6628 59.0999C68.6628 59.0999 68.6816 59.0999 68.7003 59.0811C68.7003 59.0811 68.7191 59.0811 68.7378 59.0811C68.8878 59.0436 69.0378 58.9874 69.2066 58.9499C69.2066 58.9499 69.2441 58.9499 69.2628 58.9499C69.3191 58.9499 69.3941 58.9499 69.4503 58.9499C69.6191 58.9499 69.7691 58.9499 69.9191 58.9499C70.0128 58.9686 70.1066 58.9874 70.2003 59.0249C70.2941 59.0436 70.3878 59.0811 70.4816 59.1186C70.5191 59.1186 70.5378 59.1186 70.5566 59.1186C70.6691 59.1749 70.7816 59.2686 70.8566 59.3061C70.9128 59.3436 70.9691 59.3811 71.0253 59.4186C71.1003 59.4936 71.2503 59.6061 71.3441 59.6999C71.3441 59.6999 71.3441 59.7186 71.3816 59.7749C71.4378 59.8499 71.4941 59.9249 71.5316 60.0186C71.5691 60.0749 71.5878 60.1311 71.6253 60.1874C71.6253 60.1874 71.6441 60.2249 71.6628 60.2436C71.7378 60.3561 71.7566 60.5436 71.7941 60.6561C71.7941 60.7124 71.8128 60.7874 71.8316 60.8436C71.8316 60.8436 71.8316 60.8436 71.8316 60.8624C71.8316 60.8624 71.8316 60.8999 71.8316 60.9187C71.8316 61.0687 71.8316 61.2186 71.8316 61.3686C71.8316 61.3874 71.8316 61.4249 71.8316 61.4436L71.7378 61.4624Z" fill="#C4D831"/>
<path d="M71.7371 60.8813C71.7371 60.8813 71.7371 60.8813 71.7371 60.8625C71.7371 60.8063 71.7184 60.7313 71.6996 60.675C71.6621 60.5438 71.6434 60.375 71.5684 60.2625C71.5684 60.2438 71.5309 60.225 71.5309 60.2063C71.4934 60.15 71.4746 60.0938 71.4371 60.0375C71.3809 59.9625 71.3434 59.8875 71.2871 59.7938C71.2684 59.7563 71.2496 59.7375 71.2496 59.7188C71.1559 59.6063 70.9871 59.4938 70.9309 59.4375C70.8746 59.4 70.8184 59.3625 70.7621 59.325C70.6871 59.2875 70.5746 59.1938 70.4621 59.1375C70.4621 59.1375 70.4246 59.1375 70.3871 59.1375C70.2934 59.1 70.1996 59.0813 70.1059 59.0438C70.0121 59.025 69.9184 59.0063 69.8246 58.9688C69.6559 58.9688 69.5059 58.95 69.3559 58.9688C69.2996 58.9688 69.2434 58.9688 69.1684 58.9688C69.1684 58.9688 69.1309 58.9688 69.1121 58.9688C68.9621 59.0063 68.8121 59.0438 68.6434 59.1C68.6246 59.1 68.6059 59.1 68.6059 59.1C68.6059 59.1 68.6059 59.1 68.5684 59.1188C68.5121 59.1563 68.4559 59.175 68.3996 59.2125C68.2684 59.2875 68.0996 59.3625 68.0059 59.475C68.2496 59.2125 67.9121 59.5688 67.8559 59.6438C67.7996 59.7 67.7621 59.775 67.7059 59.8125C67.6121 59.9625 67.5184 60.1313 67.4246 60.2813C67.4246 60.3188 67.4059 60.3188 67.4059 60.3188C67.3871 60.375 67.3684 60.4313 67.3496 60.4875C67.3309 60.5625 67.2746 60.675 67.2559 60.7875C67.2559 60.7875 67.2559 60.825 67.2559 60.9C67.2559 60.9938 67.2559 61.1063 67.2559 61.2C67.2559 61.2938 67.2559 61.4063 67.2559 61.5188C67.2559 61.5188 67.2559 61.5188 67.2559 61.5375C67.3121 61.725 67.3496 61.9125 67.4059 62.1C67.4059 62.1 67.4059 62.1 67.4059 62.1188C67.4621 62.1938 67.4996 62.2875 67.5371 62.3625C67.5934 62.4375 67.6309 62.5125 67.6871 62.6063C67.6871 62.6063 67.6871 62.6063 67.7059 62.625C67.8184 62.7375 67.9309 62.85 68.0434 62.9625C68.0621 62.9813 68.0621 62.9625 68.0809 63C68.0996 63 68.1184 63.0375 68.1559 63.0563C68.2121 63.0938 68.2684 63.1313 68.3059 63.15C68.3996 63.2063 68.5121 63.2438 68.5871 63.3C68.7746 63.3563 68.9434 63.4125 69.1309 63.45C69.1309 63.45 69.1309 63.45 69.1496 63.45C69.2246 63.45 69.3184 63.45 69.3934 63.45C69.4684 63.45 69.5621 63.45 69.6371 63.45C69.6371 63.45 69.7496 63.45 69.8059 63.4313C69.8434 63.4313 69.8621 63.4313 69.8809 63.4313C69.9371 63.4313 70.0121 63.3938 70.0684 63.375C70.1621 63.3563 70.2559 63.3188 70.3496 63.2813C70.4809 63.2438 70.6684 63.0938 70.7621 63.0375C70.7809 63.0375 70.9871 62.8313 70.8559 62.9813C70.8934 62.9438 70.9309 62.9063 70.9309 62.9063C70.9871 62.85 71.1559 62.7188 71.2121 62.6063C71.2121 62.6063 71.2121 62.5875 71.2309 62.5688C71.2684 62.4938 71.3246 62.4375 71.3621 62.3625C71.4184 62.2875 71.4559 62.1938 71.4934 62.1188C71.4934 62.1188 71.4934 62.1188 71.4934 62.1C71.5496 61.95 71.5871 61.8 71.6246 61.6313C71.6246 61.6125 71.6246 61.5188 71.6434 61.4813C71.6434 61.4625 71.6434 61.425 71.6434 61.4063C71.6434 61.2563 71.6434 61.1063 71.6434 60.9563C71.6434 60.9188 71.6434 60.9188 71.6434 60.9L71.7371 60.8813Z" fill="#C4D831"/>
<path d="M70.3875 63.2812C70.3875 63.2812 70.3312 63.3187 70.3125 63.3187C70.3125 63.3187 70.575 63.2249 70.3875 63.2812Z" fill="#C4D831"/>
<path d="M71.3065 62.5498C71.3065 62.5498 71.2878 62.5873 71.269 62.5873C71.1753 62.6998 71.194 62.6811 71.3065 62.5498Z" fill="#C4D831"/>
<path d="M64.1253 17.7563C63.2066 16.2188 61.5753 15.375 59.8503 15.375C59.5316 15.375 59.2316 15.3937 58.9128 15.45C56.7378 15.8437 55.1816 17.8312 55.0128 19.9875C54.9941 20.0812 54.9753 20.175 54.9941 20.2688C55.0316 22.3688 56.3253 24.1687 58.2753 24.9C58.7816 25.0875 59.3441 25.1813 59.8878 25.1813C61.3128 25.1813 62.7378 24.5625 63.6378 23.4563C64.9503 21.8438 65.2316 19.575 64.1441 17.7563H64.1253ZM57.6378 20.0063C57.6378 20.0063 57.6378 19.9313 57.6378 19.875C57.6378 19.9313 57.6378 19.9688 57.6378 20.0063Z" fill="#C4D831"/>
<path d="M59.0254 26.5123C58.5941 26.4561 58.1629 26.3623 57.7691 26.2123C55.2566 25.2748 53.6254 22.9498 53.5879 20.2873C53.5879 20.1186 53.5879 19.9498 53.6254 19.7998C53.8691 16.9686 55.9691 14.5686 58.6691 14.0811C59.0629 14.0061 59.4566 13.9686 59.8504 13.9686C62.1379 13.9686 64.1816 15.1123 65.3441 17.0436C66.6941 19.3123 66.4504 22.2561 64.7254 24.3561C63.7691 25.5373 62.3254 26.2686 60.7691 26.4936C61.0504 26.7373 61.2379 27.0936 61.2379 27.4873V27.8623C63.0379 27.5436 64.6879 26.6436 65.8129 25.2561C67.9129 22.6873 68.2129 19.1061 66.5629 16.3311C65.1566 13.9873 62.6629 12.5811 59.8691 12.5811C59.3816 12.5811 58.9129 12.6186 58.4254 12.7123C55.1254 13.3123 52.5566 16.2186 52.2379 19.6498C52.2004 19.8748 52.1816 20.0998 52.1816 20.3248C52.2191 23.5686 54.2254 26.3998 57.2816 27.5436C57.7129 27.6936 58.1441 27.8248 58.5941 27.8998V27.4873C58.5941 27.0936 58.7629 26.7561 59.0441 26.5311L59.0254 26.5123Z" fill="#333333"/>
<path d="M61.218 27.8438V27.4688C61.218 27.0938 61.0305 26.7376 60.7492 26.4751C60.4492 26.5126 60.168 26.5688 59.868 26.5688C59.568 26.5688 59.3055 26.5313 59.0242 26.4938C58.7617 26.7376 58.5742 27.0563 58.5742 27.4501V27.8626C59.0055 27.9376 59.4367 27.9751 59.868 27.9751C60.2992 27.9751 60.768 27.9001 61.218 27.8251V27.8438Z" fill="#333333"/>
<path d="M65.3246 17.0438C64.1809 15.1125 62.1184 13.9688 59.8309 13.9688C59.4371 13.9688 59.0434 14.0063 58.6496 14.0813C55.9684 14.5688 53.8496 16.9688 53.6059 19.8C53.5871 19.95 53.5684 20.1187 53.5684 20.2875C53.6059 22.95 55.2559 25.275 57.7496 26.2125C58.1434 26.3625 58.5746 26.4563 59.0059 26.5125C59.2496 26.3063 59.5496 26.175 59.8871 26.1562C60.2059 26.1562 60.5059 26.2875 60.7496 26.4938C62.3059 26.2688 63.7496 25.5375 64.7059 24.3562C66.4309 22.2563 66.6934 19.3125 65.3246 17.0438ZM59.8684 25.1813C59.3246 25.1813 58.7809 25.0875 58.2559 24.9C56.3059 24.1687 55.0121 22.3688 54.9746 20.2688C54.9746 20.175 54.9746 20.0813 54.9934 19.9875C55.1434 17.8313 56.6996 15.8437 58.8934 15.45C59.2121 15.3937 59.5121 15.375 59.8309 15.375C61.5559 15.375 63.1871 16.2188 64.1059 17.7563C65.1934 19.575 64.9309 21.8438 63.5996 23.4563C62.6996 24.5625 61.2746 25.1813 59.8496 25.1813H59.8684Z" fill="#333333"/>
<path d="M59.0246 26.5126C59.3059 26.5501 59.5871 26.5876 59.8684 26.5876C60.1496 26.5876 60.4684 26.5314 60.7496 26.4939C60.5059 26.2876 60.2246 26.1376 59.8871 26.1564C59.5496 26.1564 59.2496 26.3064 59.0059 26.5126H59.0246Z" fill="#333333"/>
<path d="M52.5758 107.325C53.4353 107.325 54.132 106.628 54.132 105.769C54.132 104.909 53.4353 104.212 52.5758 104.212C51.7163 104.212 51.0195 104.909 51.0195 105.769C51.0195 106.628 51.7163 107.325 52.5758 107.325Z" fill="#C4D831"/>
<path d="M59.8121 107.325C60.6716 107.325 61.3684 106.628 61.3684 105.769C61.3684 104.909 60.6716 104.212 59.8121 104.212C58.9526 104.212 58.2559 104.909 58.2559 105.769C58.2559 106.628 58.9526 107.325 59.8121 107.325Z" fill="#C4D831"/>
<path d="M67.0504 107.325C67.9129 107.325 68.6066 106.631 68.6066 105.769C68.6066 104.906 67.9129 104.212 67.0504 104.212C66.1879 104.212 65.4941 104.906 65.4941 105.769C65.4941 106.631 66.1879 107.325 67.0504 107.325Z" fill="#C4D831"/>
<path d="M25.1258 108.806V100.219C25.1258 99.5624 25.1258 98.9437 24.882 98.3062C23.757 95.5687 20.1195 95.6624 18.7133 98.0624C18.0758 99.2812 17.4945 100.519 16.9883 101.794C19.482 104.362 22.2008 106.706 25.1258 108.787V108.806Z" fill="white"/>
<path d="M27.7883 100.219C27.7883 99.2439 27.732 98.3064 27.357 97.3876C26.232 94.5564 23.082 92.9626 20.1195 93.7876C18.5258 94.2376 17.2508 95.3251 16.4258 96.7314C15.9008 97.7064 15.4508 98.7001 15.0195 99.6939C15.657 100.425 16.3133 101.119 16.9883 101.813C17.4945 100.538 18.0758 99.2814 18.7133 98.0814C20.1008 95.6814 23.757 95.5876 24.882 98.3251C25.1445 98.9439 25.1258 99.5814 25.1258 100.238V108.825C25.9883 109.444 26.8695 110.044 27.7695 110.625V100.238L27.7883 100.219Z" fill="#333333"/>
<path d="M97.8945 96.225C96.0758 96.375 94.8383 97.9312 94.8008 99.6937C94.8008 100.181 94.8008 100.65 94.8008 101.137V108.844C97.7258 106.762 100.445 104.419 102.957 101.869C102.451 100.575 101.888 99.3187 101.213 98.0625C100.52 96.8625 99.3008 96.0937 97.8945 96.225Z" fill="white"/>
<path d="M94.7991 108.262V101.156C94.7991 100.669 94.7991 100.2 94.7991 99.7123C94.8366 97.9498 96.0553 96.3936 97.8928 96.2436C99.2991 96.1311 100.518 96.8998 101.212 98.0811C101.868 99.3186 102.43 100.594 102.955 101.887C103.63 101.194 104.305 100.481 104.943 99.7498C104.493 98.7373 104.024 97.7248 103.499 96.7498C101.868 93.9373 98.3616 92.7748 95.4366 94.2561C93.3741 95.3061 92.2116 97.4248 92.1553 99.6936C92.1178 101.306 92.1553 102.937 92.1553 104.569V110.662C93.0553 110.081 93.9366 109.5 94.7991 108.881V108.281V108.262Z" fill="#333333"/>
<circle cx="60" cy="60" r="59" stroke="#333333" stroke-width="2"/>
</g>
<defs>
<clipPath id="clip0_159_142610">
<rect width="120" height="120" fill="white"/>
</clipPath>
</defs>
</svg>
