<svg width="122" height="122" viewBox="0 0 122 122" fill="none" xmlns="http://www.w3.org/2000/svg">
<path d="M98.8394 98.6001C98.8594 98.7101 98.8694 98.8301 98.8394 98.9501C98.2494 102.26 97.6794 105.58 97.1094 108.91C97.6694 105.59 98.2494 102.27 98.8394 98.9501C98.8594 98.8201 98.8494 98.7101 98.8394 98.6001Z" fill="white"/>
<path d="M86.0093 82.24C85.5293 82.07 85.0493 81.9 84.5693 81.74C85.0493 81.9 85.5293 82.06 86.0093 82.24Z" fill="white"/>
<path d="M82.1205 93.47C81.7905 93.45 81.4905 93.25 81.4005 92.83C80.8405 90.3 80.2805 87.77 79.7305 85.24C80.2905 87.77 80.8505 90.3 81.4005 92.83C81.4905 93.25 81.8005 93.45 82.1205 93.47Z" fill="white"/>
<path d="M84.5098 99.01C84.9998 99.17 85.5198 99.39 85.6998 99.72C85.5198 99.38 84.9998 99.17 84.5098 99.01Z" fill="white"/>
<path d="M45.9095 62.3199L46.3895 62.1899C45.8095 60.3699 45.4695 58.4899 45.3795 56.6699C44.9895 56.8599 44.5595 56.9499 44.1295 56.9599V57.4599C44.1295 57.9499 43.7195 58.3599 43.2295 58.3599C43.0795 58.3599 42.9195 58.3599 42.7695 58.3599C43.0395 59.6699 43.5695 60.8699 44.2995 61.8999C44.4795 61.8299 44.6595 61.7599 44.8395 61.6999C45.4095 61.4999 45.8095 61.8799 45.9095 62.3399V62.3199Z" fill="white"/>
<path d="M76.5801 95.3501C76.6001 95.6901 76.7801 96.0401 77.1801 96.1901C76.7801 96.0301 76.6001 95.6901 76.5801 95.3501Z" fill="white"/>
<path d="M44.9492 65.1799C46.1192 66.2799 47.5192 67.1199 49.0592 67.6399C48.9492 67.4799 48.8292 67.3199 48.7192 67.1499C47.3392 66.7399 46.0692 66.0699 44.9492 65.1799Z" fill="white"/>
<path d="M87.2206 82.7101C86.9206 82.5901 86.6205 82.4701 86.3105 82.3601C86.6105 82.4701 86.9206 82.6001 87.2206 82.7201V82.7101Z" fill="white"/>
<path d="M44.34 94.46C42.48 95.19 40.62 95.91 38.77 96.64C40.63 95.91 42.49 95.19 44.34 94.46C44.55 94.38 44.73 94.4 44.88 94.46C44.72 94.4 44.55 94.39 44.34 94.46Z" fill="white"/>
<path d="M76.7109 79.3899C76.8009 79.4199 76.9009 79.4499 76.9909 79.4699C76.9009 79.4399 76.8009 79.4099 76.7109 79.3899Z" fill="white"/>
<path d="M87.5299 100.16C87.5299 100.46 87.4799 100.76 87.4199 101.05C87.4799 100.75 87.5199 100.45 87.5299 100.16Z" fill="white"/>
<path d="M85.5293 101.19C85.5993 100.92 85.7693 100.42 85.7693 100.05C85.7693 100.43 85.5993 100.92 85.5293 101.19Z" fill="white"/>
<path d="M98.4805 98.05C98.5405 98.1 98.6005 98.15 98.6505 98.21C98.6005 98.15 98.5405 98.09 98.4805 98.05Z" fill="white"/>
<path d="M77.6605 94.4599C79.5205 95.1899 81.3805 95.9099 83.2305 96.6399C83.7105 96.8299 84.3005 96.9999 84.9005 97.2199C84.3105 96.9999 83.7105 96.8299 83.2305 96.6399C81.3705 95.9099 79.5105 95.1899 77.6605 94.4599C77.3905 94.3599 77.1605 94.3799 76.9805 94.4899C77.1605 94.3799 77.3905 94.3499 77.6605 94.4599Z" fill="white"/>
<path d="M35.6893 82.3601C35.3893 82.4701 35.0793 82.5901 34.7793 82.7101C35.0793 82.5901 35.3793 82.4701 35.6893 82.3601Z" fill="white"/>
<path d="M96.5995 101.42C96.5695 101.58 96.5395 101.74 96.5195 101.9C96.5495 101.74 96.5795 101.58 96.5995 101.42Z" fill="white"/>
<path d="M98.1699 97.8799C98.2499 97.9099 98.3199 97.9399 98.3899 97.9799C98.3199 97.9399 98.2399 97.8999 98.1699 97.8799Z" fill="white"/>
<path d="M82.7809 115.91C82.6509 116.3 82.5109 116.68 82.3809 117.06C82.5109 116.67 82.6509 116.29 82.7809 115.91C83.8009 112.92 84.7709 109.92 85.6909 106.89C84.7709 109.91 83.8009 112.92 82.7809 115.91Z" fill="white"/>
<path d="M76.4207 80.76C76.1907 80.9 76.0107 81.13 75.9707 81.46C75.9707 81.46 75.9707 81.48 75.9707 81.49C76.0407 81.13 76.2707 80.89 76.5607 80.77C76.5207 80.77 76.4707 80.76 76.4307 80.76H76.4207Z" fill="white"/>
<path d="M98.6895 98.25C98.7495 98.33 98.7895 98.43 98.8195 98.53C98.7895 98.43 98.7495 98.34 98.6895 98.25Z" fill="white"/>
<path d="M36.3005 99.72C36.4805 99.38 37.0005 99.17 37.4905 99.01C37.0005 99.17 36.4805 99.39 36.3005 99.72Z" fill="white"/>
<path d="M97.9102 97.8401C97.9102 97.8401 97.9801 97.8401 98.0201 97.8501C97.9801 97.8501 97.9502 97.8401 97.9102 97.8401Z" fill="white"/>
<path d="M23.6094 97.9899C23.6794 97.9499 23.7594 97.9099 23.8294 97.8899C23.7494 97.9099 23.6794 97.9499 23.6094 97.9899Z" fill="white"/>
<path d="M23.9805 97.8501C23.9805 97.8501 24.0505 97.8401 24.0905 97.8401C24.0505 97.8401 24.0205 97.8401 23.9805 97.8501Z" fill="white"/>
<path d="M23.3496 98.21C23.3996 98.15 23.4596 98.09 23.5196 98.05C23.4596 98.1 23.3996 98.15 23.3496 98.21Z" fill="white"/>
<path d="M23.1596 98.9501C23.1396 98.8201 23.1496 98.7101 23.1596 98.6001C23.1396 98.7101 23.1296 98.8301 23.1596 98.9501C23.7496 102.26 24.3196 105.58 24.8896 108.91C24.3296 105.59 23.7496 102.27 23.1596 98.9501Z" fill="white"/>
<path d="M23.1797 98.53C23.2097 98.43 23.2497 98.34 23.3097 98.25C23.2497 98.33 23.2097 98.42 23.1797 98.53Z" fill="white"/>
<path d="M22.7191 95.93C23.7091 92.48 25.1691 88.85 27.9591 86.48C25.1691 88.84 23.7091 92.47 22.7191 95.93C21.7991 99.13 21.3191 102.43 21.0391 105.75C21.3091 102.43 21.7991 99.13 22.7191 95.93Z" fill="white"/>
<path d="M25.4004 101.42C25.4304 101.58 25.4604 101.74 25.4804 101.9C25.4504 101.74 25.4204 101.58 25.4004 101.42Z" fill="white"/>
<path d="M94.0391 86.48C96.8291 88.84 98.2891 92.47 99.2791 95.93C100.199 99.13 100.679 102.43 100.959 105.75C100.689 102.43 100.199 99.13 99.2791 95.93C98.2891 92.48 96.8291 88.85 94.0391 86.48Z" fill="white"/>
<path d="M36.2305 100.05C36.2305 100.43 36.4005 100.92 36.4705 101.19C36.4005 100.92 36.2305 100.42 36.2305 100.05Z" fill="white"/>
<path d="M37.44 81.74C36.96 81.9 36.48 82.06 36 82.24C36.48 82.07 36.96 81.9 37.44 81.74Z" fill="white"/>
<path d="M29.21 83.47C29.73 83.19 30.26 82.93 30.79 82.68C35.84 79.71 42.1 78.67 47.58 76.75L48.15 76.4C48.1 76.32 48.04 76.25 47.99 76.17L46.24 76.75L38.27 79.4L36.51 79.99C35.45 77.9 35.19 75.44 35.69 73.15C36.57 69.05 39.49 65.45 43.15 63.39C42.97 63.16 42.8 62.92 42.63 62.67C41.81 61.44 41.23 60.03 40.97 58.47C40.96 58.4 40.95 58.34 40.96 58.28C39.91 58.14 38.96 57.75 38.34 56.65C37.74 55.6 37.9 54.3 37.9 53.14V48.32C37.9 46.99 37.86 45.7 38.88 44.67C39.19 44.36 39.53 44.15 39.89 44C39.89 42.54 39.89 41.08 39.89 39.62C39.9 36.51 40.54 33.48 41.82 30.65C44.21 25.34 48.83 21.19 54.32 19.28C59.96 17.31 66.35 17.87 71.58 20.72C76.69 23.51 80.54 28.4 82.03 34.03C82.94 37.47 82.78 41.09 82.75 44.63C82.97 44.84 83.17 45.08 83.34 45.39C83.94 46.44 83.78 47.74 83.78 48.9V53.72C83.78 55.05 83.82 56.34 82.8 57.37C81.61 58.56 79.97 58.35 78.44 58.35C77.95 58.35 77.54 57.94 77.54 57.45V56.94C77.03 56.9 76.52 56.73 76.08 56.45C75.6 60.18 74.75 64 72.75 67.23C72.68 69.99 72.61 72.76 72.54 75.52C72.54 75.53 72.54 75.54 72.54 75.55L73.63 76.64C73.78 76.59 73.96 76.59 74.16 76.66C79.71 78.64 86.1 79.67 91.24 82.69C91.77 82.94 92.3 83.2 92.82 83.48C96.63 85.57 98.74 89 100.22 92.98C101.57 96.6 102.27 100.36 102.66 104.18C113.97 93.27 121.02 77.96 121.02 61C121 27.86 94.14 1 61 1C27.86 1 1 27.86 1 61C1 77.96 8.05 93.26 19.36 104.18C19.75 100.36 20.45 96.59 21.8 92.98C23.28 89 25.4 85.56 29.2 83.48L29.21 83.47Z" fill="white"/>
<path d="M40.6009 92.82C41.1609 90.29 41.7209 87.76 42.2709 85.23C41.7109 87.76 41.1509 90.29 40.6009 92.82C40.5109 93.24 40.2009 93.44 39.8809 93.46C40.2109 93.44 40.5109 93.24 40.6009 92.82Z" fill="white"/>
<path d="M93.4691 86.5499C92.5891 85.7099 91.6291 84.9999 90.5991 84.3799C89.4891 83.8599 88.3491 83.3999 87.2191 82.9299V82.7099C86.9191 82.5899 86.6191 82.4599 86.3091 82.3499C86.2091 82.3099 86.1091 82.2699 85.9991 82.2399C85.5191 82.0699 85.0391 81.8999 84.5591 81.7399C83.2191 81.3099 81.8691 80.9099 80.5191 80.5199C81.3891 84.4599 82.2591 88.3999 83.1291 92.3399C83.1591 92.4799 83.1591 92.6099 83.1291 92.7299C83.0591 93.0899 82.7691 93.3299 82.4391 93.4199C82.3291 93.4499 82.2191 93.4599 82.1091 93.4599C81.7791 93.4399 81.4791 93.2399 81.3891 92.8199C80.8291 90.2899 80.2691 87.7599 79.7191 85.2299C79.3491 83.5399 78.9691 81.8599 78.5991 80.1699C78.5791 80.0899 78.5791 80.0199 78.5791 79.9499C78.0491 79.7899 77.5091 79.6299 76.9791 79.4699C76.8891 79.4399 76.7891 79.4099 76.6991 79.3899C76.6591 79.7899 76.6091 80.2199 76.5691 80.6799C76.5091 80.6999 76.4591 80.7299 76.4091 80.7599C76.4491 80.7599 76.4991 80.7599 76.5391 80.7699C77.0991 80.5599 77.8091 80.8099 77.7291 81.5499C77.2191 86.0199 76.6291 90.4799 76.0191 94.9399C74.9691 102.61 73.8691 110.27 72.7991 117.94C72.7091 118.59 72.6291 119.23 72.5391 119.88C75.1591 119.37 77.7091 118.68 80.1991 117.84C81.4091 114.37 82.5791 110.89 83.6591 107.38C84.1091 105.93 84.5191 104.47 84.9591 103.01C85.1491 102.4 85.3591 101.8 85.5191 101.19C85.5891 100.92 85.7591 100.42 85.7591 100.05C85.7591 99.9199 85.7391 99.8099 85.6891 99.7199C85.5091 99.3799 84.9891 99.1699 84.4991 99.0099C84.2091 98.9099 83.9191 98.8299 83.7291 98.7599C83.0191 98.4799 82.3091 98.1999 81.5991 97.9299C80.1291 97.3499 78.6491 96.7799 77.1791 96.1999C76.7791 96.0399 76.5991 95.6999 76.5791 95.3599C76.5591 95.0199 76.7091 94.6699 76.9791 94.4999C77.1591 94.3899 77.3891 94.3599 77.6591 94.4699C79.5191 95.1999 81.3791 95.9199 83.2291 96.6499C83.7091 96.8399 84.2991 97.0099 84.8991 97.2299C85.0991 97.2999 85.2891 97.3799 85.4891 97.4599C86.2591 97.7899 86.9491 98.2299 87.2891 98.9099C87.4891 99.2999 87.5491 99.7299 87.5391 100.17C87.5391 100.47 87.4891 100.77 87.4291 101.06C87.3991 101.21 87.3591 101.35 87.3291 101.5C87.2491 101.79 87.1691 102.07 87.0891 102.32C86.8991 102.93 86.7191 103.54 86.5391 104.15C86.2591 105.07 85.9891 105.98 85.7091 106.9C84.7891 109.92 83.8191 112.93 82.7991 115.92C82.6691 116.31 82.5291 116.69 82.3991 117.07C86.9191 115.35 91.1691 113.09 95.0891 110.39C95.5391 107.7 95.9891 105.01 96.4591 102.33C96.4791 102.19 96.5091 102.05 96.5291 101.91C96.5591 101.75 96.5891 101.59 96.6091 101.43C96.7791 100.45 96.9491 99.4699 97.1191 98.4899C97.1991 98.0199 97.5491 97.8399 97.9191 97.8499C97.9591 97.8499 97.9891 97.8499 98.0291 97.8599C98.0791 97.8599 98.1291 97.8699 98.1791 97.8899C98.2591 97.9099 98.3291 97.9499 98.3991 97.9899C98.4291 98.0099 98.4591 98.0299 98.4891 98.0499C98.5491 98.0999 98.6091 98.1499 98.6591 98.2099C98.6691 98.2199 98.6891 98.2399 98.6991 98.2499C98.7591 98.3299 98.7991 98.4199 98.8291 98.5299C98.8291 98.5499 98.8391 98.5799 98.8491 98.5999C98.8691 98.7099 98.8791 98.8299 98.8491 98.9499C98.2591 102.26 97.6891 105.58 97.1191 108.91C98.4491 107.91 99.7191 106.85 100.959 105.75C100.689 102.43 100.199 99.1299 99.2791 95.9299C98.2891 92.4799 96.8291 88.8499 94.0391 86.4799C94.0791 86.7499 94.1291 87.0199 94.1891 87.2799C93.9591 87.0299 93.7191 86.7799 93.4691 86.5499Z" fill="#189655"/>
<path d="M49.1692 75.77C49.1692 75.77 49.1692 75.75 49.1592 75.73C49.1592 75.71 49.1492 75.69 49.1392 75.67C49.1092 75.59 49.0892 75.52 49.0692 75.46C49.0592 75.42 49.0492 75.39 49.0292 75.35C48.9292 75.05 48.9692 75.17 49.0292 75.35C49.0392 75.38 49.0492 75.42 49.0692 75.46C49.0992 75.54 49.1192 75.61 49.1392 75.67C49.1392 75.69 49.1492 75.71 49.1592 75.73C49.1592 75.75 49.1692 75.77 49.1692 75.77C49.1692 75.76 49.1692 75.74 49.1692 75.73C49.2492 73.2 49.3292 70.67 49.4092 68.13C49.2892 67.97 49.1792 67.8 49.0592 67.63C47.5192 67.12 46.1292 66.28 44.9492 65.17C44.7692 65.02 44.5992 64.86 44.4192 64.7C42.2592 65.81 40.4292 67.54 39.1192 69.59C37.8692 71.56 37.1092 73.76 37.2692 76.11C37.3492 77.31 37.7392 78.37 38.2692 79.38L46.2392 76.73C45.8392 76.14 45.4292 75.56 45.0192 74.97C44.3592 74.02 45.9192 73.12 46.5692 74.06C47.0492 74.75 47.5292 75.45 47.9892 76.15L49.1492 75.77H49.1692Z" fill="#333333"/>
<path d="M45.0208 74.9901C45.4308 75.5801 45.8408 76.1601 46.2408 76.7501L47.9908 76.1701C47.5308 75.4701 47.0508 74.7801 46.5708 74.0801C45.9208 73.1401 44.3608 74.0301 45.0208 74.9901Z" fill="#333333"/>
<path d="M39.1201 69.5999C40.4201 67.5499 42.2601 65.8199 44.4201 64.7099C44.1901 64.5099 43.9601 64.3099 43.7501 64.0899C43.5401 63.8599 43.3401 63.6299 43.1501 63.3899C39.4901 65.4499 36.5701 69.0499 35.6901 73.1499C35.2001 75.4399 35.4501 77.8999 36.5101 79.9899L38.2701 79.3999C37.7401 78.3899 37.3501 77.3299 37.2701 76.1299C37.1101 73.7799 37.8601 71.5799 39.1201 69.6099V69.5999Z" fill="#333333"/>
<path d="M47.9902 76.17C48.0402 76.25 48.1002 76.32 48.1502 76.4L49.1502 75.78L47.9902 76.16V76.17Z" fill="#C4D831"/>
<path d="M42.3104 43.0001C41.9504 41.8001 41.7604 40.5801 41.7004 39.3501C41.6404 40.7901 41.6704 42.2301 41.6804 43.6801C42.2004 43.6701 42.7204 43.6801 43.2404 43.6801C43.2604 43.6801 43.2804 43.6801 43.3004 43.6801V43.6101C42.8904 43.6601 42.4604 43.4801 42.3104 42.9901V43.0001Z" fill="white"/>
<path d="M80.1291 43.6101C80.1291 43.6101 80.1291 43.6701 80.1191 43.7001C80.3991 43.7201 80.6791 43.7401 80.9491 43.7901C80.9891 40.1901 81.0491 36.5601 79.8691 33.1101C79.6291 32.4201 79.3591 31.7401 79.0391 31.0901C79.0691 31.1801 79.0991 31.2701 79.1291 31.3601C80.3091 35.2901 80.4091 39.5401 80.1291 43.6101Z" fill="white"/>
<path d="M72.7892 24.8701L73.6392 25.4001C73.8192 25.1301 74.1292 24.9501 74.4792 24.9801C73.8392 24.4001 73.1592 23.8601 72.4492 23.3701C72.5792 23.5601 72.7092 23.7501 72.8292 23.9501C73.0292 24.2901 72.9792 24.6201 72.7992 24.8701H72.7892Z" fill="white"/>
<path d="M60.9995 95.4701C55.9995 95.4701 51.1695 93.8301 47.1895 90.8301C48.4595 100.64 49.9195 110.42 51.2895 120.21C54.4495 120.72 57.6895 121 60.9995 121C64.3095 121 67.5495 120.72 70.7095 120.21C72.0795 110.42 73.5495 100.63 74.8095 90.8301C70.8295 93.8301 65.9895 95.4701 60.9995 95.4701Z" fill="white"/>
<path d="M48.7898 76.9499C49.0898 77.3999 49.0098 78.1499 48.3398 78.3899C47.4998 78.6899 46.6598 78.9699 45.8098 79.2299C45.8598 79.7199 45.9198 80.2499 45.9698 80.8299C45.7998 80.7599 45.6198 80.7499 45.4398 80.7699C45.7398 80.8899 45.9998 81.1499 46.0398 81.5499C46.2798 83.7099 46.5398 85.8599 46.8098 88.0099C46.8898 88.0499 46.9698 88.0799 47.0398 88.1399C50.8998 91.5699 55.8498 93.4599 60.9898 93.4599C66.1298 93.4599 71.0698 91.5699 74.9398 88.1399C75.0098 88.0799 75.0898 88.0399 75.1698 88.0099C75.4398 85.8599 75.6998 83.6999 75.9398 81.5499C75.9398 81.5299 75.9498 81.5099 75.9598 81.4899C75.9598 81.4899 75.9598 81.4699 75.9598 81.4599C75.9998 81.1299 76.1798 80.8999 76.4098 80.7599C76.2798 80.7599 76.1398 80.7799 76.0198 80.8299C76.0798 80.2599 76.1298 79.7199 76.1798 79.2299C76.3498 79.2799 76.5298 79.3299 76.6998 79.3899C76.5298 79.3399 76.3498 79.2899 76.1798 79.2299C75.3298 78.9599 74.4898 78.6899 73.6498 78.3899C72.9798 78.1499 72.8998 77.3999 73.1998 76.9499C73.2998 76.8099 73.4298 76.6999 73.5998 76.6399L72.5098 75.5499C72.4498 76.6699 70.6898 76.6599 70.7098 75.5199C70.7598 73.5599 70.8098 71.5999 70.8598 69.6499C66.6698 74.0399 60.0398 75.3199 54.4598 72.4899C53.2298 71.8699 52.1198 71.0599 51.1298 70.1099L50.9498 75.7399C50.9198 76.5899 49.9398 76.8099 49.4398 76.4099L48.1698 76.4699C48.1698 76.4699 48.1398 76.4299 48.1298 76.4099L47.5598 76.7599C47.6498 76.7299 47.7498 76.6999 47.8398 76.6599C48.2598 76.5099 48.5798 76.6699 48.7698 76.9499H48.7898Z" fill="white"/>
<path d="M45.0209 94.49C45.0209 94.49 44.9309 94.46 44.8809 94.45C44.8809 94.45 44.9809 94.47 45.0209 94.49Z" fill="white"/>
<path d="M76.7093 79.39C76.5393 79.34 76.3593 79.29 76.1893 79.23C76.1393 79.72 76.0793 80.25 76.0293 80.83C76.1593 80.78 76.2893 80.76 76.4193 80.76C76.4693 80.73 76.5193 80.7 76.5793 80.68C76.6193 80.22 76.6693 79.8 76.7093 79.39Z" fill="white"/>
<path d="M49.0693 75.4601C49.0693 75.4601 49.0393 75.3801 49.0293 75.3501C49.0393 75.3801 49.0493 75.4201 49.0693 75.4601Z" fill="white"/>
<path d="M49.0297 75.35C48.9297 75.05 48.9697 75.17 49.0297 75.35V75.35Z" fill="white"/>
<path d="M49.1702 75.77C49.1702 75.77 49.1702 75.75 49.1602 75.73C49.1602 75.74 49.1602 75.75 49.1702 75.77Z" fill="white"/>
<path d="M49.1504 75.78H49.1704V75.77L49.1504 75.78Z" fill="white"/>
<path d="M49.1403 75.67C49.1203 75.61 49.1003 75.54 49.0703 75.46C49.0903 75.52 49.1103 75.59 49.1403 75.67Z" fill="white"/>
<path d="M49.1606 75.7299C49.1606 75.7299 49.1506 75.6899 49.1406 75.6699C49.1406 75.6999 49.1606 75.7199 49.1606 75.7299Z" fill="white"/>
<path d="M49.4604 76.4C49.2904 76.26 49.1704 76.06 49.1704 75.77H49.1504L48.1504 76.39C48.1604 76.41 48.1804 76.43 48.1904 76.45L49.4604 76.39V76.4Z" fill="white"/>
<path d="M45.9093 62.3199C45.9893 62.6799 45.8793 63.0799 45.5293 63.3099C46.0793 63.8299 46.6793 64.2699 47.3393 64.6399C46.9693 63.8399 46.6593 63.0199 46.3893 62.1799L45.9093 62.3099V62.3199Z" fill="#333333"/>
<path d="M45.9108 62.3201C45.8108 61.8601 45.4108 61.4801 44.8408 61.6801C44.6608 61.7401 44.4808 61.8101 44.3008 61.8801C44.6608 62.4001 45.0808 62.8801 45.5308 63.3101C45.8808 63.0801 45.9808 62.6801 45.9108 62.3201Z" fill="#333333"/>
<path d="M56.0299 71.2399C58.7599 72.4199 61.8899 72.5599 64.7099 71.6099C71.2499 69.4099 73.5499 62.3599 74.3099 56.1499C74.3599 55.7099 74.6699 55.4399 75.0199 55.3399C74.8199 54.9599 74.6899 54.5199 74.6699 54.0199C74.6099 52.4699 74.6699 50.9099 74.6699 49.3699C74.6699 48.7899 74.6199 48.1799 74.7199 47.6099C74.9099 46.4399 75.7399 45.6099 76.7899 45.2699L75.6099 44.0399C75.2899 44.3199 74.7899 44.4099 74.3799 44.0499C71.7799 41.7999 69.0499 38.4599 68.4399 34.9899C68.4199 34.8999 68.4199 34.8099 68.4299 34.7199L65.9399 34.6399C63.8099 38.4199 60.4099 41.5599 56.4599 43.3799C56.6599 43.5299 56.8199 43.6999 56.8999 43.8999C56.9499 44.0299 56.9399 44.1899 56.8699 44.3399C56.7899 44.4999 56.6599 44.6199 56.5299 44.6599C56.4599 44.6799 56.3999 44.6899 56.3299 44.6899C56.1299 44.6899 55.9599 44.5999 55.8299 44.4399C55.7999 44.4099 55.7699 44.3799 55.7299 44.3599C55.6299 44.3099 55.5399 44.2599 55.4399 44.2199C55.2499 44.1599 55.1599 44.1399 55.0599 44.1199C54.9699 44.0999 54.8699 44.0899 54.7799 44.0699C52.1999 44.9799 49.4399 45.3299 46.6699 44.9399C46.3799 44.8999 46.1899 44.7499 46.0999 44.5699L44.9199 45.2899C46.1199 45.6899 46.9399 46.7399 46.9999 48.1099C47.0299 48.7999 46.9999 49.5099 46.9999 50.1999V53.0499C46.9999 53.7799 47.0499 54.5099 46.7599 55.1999C46.6799 55.3799 46.5999 55.5399 46.4999 55.6899C46.8499 55.7799 47.1599 56.0599 47.1799 56.5199C47.2999 59.2399 48.1099 62.0799 49.3199 64.5099C49.5099 64.8899 49.7199 65.2699 49.9299 65.6399C50.8899 65.8499 51.8999 65.8899 52.9299 65.7699C54.1299 64.7099 56.7399 65.0099 57.3999 66.5699C57.5099 66.7099 57.5699 66.8999 57.5399 67.1299C57.5599 67.3699 57.4999 67.5499 57.3999 67.6899C56.5999 69.5999 52.8999 69.6099 52.3899 67.6099C52.0299 67.6299 51.6599 67.6299 51.2999 67.6099C52.5699 69.1599 54.1499 70.4399 56.0399 71.2599L56.0299 71.2399ZM54.2499 49.4499C53.7499 49.4499 53.3499 49.0499 53.3499 48.5499C53.3499 48.0499 53.7499 47.6499 54.2499 47.6499C54.7499 47.6499 55.1499 48.0499 55.1499 48.5499C55.1499 49.0499 54.7399 49.4499 54.2499 49.4499ZM67.1299 49.4499C66.6299 49.4499 66.2299 49.0499 66.2299 48.5499C66.2299 48.0499 66.6299 47.6499 67.1299 47.6499C67.6299 47.6499 68.0299 48.0499 68.0299 48.5499C68.0299 49.0499 67.6299 49.4499 67.1299 49.4499ZM64.6999 43.8899C64.9299 43.3099 65.6399 42.9499 66.8099 42.7999C67.0899 42.7599 67.3799 42.7399 67.6599 42.7399C68.5499 42.7399 69.2999 42.9399 69.8699 43.3299C70.1499 43.5199 70.2199 43.8899 70.0399 44.1899C69.9399 44.3499 69.7399 44.4499 69.5299 44.4499C69.4099 44.4499 69.2899 44.4199 69.1999 44.3599C69.1399 44.3199 69.0899 44.2899 69.0299 44.2499H69.0199C69.0199 44.2499 68.8999 44.1899 68.8899 44.1899C68.8699 44.1799 68.8099 44.1499 68.7599 44.1399C68.6599 44.0999 68.5599 44.0699 68.4499 44.0499L68.2899 44.0199C68.0699 43.9899 67.8399 43.9699 67.6199 43.9699H67.3699L67.1599 43.9899C66.9599 44.0099 66.7599 44.0499 66.5599 44.0899C66.4599 44.1099 66.3699 44.1399 66.2699 44.1699C66.0799 44.2399 65.9799 44.2899 65.8799 44.3399C65.8399 44.3599 65.8099 44.3899 65.7799 44.4199C65.6599 44.5799 65.4799 44.6699 65.2799 44.6699C65.2199 44.6699 65.1499 44.6699 65.0799 44.6399C64.9399 44.5999 64.8099 44.4799 64.7399 44.3199C64.6699 44.1699 64.6499 44.0099 64.6999 43.8799V43.8899ZM57.9499 55.5899C58.9099 53.9799 59.4899 52.0999 60.0999 50.3299C60.4799 49.2399 62.2099 49.7099 61.8299 50.8099C61.2599 52.4499 60.7099 54.1899 59.9099 55.7499C60.4699 56.1299 61.0099 56.5299 61.5899 56.8899C62.5699 57.5099 61.6599 59.0599 60.6799 58.4399C59.8599 57.9199 59.0899 57.3299 58.2699 56.8099C57.8599 56.5499 57.6899 56.0099 57.9499 55.5799V55.5899ZM56.7099 62.5399C56.1999 61.5099 57.7499 60.5999 58.2599 61.6299C59.0499 63.2199 62.9499 63.3299 63.6799 61.6299C64.1299 60.5699 65.6799 61.4799 65.2299 62.5399C63.9799 65.4799 58.0599 65.2599 56.7099 62.5399Z" fill="white"/>
<path d="M47.1395 43.1799C54.6495 44.2499 62.4895 38.7699 65.2695 31.9599C65.6995 30.8999 67.4395 31.3699 66.9995 32.4399C66.6895 33.1899 66.3395 33.9199 65.9395 34.6299L68.4295 34.7099C68.5195 33.7799 69.9895 33.4599 70.1695 34.4999C70.7295 37.6999 73.2495 40.6999 75.6395 42.7699C76.0995 43.1699 75.9595 43.7199 75.5995 44.0299L76.7795 45.2599C76.9595 45.1999 77.1495 45.1599 77.3395 45.1299C77.3995 45.1099 77.4595 45.0999 77.5195 45.0999V44.5899C77.5195 44.3099 77.6295 44.0899 77.7895 43.9499C77.9195 43.8099 78.0895 43.7199 78.3195 43.6999C78.3195 43.6699 78.3195 43.6499 78.3195 43.6199C78.5795 39.8499 78.5195 35.9499 77.5095 32.2899C76.9295 30.1899 75.9595 27.7199 73.9095 26.6499C73.3695 26.3699 73.3695 25.8099 73.6295 25.4199L72.7795 24.8899C72.4395 25.3699 71.6395 25.5399 71.2595 24.8799C69.9395 22.5899 67.1495 21.5399 64.6995 20.9999C59.3695 19.8199 53.8895 21.0599 49.7195 24.6699C44.9195 28.8199 42.1795 36.3799 44.0295 42.5599C44.2095 43.1699 43.7695 43.5899 43.2695 43.6599V43.7299C43.5295 43.7399 43.7195 43.8499 43.8595 43.9999C44.0195 44.1399 44.1195 44.3499 44.1195 44.6299V45.1399C44.1795 45.1399 44.2395 45.1499 44.2995 45.1699C44.5095 45.1999 44.7095 45.2499 44.8995 45.3099L46.0795 44.5899C45.7995 44.0399 46.2895 43.1099 47.1295 43.2299L47.1395 43.1799Z" fill="#333333"/>
<path d="M47.1591 56.4999C47.1391 56.0299 46.8291 55.7499 46.4791 55.6699C46.1791 56.1299 45.7991 56.4599 45.3691 56.6699C45.4591 58.4899 45.7991 60.3699 46.3791 62.1899C46.6491 63.0299 46.9591 63.8499 47.3291 64.6499C48.1291 65.0999 48.9891 65.4299 49.8991 65.6199C49.6791 65.2499 49.4791 64.8799 49.2891 64.4899C48.0791 62.0599 47.2691 59.2199 47.1491 56.4999H47.1591Z" fill="#333333"/>
<path d="M75.0207 55.3301C74.6707 55.4301 74.3607 55.7001 74.3107 56.1401C73.5407 62.3601 71.2507 69.4001 64.7107 71.6001C61.8907 72.5501 58.7607 72.4101 56.0307 71.2301C54.1407 70.4201 52.5607 69.1401 51.2907 67.5801C50.4107 67.5401 49.5507 67.3801 48.7207 67.1401C48.8307 67.3101 48.9507 67.4601 49.0607 67.6301C49.1807 67.6701 49.2907 67.7201 49.4107 67.7601C49.6307 68.1001 49.8607 68.4301 50.1007 68.7501C50.0307 71.0101 49.9607 73.2801 49.8907 75.5401C49.8907 75.8101 49.8707 76.0801 49.8607 76.3401C49.8607 76.3501 49.8607 76.3701 49.8607 76.3801L49.4707 76.4001C49.9707 76.8001 50.9507 76.5801 50.9807 75.7301L51.1607 70.1001C52.1507 71.0501 53.2607 71.8601 54.4907 72.4801C60.0707 75.3001 66.7007 74.0301 70.8907 69.6401C70.8407 71.6001 70.7907 73.5601 70.7407 75.5101C70.7107 76.6601 72.4707 76.6701 72.5407 75.5401C72.5407 75.5401 72.5407 75.5201 72.5407 75.5101C72.6107 72.7501 72.6807 69.9801 72.7507 67.2201C74.7507 64.0001 75.6107 60.1701 76.0807 56.4401C75.6507 56.1701 75.2807 55.7901 75.0307 55.3201L75.0207 55.3301Z" fill="#333333"/>
<path d="M50.0908 68.7499C49.8508 68.4299 49.6208 68.0999 49.4008 67.7599C49.2808 67.7299 49.1708 67.6699 49.0508 67.6299C49.1708 67.7999 49.2808 67.9699 49.4008 68.1299C49.3208 70.6599 49.2408 73.1899 49.1608 75.7299C49.1608 75.7399 49.1608 75.7599 49.1608 75.7699L49.8708 75.5299C49.9408 73.2699 50.0108 70.9999 50.0808 68.7399L50.0908 68.7499Z" fill="#333333"/>
<path d="M49.8597 76.34C49.8597 76.07 49.8797 75.8 49.8897 75.54L49.1797 75.78C49.1797 76.06 49.2997 76.27 49.4697 76.41L49.8597 76.39C49.8597 76.39 49.8597 76.36 49.8597 76.35V76.34Z" fill="#333333"/>
<path d="M58.2694 56.82C59.0894 57.34 59.8594 57.93 60.6794 58.45C61.6594 59.07 62.5594 57.51 61.5894 56.9C61.0194 56.54 60.4694 56.14 59.9094 55.76C60.7094 54.2 61.2594 52.46 61.8294 50.82C62.2094 49.72 60.4694 49.25 60.0994 50.34C59.4894 52.1 58.9094 53.99 57.9494 55.6C57.6994 56.03 57.8594 56.57 58.2694 56.83V56.82Z" fill="#333333"/>
<path d="M43.2795 43.62C43.7695 43.55 44.2195 43.14 44.0395 42.52C42.1895 36.34 44.9395 28.78 49.7295 24.63C53.8995 21.03 59.3695 19.79 64.7095 20.96C67.1595 21.5 69.9495 22.55 71.2695 24.84C71.6495 25.5 72.4495 25.33 72.7895 24.85C72.9695 24.6 73.0195 24.27 72.8195 23.93C72.6995 23.73 72.5695 23.53 72.4395 23.35C71.4095 22.64 70.3195 22.02 69.1695 21.51C64.0395 19.25 57.9495 19.34 52.8995 21.76C47.9895 24.11 44.1695 28.46 42.5595 33.67C41.9895 35.53 41.7695 37.42 41.6895 39.33C41.7495 40.56 41.9395 41.79 42.2995 42.98C42.4495 43.47 42.8795 43.65 43.2795 43.6V43.62Z" fill="#333333"/>
<path d="M73.6405 25.3999C73.3705 25.7899 73.3805 26.3499 73.9205 26.6299C75.9705 27.6999 76.9405 30.1699 77.5205 32.2699C78.5305 35.9399 78.5905 39.8299 78.3305 43.5999C78.3305 43.6299 78.3305 43.6499 78.3305 43.6799C78.3605 43.6799 78.3905 43.6799 78.4305 43.6799C78.9905 43.6799 79.5605 43.6599 80.1205 43.6999C80.1205 43.6699 80.1205 43.6399 80.1305 43.6099C80.4105 39.5399 80.3105 35.2999 79.1305 31.3599C79.1005 31.2699 79.0705 31.1799 79.0405 31.0899C77.9305 28.7699 76.3705 26.6899 74.4705 24.9799C74.1205 24.9499 73.8205 25.1399 73.6305 25.3999H73.6405Z" fill="#333333"/>
<path d="M75.6397 42.7599C73.2497 40.6899 70.7297 37.6899 70.1697 34.4899C69.9897 33.4499 68.5097 33.7699 68.4297 34.6999C68.4297 34.7799 68.4297 34.8699 68.4397 34.9699C69.0497 38.4399 71.7797 41.7799 74.3797 44.0299C74.7897 44.3799 75.2897 44.2899 75.6097 44.0199C75.9697 43.7099 76.1097 43.1599 75.6497 42.7599H75.6397Z" fill="#333333"/>
<path d="M65.2591 31.9601C62.4891 38.7801 54.6391 44.2601 47.1291 43.1801C46.2891 43.0601 45.7991 43.9901 46.0791 44.5401C46.1791 44.7301 46.3591 44.8701 46.6491 44.9101C49.4091 45.3101 52.1691 44.9501 54.7591 44.0401C54.6491 44.0201 54.5391 44.0001 54.4291 43.9901H54.2891L53.9991 43.9701C53.7391 43.9701 53.5191 43.9901 53.2991 44.0201L53.1791 44.0401C53.0291 44.0801 52.9291 44.1101 52.8291 44.1401C52.7791 44.1601 52.7191 44.1801 52.6691 44.2101C52.6291 44.2301 52.5991 44.2501 52.5691 44.2801V44.2601C52.4991 44.2901 52.4491 44.3301 52.3891 44.3701C52.2991 44.4301 52.1791 44.4601 52.0591 44.4601C51.8391 44.4601 51.6391 44.3601 51.5491 44.2001C51.3691 43.9001 51.4391 43.5301 51.7191 43.3401C52.2891 42.9501 53.0391 42.7501 53.9291 42.7501C54.2191 42.7501 54.4991 42.7701 54.7791 42.8101C55.5391 42.9001 56.0891 43.1001 56.4491 43.3801C60.3991 41.5601 63.8091 38.4101 65.9291 34.6401C66.3291 33.9301 66.6891 33.2001 66.9891 32.4501C67.4291 31.3801 65.6891 30.9101 65.2591 31.9701V31.9601Z" fill="#333333"/>
<path d="M54.2496 47.6399C53.7496 47.6399 53.3496 48.0399 53.3496 48.5399C53.3496 49.0399 53.7496 49.4399 54.2496 49.4399C54.7496 49.4399 55.1496 49.0399 55.1496 48.5399C55.1496 48.0399 54.7396 47.6399 54.2496 47.6399Z" fill="#333333"/>
<path d="M67.1305 49.4399C67.6275 49.4399 68.0305 49.037 68.0305 48.5399C68.0305 48.0428 67.6275 47.6399 67.1305 47.6399C66.6334 47.6399 66.2305 48.0428 66.2305 48.5399C66.2305 49.037 66.6334 49.4399 67.1305 49.4399Z" fill="#333333"/>
<path d="M65.231 62.54C65.681 61.49 64.131 60.57 63.681 61.63C62.951 63.33 59.051 63.22 58.261 61.63C57.751 60.59 56.201 61.5 56.711 62.54C58.061 65.26 63.981 65.48 65.231 62.54Z" fill="#333333"/>
<path d="M39.2205 115.91C38.2005 112.92 37.2305 109.92 36.3105 106.89C37.2305 109.91 38.2005 112.92 39.2205 115.91C39.3505 116.3 39.4905 116.68 39.6205 117.06C39.4905 116.67 39.3505 116.29 39.2205 115.91Z" fill="#333333"/>
<path d="M34.5807 101.05C34.5207 100.75 34.4807 100.45 34.4707 100.16C34.4707 100.46 34.5207 100.76 34.5807 101.05Z" fill="#333333"/>
<path d="M37.2494 97.1699C37.2494 97.1699 37.1494 97.1999 37.1094 97.2199C37.1594 97.1999 37.2094 97.1899 37.2494 97.1699Z" fill="#333333"/>
<path d="M76.4691 50.4299C76.4691 51.5999 76.3891 52.7899 76.4691 53.9599C76.5091 54.5899 76.9391 55.1399 77.5291 55.2099V46.8999C76.0491 47.1099 76.4691 49.3599 76.4691 50.4299Z" fill="#C4D831"/>
<path d="M79.3301 45.4601V56.5601C80.5601 56.5801 81.8801 56.4901 81.9801 54.9401C82.0601 53.6401 81.9801 52.3101 81.9801 51.0101C81.9801 49.7101 82.0601 48.3801 81.9801 47.0801C81.8901 45.5301 80.5701 45.4301 79.3301 45.4601Z" fill="#C4D831"/>
<path d="M45.1909 53.7399C45.2109 52.4099 45.1909 51.0799 45.1909 49.7499C45.1909 48.7499 45.4709 47.0799 44.1309 46.8999V55.2099C44.2409 55.1999 44.3509 55.1699 44.4609 55.1199C45.0509 54.8699 45.1809 54.3099 45.1909 53.7399Z" fill="#C4D831"/>
<path d="M39.6801 47.0901C39.6001 48.3901 39.6801 49.7201 39.6801 51.0201C39.6801 52.3201 39.6001 53.6501 39.6801 54.9501C39.7701 56.5001 41.0901 56.6001 42.3301 56.5701V45.4701C41.1001 45.4401 39.7801 45.5401 39.6801 47.0901Z" fill="#C4D831"/>
<path d="M44.4402 64.7C44.6002 64.87 44.7802 65.02 44.9502 65.18C46.0702 66.07 47.3402 66.74 48.7202 67.15C49.5502 67.4 50.4102 67.55 51.2902 67.59C51.6502 67.61 52.0102 67.61 52.3802 67.59C52.3402 67.44 52.3202 67.28 52.3202 67.11C52.3202 66.53 52.5502 66.07 52.9202 65.75C51.8902 65.88 50.8802 65.83 49.9202 65.62C49.0102 65.43 48.1402 65.1 47.3502 64.65C46.7002 64.28 46.0902 63.83 45.5402 63.32C45.0902 62.89 44.6702 62.41 44.3102 61.89C43.5902 60.86 43.0602 59.67 42.7802 58.35C42.9302 58.35 43.0902 58.35 43.2402 58.35C43.7302 58.35 44.1402 57.94 44.1402 57.45V56.95C44.5702 56.95 45.0002 56.86 45.3902 56.66C45.8202 56.45 46.2002 56.12 46.5002 55.66C46.6002 55.51 46.6802 55.35 46.7602 55.17C47.0502 54.48 47.0002 53.75 47.0002 53.02V50.17C47.0002 49.48 47.0302 48.77 47.0002 48.08C46.9402 46.71 46.1102 45.67 44.9202 45.26C44.7302 45.2 44.5302 45.15 44.3202 45.12C44.2702 45.1 44.2102 45.1 44.1402 45.09V44.58C44.1402 44.3 44.0402 44.1 43.8802 43.95C43.7502 43.8 43.5502 43.7 43.3002 43.68C43.2802 43.68 43.2602 43.68 43.2402 43.68C42.7302 43.68 42.2002 43.66 41.6802 43.68C41.6702 42.24 41.6402 40.79 41.7002 39.35C41.7802 37.44 41.9902 35.54 42.5702 33.69C44.1802 28.48 48.0002 24.13 52.9102 21.78C57.9602 19.36 64.0502 19.27 69.1802 21.53C70.3302 22.04 71.4202 22.65 72.4502 23.37C73.1602 23.86 73.8402 24.4 74.4802 24.98C76.3802 26.7 77.9402 28.78 79.0502 31.09C79.3602 31.75 79.6402 32.42 79.8802 33.11C81.0602 36.56 81.0002 40.19 80.9602 43.79C80.6902 43.74 80.4102 43.72 80.1302 43.7C79.5702 43.67 79.0002 43.68 78.4402 43.68C78.4102 43.68 78.3802 43.68 78.3402 43.68C78.1102 43.7 77.9302 43.8 77.8102 43.93C77.6502 44.07 77.5402 44.29 77.5402 44.57V45.08C77.4702 45.08 77.4102 45.1 77.3602 45.11C77.1702 45.14 76.9802 45.18 76.8002 45.24C75.7502 45.58 74.9302 46.41 74.7302 47.58C74.6302 48.15 74.6802 48.76 74.6802 49.34C74.6802 50.89 74.6202 52.45 74.6802 53.99C74.7002 54.48 74.8302 54.93 75.0302 55.31C75.2802 55.78 75.6502 56.16 76.0802 56.43C76.5202 56.71 77.0302 56.88 77.5402 56.92V57.43C77.5402 57.92 77.9502 58.33 78.4402 58.33C79.9702 58.33 81.6102 58.53 82.8002 57.35C83.8302 56.32 83.7802 55.03 83.7802 53.7V48.88C83.7802 47.72 83.9402 46.41 83.3402 45.37C83.1702 45.07 82.9702 44.82 82.7502 44.61C82.7802 41.07 82.9402 37.45 82.0302 34.01C80.5402 28.38 76.6902 23.49 71.5802 20.7C66.3402 17.85 59.9602 17.29 54.3202 19.26C48.8302 21.18 44.2102 25.32 41.8202 30.63C40.5402 33.46 39.9102 36.5 39.8902 39.6C39.8902 41.06 39.8902 42.52 39.8902 43.98C39.5302 44.13 39.1902 44.34 38.8802 44.65C37.8502 45.68 37.9002 46.97 37.9002 48.3V53.12C37.9002 54.28 37.7402 55.59 38.3402 56.63C38.9702 57.73 39.9202 58.12 40.9602 58.26C40.9602 58.32 40.9602 58.39 40.9702 58.45C41.2402 60 41.8202 61.42 42.6302 62.65C42.7902 62.9 42.9702 63.13 43.1502 63.37C43.2102 63.34 43.2602 63.3 43.3202 63.27C43.6602 63.78 44.0302 64.25 44.4402 64.69V64.7ZM44.1302 46.9C45.4702 47.08 45.1902 48.75 45.1902 49.75C45.1902 51.08 45.2102 52.41 45.1902 53.74C45.1902 54.31 45.0502 54.87 44.4602 55.12C44.3502 55.17 44.2302 55.2 44.1302 55.21V46.9ZM77.5302 55.21C76.9402 55.14 76.5102 54.58 76.4702 53.96C76.3902 52.8 76.4702 51.6 76.4702 50.43C76.4702 49.36 76.0502 47.11 77.5302 46.9V55.21ZM81.9702 47.09C82.0502 48.39 81.9702 49.72 81.9702 51.02C81.9702 52.32 82.0502 53.65 81.9702 54.95C81.8802 56.5 80.5602 56.6 79.3202 56.57V45.47C80.5502 45.44 81.8702 45.54 81.9702 47.09ZM42.3302 56.57C41.1002 56.59 39.7802 56.5 39.6802 54.95C39.6002 53.65 39.6802 52.32 39.6802 51.02C39.6802 49.72 39.6002 48.39 39.6802 47.09C39.7702 45.54 41.0902 45.44 42.3302 45.47V56.57Z" fill="#333333"/>
<path d="M44.4199 64.71C44.5899 64.87 44.7599 65.03 44.9499 65.18C44.7799 65.02 44.5999 64.87 44.4399 64.7C44.4399 64.7 44.4299 64.7 44.4199 64.71Z" fill="#333333"/>
<path d="M44.4204 64.71C44.4204 64.71 44.4304 64.71 44.4404 64.7C44.0304 64.26 43.6504 63.79 43.3204 63.28C43.2604 63.31 43.2104 63.35 43.1504 63.38C43.3404 63.62 43.5404 63.86 43.7504 64.08C43.9604 64.3 44.1904 64.5 44.4204 64.7V64.71Z" fill="#333333"/>
<path d="M54.9197 67.2999C55.0997 67.2999 55.3097 67.2799 55.4797 67.1999C55.5197 67.1799 55.5797 67.1299 55.6297 67.0999C55.5797 67.0699 55.5197 67.0199 55.4797 66.9999C55.3097 66.9199 55.0997 66.8999 54.9197 66.8999C54.6597 66.8999 54.4797 67.0099 54.2397 67.0499C54.2197 67.0499 54.1997 67.0699 54.1797 67.0799C54.2197 67.1099 54.2597 67.1499 54.2997 67.1599C54.5197 67.2299 54.6897 67.2799 54.9197 67.2799V67.2999Z" fill="white"/>
<path d="M57.3903 67.6701C57.5003 67.5301 57.5603 67.3401 57.5303 67.1101C57.5503 66.8701 57.4903 66.6901 57.3903 66.5501C56.7403 64.9801 54.1203 64.6901 52.9203 65.7501C52.5503 66.0801 52.3203 66.5301 52.3203 67.1101C52.3203 67.2801 52.3403 67.4401 52.3803 67.5901C52.8903 69.6001 56.6003 69.5801 57.3903 67.6701ZM54.2403 67.0701C54.4803 67.0301 54.6603 66.9201 54.9203 66.9201C55.1103 66.9201 55.3103 66.9401 55.4803 67.0201C55.5203 67.0401 55.5803 67.0901 55.6303 67.1201C55.5803 67.1501 55.5203 67.2001 55.4803 67.2201C55.3103 67.2901 55.1003 67.3201 54.9203 67.3201C54.6903 67.3201 54.5103 67.2601 54.3003 67.2001C54.2603 67.1901 54.2203 67.1501 54.1803 67.1201C54.2003 67.1001 54.2103 67.0901 54.2403 67.0901V67.0701Z" fill="#333333"/>
<path d="M74.2091 78.2301C74.3491 78.2801 74.4991 78.3201 74.6391 78.3701L73.6191 77.3501C73.6191 77.7101 73.7791 78.0801 74.2091 78.2301Z" fill="#333333"/>
<path d="M92.9707 85.6699C92.9707 85.6699 93.0007 85.6899 93.0207 85.6999C93.3807 85.9399 93.7107 86.1999 94.0407 86.4799C93.7207 86.2099 93.3907 85.9399 93.0207 85.6999C93.0007 85.6899 92.9907 85.6799 92.9707 85.6699Z" fill="#333333"/>
<path d="M73.6194 77.35L74.6394 78.37C75.3394 78.61 76.0294 78.85 76.7394 79.07C76.7294 79.17 76.7194 79.28 76.7094 79.38C76.7994 79.41 76.8994 79.44 76.9894 79.46C77.5194 79.62 78.0594 79.79 78.5894 79.94C78.5894 80.01 78.5894 80.08 78.6094 80.16C78.9794 81.85 79.3494 83.53 79.7294 85.22C80.2894 87.75 80.8494 90.28 81.3994 92.81C81.4894 93.23 81.7994 93.43 82.1194 93.45C82.2294 93.45 82.3394 93.45 82.4494 93.41C82.7694 93.32 83.0594 93.07 83.1394 92.72C83.1594 92.6 83.1594 92.47 83.1394 92.33C82.2694 88.39 81.3994 84.45 80.5294 80.51C81.8794 80.9 83.2294 81.3 84.5694 81.73C85.0494 81.89 85.5294 82.05 86.0094 82.23C86.1094 82.27 86.2094 82.31 86.3194 82.34C86.6194 82.45 86.9294 82.57 87.2294 82.69V80.98C88.5594 81.53 89.9094 82.06 91.2194 82.66C86.0794 79.64 79.6894 78.62 74.1394 76.63C73.9394 76.56 73.7594 76.56 73.6094 76.61L73.7694 76.77C73.6594 76.93 73.6294 77.13 73.6294 77.33L73.6194 77.35Z" fill="#333333"/>
<path d="M92.9696 85.6699C92.5796 85.4199 92.1896 85.1899 91.7796 84.9699C91.3896 84.7599 90.9996 84.5699 90.5996 84.3799C91.6196 84.9999 92.5896 85.7099 93.4696 86.5499C93.7196 86.7799 93.9596 87.0299 94.1896 87.2799C94.1296 87.0099 94.0796 86.7499 94.0396 86.4799C93.7196 86.2099 93.3896 85.9399 93.0196 85.6999C92.9996 85.6899 92.9896 85.6799 92.9696 85.6699Z" fill="#333333"/>
<path d="M86.0098 82.24C86.1098 82.28 86.2098 82.32 86.3198 82.35C86.2198 82.31 86.1198 82.27 86.0098 82.24Z" fill="#333333"/>
<path d="M83.1392 92.74C83.0692 93.1 82.7792 93.34 82.4492 93.43C82.7692 93.34 83.0592 93.09 83.1392 92.74Z" fill="#333333"/>
<path d="M78.6102 80.18C78.9802 81.87 79.3502 83.55 79.7302 85.24C79.3602 83.55 78.9802 81.87 78.6102 80.18C78.5902 80.1 78.5902 80.03 78.5902 79.96C78.0602 79.8 77.5202 79.64 76.9902 79.48C77.5202 79.64 78.0602 79.81 78.5902 79.96C78.5902 80.03 78.5902 80.1 78.6102 80.18Z" fill="#333333"/>
<path d="M73.2092 76.9499L73.6192 77.3599C73.6192 77.1599 73.6592 76.9599 73.7592 76.7999L73.5992 76.6399C73.4292 76.6899 73.2992 76.7999 73.1992 76.9499H73.2092Z" fill="#333333"/>
<path d="M74.6394 78.38C74.4994 78.33 74.3494 78.29 74.2094 78.24C73.7794 78.09 73.6194 77.72 73.6194 77.36L73.2094 76.95C72.9094 77.4 72.9894 78.15 73.6594 78.39C74.4994 78.69 75.3394 78.97 76.1894 79.23C76.3594 79.28 76.5394 79.33 76.7094 79.39C76.7194 79.29 76.7294 79.18 76.7394 79.08C76.0394 78.86 75.3394 78.62 74.6394 78.38Z" fill="#333333"/>
<path d="M82.3804 117.06C82.5104 116.67 82.6504 116.29 82.7804 115.91C83.8004 112.92 84.7704 109.92 85.6904 106.89C85.9704 105.97 86.2404 105.06 86.5204 104.14C86.7004 103.53 86.8904 102.92 87.0704 102.31C87.1504 102.05 87.2304 101.77 87.3104 101.49C87.3504 101.35 87.3804 101.2 87.4104 101.05C87.4704 100.75 87.5104 100.45 87.5204 100.16C87.5304 99.7199 87.4704 99.2799 87.2704 98.8999C86.9304 98.2299 86.2304 97.7899 85.4704 97.4499C85.2804 97.3699 85.0804 97.2899 84.8804 97.2199C84.2904 96.9999 83.6904 96.8299 83.2104 96.6399C81.3504 95.9099 79.4904 95.1899 77.6404 94.4599C77.3704 94.3599 77.1404 94.3799 76.9604 94.4899C76.6904 94.6599 76.5404 94.9999 76.5604 95.3499C76.5804 95.6899 76.7604 96.0399 77.1604 96.1899C78.6304 96.7699 80.1104 97.3399 81.5804 97.9199C82.2904 98.1999 83.0004 98.4799 83.7104 98.7499C83.9004 98.8299 84.1904 98.8999 84.4804 98.9999C84.9704 99.1599 85.4904 99.3799 85.6704 99.7099C85.7204 99.7999 85.7404 99.9099 85.7404 100.04C85.7404 100.42 85.5704 100.91 85.5004 101.18C85.3404 101.8 85.1304 102.39 84.9404 103C84.5004 104.45 84.0804 105.91 83.6404 107.37C82.5604 110.88 81.3904 114.37 80.1804 117.83C80.9104 117.58 81.6304 117.33 82.3504 117.05L82.3804 117.06Z" fill="#333333"/>
<path d="M80.2091 117.84C79.9891 118.48 79.7691 119.13 79.5391 119.77C79.7691 119.13 79.9891 118.49 80.2091 117.84Z" fill="#333333"/>
<path d="M81.5996 97.9199C82.3096 98.1999 83.0196 98.4799 83.7296 98.7499C83.9196 98.8299 84.2096 98.8999 84.4996 98.9999C84.2096 98.8999 83.9196 98.8199 83.7296 98.7499C83.0196 98.4699 82.3096 98.1899 81.5996 97.9199Z" fill="#333333"/>
<path d="M76.9799 94.49C76.7099 94.66 76.5599 95 76.5799 95.35C76.5599 95.01 76.7099 94.66 76.9799 94.49Z" fill="#333333"/>
<path d="M85.5299 101.19C85.3699 101.81 85.1599 102.4 84.9699 103.01C84.5299 104.46 84.1099 105.92 83.6699 107.38C84.1199 105.93 84.5299 104.47 84.9699 103.01C85.1599 102.4 85.3699 101.8 85.5299 101.19Z" fill="#333333"/>
<path d="M87.2902 98.9C87.4902 99.29 87.5502 99.72 87.5402 100.16C87.5502 99.72 87.4902 99.28 87.2902 98.9C86.9502 98.23 86.2502 97.79 85.4902 97.45C86.2602 97.78 86.9502 98.22 87.2902 98.9Z" fill="#333333"/>
<path d="M86.5195 104.15C86.6995 103.54 86.8895 102.93 87.0695 102.32C87.1495 102.06 87.2295 101.78 87.3095 101.5C87.2295 101.79 87.1495 102.07 87.0695 102.32C86.8795 102.93 86.6995 103.54 86.5195 104.15Z" fill="#333333"/>
<path d="M75.9695 81.49C75.7195 83.67 75.4595 85.84 75.1895 88.01C75.5795 87.82 76.0595 87.89 76.3595 88.23C76.3795 88.25 76.3895 88.28 76.3995 88.31C76.6895 86.08 76.9594 83.85 77.2094 81.62C77.2694 81.11 76.9395 80.83 76.5495 80.78C76.2695 80.89 76.0294 81.13 75.9594 81.5L75.9695 81.49Z" fill="#333333"/>
<path d="M75.5107 95.0099C75.7507 93.2399 75.9907 91.4699 76.2207 89.6899C75.7707 90.0899 75.3007 90.4599 74.8307 90.8199C73.5607 100.63 72.1007 110.41 70.7207 120.21C71.1507 120.14 71.5907 120.06 72.0207 119.98C72.1107 119.32 72.2007 118.66 72.2907 118.01C73.3607 110.34 74.4707 102.68 75.5107 95.0099Z" fill="#333333"/>
<path d="M72.8195 117.94C73.8895 110.27 74.9995 102.61 76.0395 94.94C76.6495 90.48 77.2395 86.02 77.7495 81.55C77.8295 80.81 77.1195 80.55 76.5595 80.77C76.9495 80.82 77.2795 81.1 77.2195 81.61C76.9695 83.84 76.6895 86.07 76.4095 88.3C76.7195 88.71 76.6695 89.29 76.2795 89.64C76.2595 89.66 76.2395 89.67 76.2195 89.69C75.9895 91.46 75.7495 93.24 75.5095 95.01C74.4595 102.68 73.3595 110.34 72.2895 118.01C72.1995 118.67 72.1095 119.33 72.0195 119.98C72.1995 119.95 72.3795 119.92 72.5595 119.88C72.6495 119.23 72.7295 118.59 72.8195 117.94Z" fill="#333333"/>
<path d="M75.9697 81.49C75.9697 81.49 75.9597 81.53 75.9497 81.55C75.7097 83.71 75.4497 85.86 75.1797 88.01C75.4497 85.84 75.7197 83.66 75.9597 81.49H75.9697Z" fill="#333333"/>
<path d="M74.8109 90.8201C73.5409 100.63 72.0809 110.41 70.7109 120.2C72.0809 110.41 73.5509 100.62 74.8209 90.8101L74.8109 90.8201Z" fill="#333333"/>
<path d="M95.5199 107.75C95.4899 108.55 95.4499 109.34 95.4199 110.14C95.9899 109.74 96.5599 109.33 97.1199 108.91C97.6799 105.59 98.2599 102.27 98.8499 98.9501C98.8699 98.8201 98.8599 98.7101 98.8499 98.6001C98.8499 98.5801 98.8499 98.5501 98.8299 98.5301C98.7999 98.4301 98.7599 98.3401 98.6999 98.2501C98.6899 98.2301 98.6699 98.2201 98.6599 98.2101C98.6099 98.1501 98.5499 98.0901 98.4899 98.0501C98.4599 98.0301 98.4299 98.0101 98.3999 97.9901C98.3299 97.9501 98.2499 97.9101 98.1799 97.8901C98.1299 97.8701 98.0799 97.8701 98.0299 97.8601C97.9899 97.8601 97.9599 97.8501 97.9199 97.8501C97.8699 97.8501 97.8099 97.8501 97.7599 97.8501C97.9699 98.7901 98.1299 99.7401 98.2399 100.7C98.2499 100.88 98.2699 101.06 98.2799 101.24C98.2799 101.45 98.2499 101.67 98.1999 101.88C97.7199 101.75 97.2299 101.61 96.7499 101.45C96.6999 101.43 96.6499 101.43 96.6099 101.42C96.5799 101.58 96.5499 101.74 96.5299 101.9C96.5099 102.04 96.4799 102.18 96.4599 102.32C96.1499 104.13 95.8499 105.94 95.5399 107.75H95.5199Z" fill="#333333"/>
<path d="M87.5107 82.83C87.4107 82.79 87.3107 82.75 87.2207 82.71C87.3207 82.76 87.4207 82.79 87.5107 82.83Z" fill="#333333"/>
<path d="M92.7909 83.4699C92.2709 83.1899 91.7409 82.9299 91.2109 82.6799C92.1509 83.2299 93.0609 83.8499 93.9009 84.5499C93.9009 84.8299 93.9009 85.1099 93.9009 85.3899C93.9209 85.7499 93.9609 86.1199 94.0209 86.4799C96.8109 88.8399 98.2709 92.4699 99.2609 95.9299C100.181 99.1299 100.661 102.43 100.941 105.75C101.511 105.24 102.071 104.71 102.621 104.18C102.231 100.36 101.531 96.5899 100.181 92.9799C98.7009 88.9999 96.5809 85.5599 92.7809 83.4799L92.7909 83.4699Z" fill="#333333"/>
<path d="M98.6504 98.21C98.6504 98.21 98.6804 98.24 98.6904 98.25C98.6804 98.23 98.6604 98.22 98.6504 98.21Z" fill="#333333"/>
<path d="M98.1896 101.87C98.2296 101.66 98.2596 101.45 98.2696 101.23C98.2696 101.05 98.2496 100.87 98.2296 100.69C98.1196 99.7201 97.9596 98.7801 97.7496 97.8401C97.7996 97.8401 97.8596 97.8401 97.9096 97.8401C97.5496 97.8201 97.1996 98.0001 97.1096 98.4801C96.9396 99.4601 96.7696 100.44 96.5996 101.42C96.6496 101.42 96.6996 101.43 96.7396 101.45C97.2196 101.6 97.6996 101.75 98.1896 101.88V101.87Z" fill="#333333"/>
<path d="M95.5203 107.75C95.8303 105.94 96.1303 104.13 96.4403 102.32C95.9703 105.01 95.5203 107.69 95.0703 110.38C95.1903 110.3 95.3003 110.22 95.4103 110.14C95.4403 109.34 95.4803 108.55 95.5103 107.75H95.5203Z" fill="#333333"/>
<path d="M98.3906 97.99C98.3906 97.99 98.4506 98.03 98.4806 98.05C98.4506 98.03 98.4206 98.01 98.3906 97.99Z" fill="#333333"/>
<path d="M98.8203 98.53C98.8203 98.53 98.8303 98.58 98.8403 98.6C98.8403 98.58 98.8403 98.55 98.8203 98.53Z" fill="#333333"/>
<path d="M98.0195 97.8501C98.0195 97.8501 98.1195 97.8701 98.1695 97.8801C98.1195 97.8601 98.0695 97.8601 98.0195 97.8501Z" fill="#333333"/>
<path d="M87.2207 82.93C88.3507 83.4 89.4907 83.86 90.6007 84.38C89.6907 83.83 88.7407 83.35 87.7607 82.93C87.6807 82.89 87.6007 82.86 87.5207 82.83C87.4207 82.79 87.3207 82.75 87.2307 82.71V82.93H87.2207Z" fill="#333333"/>
<path d="M87.2207 82.71C87.3207 82.75 87.4207 82.79 87.5107 82.83C87.5907 82.86 87.6707 82.9 87.7507 82.93C88.7307 83.35 89.6907 83.83 90.5907 84.38C90.9907 84.57 91.3807 84.76 91.7707 84.97C92.1707 85.19 92.5707 85.42 92.9607 85.67C92.9807 85.68 92.9907 85.69 93.0107 85.7C93.3707 85.94 93.7007 86.2 94.0307 86.48C93.9707 86.12 93.9307 85.75 93.9107 85.39C93.9007 85.11 93.9007 84.83 93.9107 84.55C93.0607 83.84 92.1607 83.23 91.2207 82.68C89.9107 82.07 88.5607 81.54 87.2307 81V82.71H87.2207Z" fill="#333333"/>
<path d="M91.7891 84.97C92.1891 85.19 92.5891 85.42 92.9791 85.67C92.5891 85.42 92.1991 85.19 91.7891 84.97Z" fill="#333333"/>
<path d="M87.5098 82.8301C87.5898 82.8601 87.6698 82.9001 87.7498 82.9301C87.6698 82.8901 87.5898 82.8601 87.5098 82.8301Z" fill="#333333"/>
<path d="M28.9809 85.6999C28.9809 85.6999 29.0109 85.6799 29.0309 85.6699C29.0109 85.6799 29.0009 85.6899 28.9809 85.6999C28.6209 85.9399 28.2909 86.1999 27.9609 86.4799C28.2809 86.2099 28.6109 85.9399 28.9809 85.6999Z" fill="#333333"/>
<path d="M34.7808 82.71C35.0808 82.59 35.3808 82.47 35.6908 82.36C35.7908 82.32 35.8908 82.28 36.0008 82.24C36.4808 82.07 36.9608 81.9 37.4408 81.74C38.7808 81.31 40.1308 80.91 41.4808 80.52C40.6108 84.46 39.7408 88.4 38.8708 92.34C38.8408 92.48 38.8408 92.61 38.8708 92.73C38.9408 93.09 39.2308 93.33 39.5608 93.42C39.6708 93.45 39.7808 93.46 39.8908 93.46C40.2208 93.44 40.5208 93.24 40.6108 92.82C41.1708 90.29 41.7308 87.76 42.2808 85.23C42.4208 84.6 42.5608 83.97 42.7008 83.33C42.3708 81.62 42.1908 80.33 42.3408 79.97L47.5908 76.74C42.1008 78.66 35.8508 79.7 30.8008 82.67C32.1108 82.06 33.4608 81.53 34.7908 80.99V82.7L34.7808 82.71Z" fill="#333333"/>
<path d="M42.6908 83.34C42.9208 82.29 43.1608 81.23 43.3908 80.18C43.4108 80.1 43.4108 80.03 43.4108 79.96C43.9408 79.8 44.4808 79.64 45.0108 79.48C45.2808 79.4 45.5408 79.32 45.8108 79.24C46.6608 78.97 47.5008 78.7 48.3408 78.4C49.0108 78.16 49.0908 77.41 48.7908 76.96C48.6108 76.68 48.2808 76.52 47.8608 76.67C47.7708 76.7 47.6708 76.73 47.5808 76.77L42.3308 80C42.1808 80.36 42.3608 81.65 42.6908 83.36V83.34Z" fill="#333333"/>
<path d="M44.8905 94.4499C44.7305 94.3899 44.5605 94.3799 44.3505 94.4499C42.4905 95.1799 40.6305 95.8999 38.7805 96.6299C38.3405 96.7999 37.8005 96.97 37.2605 97.16C37.2405 97.17 37.2405 97.1899 37.2205 97.1999C36.5605 97.5499 35.8905 97.89 35.2405 98.26C35.0405 98.45 34.8605 98.6499 34.7305 98.8899C34.6505 99.0499 34.6005 99.2199 34.5605 99.3899C34.6205 99.8799 34.7805 100.39 34.8705 100.86C35.0705 101.94 35.2405 103.06 35.5905 104.1C36.0205 105.37 36.5105 106.63 36.9405 107.9C37.8905 110.67 38.7805 113.46 39.6605 116.25C39.7605 116.56 39.8505 116.87 39.9505 117.17C40.5605 117.4 41.1905 117.61 41.8105 117.82C40.6005 114.35 39.4305 110.87 38.3505 107.36C37.9005 105.91 37.4905 104.45 37.0505 102.99C36.8605 102.38 36.6505 101.78 36.4905 101.17C36.4205 100.9 36.2505 100.4 36.2505 100.03C36.2505 99.8999 36.2705 99.7899 36.3205 99.6999C36.5005 99.3599 37.0205 99.1499 37.5105 98.9899C37.8005 98.8899 38.0905 98.8099 38.2805 98.7399C38.9905 98.4599 39.7005 98.18 40.4105 97.91C41.8805 97.33 43.3605 96.7599 44.8305 96.1799C44.9105 96.1499 44.9605 96.0999 45.0205 96.0599C45.0305 95.6599 44.9805 95.1 44.8905 94.44V94.4499Z" fill="#333333"/>
<path d="M45.0109 96.07C45.2709 95.89 45.4109 95.63 45.4209 95.35C45.4409 95.01 45.2909 94.66 45.0209 94.49C44.9809 94.47 44.9309 94.46 44.8809 94.45C44.9709 95.11 45.0209 95.67 45.0109 96.07Z" fill="#333333"/>
<path d="M34.5792 101.05C34.6092 101.2 34.6492 101.34 34.6792 101.49C34.7592 101.78 34.8392 102.06 34.9192 102.31C35.1092 102.92 35.2892 103.53 35.4692 104.14C35.7492 105.06 36.0192 105.97 36.2992 106.89C37.2192 109.91 38.1892 112.92 39.2092 115.91C39.3392 116.3 39.4792 116.68 39.6092 117.06C39.7092 117.1 39.8192 117.14 39.9192 117.18C39.8192 116.87 39.7292 116.56 39.6292 116.26C38.7492 113.47 37.8492 110.68 36.9092 107.91C36.4792 106.64 35.9892 105.38 35.5592 104.11C35.2092 103.06 35.0492 101.95 34.8392 100.87C34.7492 100.4 34.5892 99.8799 34.5292 99.3999C34.4692 99.6499 34.4492 99.8999 34.4492 100.17C34.4492 100.47 34.4992 100.77 34.5592 101.06L34.5792 101.05Z" fill="#333333"/>
<path d="M36.5207 97.4499C36.0307 97.6599 35.5807 97.9299 35.2207 98.2599C35.8807 97.8999 36.5407 97.5499 37.2007 97.1999C37.2207 97.1999 37.2307 97.1799 37.2407 97.1599C37.1907 97.1799 37.1407 97.1899 37.1007 97.2099C36.9007 97.2799 36.7107 97.3599 36.5107 97.4399L36.5207 97.4499Z" fill="#333333"/>
<path d="M35.2205 98.26C35.2205 98.26 35.1705 98.29 35.1505 98.3C34.7805 98.51 34.5005 98.68 34.5205 99.18C34.5205 99.25 34.5405 99.32 34.5505 99.4C34.5905 99.23 34.6405 99.06 34.7205 98.9C34.8405 98.66 35.0205 98.45 35.2305 98.27L35.2205 98.26Z" fill="#189655"/>
<path d="M45.0102 96.0701C44.9502 96.1101 44.9002 96.1601 44.8202 96.1901C43.3502 96.7701 41.8702 97.3401 40.4002 97.9201C39.6902 98.2001 38.9802 98.4801 38.2702 98.7501C38.0802 98.8301 37.7902 98.9001 37.5002 99.0001C37.0102 99.1601 36.4902 99.3801 36.3102 99.7101C36.2602 99.8001 36.2402 99.9101 36.2402 100.04C36.2402 100.42 36.4102 100.91 36.4802 101.18C36.6402 101.8 36.8502 102.39 37.0402 103C37.4802 104.45 37.9002 105.91 38.3402 107.37C39.4202 110.88 40.5902 114.36 41.8002 117.83C44.2802 118.67 46.8402 119.36 49.4602 119.87C49.3702 119.22 49.2902 118.58 49.2002 117.93C48.8602 115.47 48.5102 113.01 48.1602 110.55C46.9602 105.93 45.5002 101.29 44.8802 96.7201C44.9702 96.6201 45.0202 96.3901 45.0302 96.0601L45.0102 96.0701Z" fill="#189655"/>
<path d="M23.1598 98.6C23.1598 98.6 23.1598 98.55 23.1798 98.53C23.2098 98.43 23.2498 98.34 23.3098 98.25C23.3198 98.23 23.3398 98.22 23.3498 98.21C23.3998 98.15 23.4598 98.09 23.5198 98.05C23.5498 98.03 23.5798 98.01 23.6098 97.99C23.6798 97.95 23.7598 97.91 23.8298 97.89C23.8798 97.87 23.9298 97.87 23.9798 97.86C24.0198 97.86 24.0498 97.85 24.0898 97.85C24.1398 97.85 24.1998 97.85 24.2498 97.85C24.5498 97.89 24.8198 98.08 24.8898 98.48C25.0598 99.46 25.2298 100.44 25.3998 101.42C25.4298 101.58 25.4598 101.74 25.4798 101.9C25.4998 102.04 25.5298 102.18 25.5498 102.32C26.0198 105.01 26.4698 107.69 26.9198 110.38C30.3098 112.72 33.9398 114.73 37.7798 116.34C36.6698 112.83 35.5398 109.32 34.2898 105.85C33.8698 104.67 33.5298 103.54 33.2898 102.31C33.0798 101.23 32.6198 99.93 32.7098 98.83C32.8598 97.03 34.9098 96.38 36.2798 95.65C37.2798 95.11 38.1598 96.6 37.2298 97.17C37.7698 96.98 38.3098 96.81 38.7498 96.64C40.6098 95.91 42.4698 95.19 44.3198 94.46C44.5298 94.38 44.7098 94.4 44.8598 94.46C44.4698 91.58 43.2998 86.67 42.6698 83.35C42.5298 83.98 42.3898 84.61 42.2498 85.25C41.6898 87.78 41.1298 90.31 40.5798 92.84C40.4898 93.26 40.1798 93.46 39.8598 93.48C39.7498 93.48 39.6398 93.48 39.5298 93.44C39.1998 93.35 38.9198 93.1 38.8398 92.75C38.8198 92.63 38.8198 92.5 38.8398 92.36C39.7098 88.42 40.5798 84.48 41.4498 80.54C40.0998 80.93 38.7498 81.33 37.4098 81.76C36.9298 81.92 36.4498 82.08 35.9698 82.26C35.8698 82.3 35.7698 82.34 35.6598 82.38C35.3598 82.49 35.0498 82.62 34.7498 82.74V82.96C33.6198 83.43 32.4798 83.89 31.3698 84.41C30.3498 85.03 29.3798 85.74 28.4998 86.58C28.2498 86.81 28.0098 87.06 27.7798 87.31C27.8398 87.04 27.8898 86.78 27.9298 86.51C25.1398 88.87 23.6798 92.5 22.6898 95.96C21.7698 99.16 21.2898 102.46 21.0098 105.78C22.2498 106.88 23.5298 107.94 24.8498 108.94C24.2898 105.62 23.7098 102.3 23.1198 98.98C23.0998 98.85 23.1098 98.74 23.1198 98.63L23.1598 98.6Z" fill="#189655"/>
<path d="M45.9792 80.83C45.9192 80.26 45.8692 79.72 45.8192 79.23C45.5492 79.31 45.2892 79.39 45.0192 79.47C44.4892 79.63 43.9492 79.8 43.4192 79.95C43.4192 80.02 43.4192 80.09 43.3992 80.17C43.1692 81.22 42.9292 82.28 42.6992 83.33C43.3292 86.65 44.5092 91.56 44.8892 94.44C44.9292 94.46 44.9892 94.46 45.0292 94.48C45.2992 94.65 45.4492 94.99 45.4292 95.34C45.4192 95.62 45.2792 95.88 45.0192 96.06C45.0192 96.39 44.9692 96.62 44.8692 96.72C45.4892 101.29 46.9492 105.93 48.1492 110.55C47.4092 105.34 46.6792 100.14 45.9692 94.93C45.3592 90.47 44.7692 86.01 44.2592 81.54C44.1792 80.8 44.8892 80.54 45.4492 80.76C45.6192 80.74 45.8092 80.76 45.9792 80.82V80.83Z" fill="#189655"/>
<path d="M39.22 115.91C38.2 112.92 37.23 109.92 36.31 106.89C36.03 105.97 35.76 105.06 35.48 104.14C35.3 103.53 35.11 102.92 34.93 102.31C34.85 102.05 34.77 101.77 34.69 101.49C34.65 101.35 34.62 101.2 34.59 101.05C34.53 100.75 34.49 100.45 34.48 100.16C34.48 99.9001 34.5 99.64 34.56 99.39C34.56 99.32 34.54 99.24 34.53 99.17C34.51 98.68 34.79 98.5001 35.16 98.2901C35.18 98.2801 35.21 98.26 35.23 98.25C35.59 97.92 36.04 97.6501 36.53 97.4401C36.72 97.3601 36.92 97.28 37.12 97.21C37.17 97.19 37.22 97.1801 37.26 97.1601C38.19 96.5901 37.31 95.11 36.31 95.64C34.94 96.37 32.89 97.02 32.74 98.82C32.65 99.92 33.11 101.22 33.32 102.3C33.56 103.53 33.89 104.66 34.32 105.84C35.57 109.31 36.7 112.81 37.81 116.33C38.41 116.58 39.03 116.82 39.64 117.05C39.51 116.66 39.37 116.28 39.24 115.9L39.22 115.91Z" fill="#189655"/>
<path d="M42.6895 83.3401C42.5495 83.9701 42.4095 84.6001 42.2695 85.2401C42.4095 84.6101 42.5495 83.9801 42.6895 83.3401Z" fill="#189655"/>
<path d="M35.6895 82.36C35.7895 82.32 35.8895 82.28 35.9995 82.24C35.8995 82.28 35.7995 82.32 35.6895 82.36Z" fill="#189655"/>
<path d="M28.5305 86.5499C29.4105 85.7099 30.3705 84.9999 31.4005 84.3799C31.0005 84.5699 30.6105 84.7599 30.2205 84.9699C29.8205 85.1899 29.4205 85.4199 29.0305 85.6699C29.0105 85.6799 29.0005 85.6899 28.9805 85.6999C28.6205 85.9399 28.2905 86.1999 27.9605 86.4799C27.9205 86.7499 27.8705 87.0199 27.8105 87.2799C28.0405 87.0299 28.2805 86.7799 28.5305 86.5499Z" fill="#189655"/>
<path d="M39.5494 93.43C39.2194 93.34 38.9394 93.09 38.8594 92.74C38.9294 93.1 39.2194 93.34 39.5494 93.43Z" fill="#189655"/>
<path d="M43.4095 79.96C43.9395 79.8 44.4795 79.64 45.0095 79.48C44.4795 79.64 43.9395 79.81 43.4095 79.96Z" fill="#189655"/>
<path d="M42.4708 119.77C42.2408 119.13 42.0208 118.49 41.8008 117.84C42.0208 118.48 42.2408 119.13 42.4708 119.77Z" fill="#189655"/>
<path d="M37.4902 99.0099C37.7802 98.9099 38.0702 98.8299 38.2602 98.7599C38.9702 98.4799 39.6802 98.1999 40.3902 97.9299C39.6802 98.2099 38.9702 98.4899 38.2602 98.7599C38.0702 98.8399 37.7802 98.9099 37.4902 99.0099Z" fill="#189655"/>
<path d="M34.7091 98.9C34.8291 98.66 35.0091 98.45 35.2191 98.27C35.0191 98.46 34.8391 98.66 34.7091 98.9Z" fill="#189655"/>
<path d="M38.3307 107.38C37.8807 105.93 37.4707 104.47 37.0307 103.01C36.8407 102.4 36.6307 101.8 36.4707 101.19C36.6307 101.81 36.8407 102.4 37.0307 103.01C37.4707 104.46 37.8907 105.92 38.3307 107.38Z" fill="#189655"/>
<path d="M45.4195 95.35C45.4395 95.01 45.2895 94.66 45.0195 94.49C45.2895 94.66 45.4395 95 45.4195 95.35Z" fill="#189655"/>
<path d="M34.6797 101.49C34.7597 101.78 34.8397 102.06 34.9197 102.31C35.1097 102.92 35.2897 103.53 35.4697 104.14C35.2897 103.53 35.0997 102.92 34.9197 102.31C34.8397 102.05 34.7597 101.77 34.6797 101.49Z" fill="#189655"/>
<path d="M34.4707 100.16C34.4707 99.8999 34.4907 99.6399 34.5507 99.3899C34.4907 99.6399 34.4707 99.8899 34.4707 100.16Z" fill="#189655"/>
<path d="M25.5593 102.32C25.5393 102.18 25.5093 102.04 25.4893 101.9C25.4593 101.74 25.4293 101.58 25.4093 101.42C25.3593 101.42 25.3093 101.43 25.2693 101.45C24.7893 101.6 24.3093 101.75 23.8193 101.88C23.7793 101.67 23.7493 101.46 23.7393 101.24C23.7393 101.06 23.7593 100.88 23.7793 100.7C23.8893 99.7301 24.0493 98.7901 24.2593 97.8501C24.2093 97.8501 24.1493 97.8501 24.0993 97.8501C24.0593 97.8501 24.0293 97.8501 23.9893 97.8601C23.9393 97.8601 23.8893 97.8801 23.8393 97.8901C23.7593 97.9201 23.6893 97.9501 23.6193 97.9901C23.5893 98.0101 23.5593 98.0301 23.5293 98.0501C23.4693 98.1001 23.4093 98.1501 23.3593 98.2101C23.3493 98.2201 23.3293 98.2401 23.3193 98.2501C23.2593 98.3301 23.2193 98.4301 23.1893 98.5301C23.1893 98.5501 23.1793 98.5801 23.1693 98.6001C23.1493 98.7101 23.1393 98.8301 23.1693 98.9501C23.7593 102.26 24.3293 105.58 24.8993 108.91C25.4593 109.33 26.0293 109.73 26.5993 110.14C26.5693 109.34 26.5293 108.55 26.4993 107.75C26.1893 105.94 25.8893 104.13 25.5793 102.32H25.5593Z" fill="#333333"/>
<path d="M22.7196 95.9299C23.7096 92.4799 25.1696 88.8499 27.9596 86.4799C28.0196 86.1199 28.0596 85.7499 28.0796 85.3899C28.0896 85.1099 28.0896 84.8299 28.0796 84.5499C28.9296 83.8399 29.8296 83.2299 30.7696 82.6799C30.2396 82.9299 29.7096 83.1899 29.1896 83.4699C25.3796 85.5599 23.2696 88.9899 21.7896 92.9699C20.4396 96.5899 19.7396 100.35 19.3496 104.17C19.8996 104.7 20.4596 105.23 21.0296 105.74C21.2996 102.42 21.7896 99.1199 22.7096 95.9199L22.7196 95.9299Z" fill="#333333"/>
<path d="M34.2404 82.9299C33.2604 83.3499 32.3004 83.8299 31.4004 84.3799C32.3104 83.8299 33.2604 83.3499 34.2404 82.9299Z" fill="#333333"/>
<path d="M34.7802 82.71C34.6802 82.75 34.5802 82.79 34.4902 82.83C34.5902 82.79 34.6902 82.75 34.7802 82.71Z" fill="#333333"/>
<path d="M29.0307 85.67C29.4207 85.42 29.8107 85.19 30.2207 84.97C30.6107 84.76 31.0007 84.57 31.4007 84.38C32.3107 83.83 33.2607 83.35 34.2407 82.93C34.3207 82.89 34.4007 82.86 34.4807 82.83C34.5807 82.79 34.6807 82.75 34.7707 82.71V81C33.4407 81.55 32.0907 82.08 30.7807 82.68C29.8407 83.23 28.9307 83.85 28.0907 84.55C28.0907 84.83 28.0907 85.11 28.0907 85.39C28.0707 85.75 28.0307 86.12 27.9707 86.48C28.2907 86.21 28.6207 85.94 28.9907 85.7C29.0107 85.69 29.0207 85.68 29.0407 85.67H29.0307Z" fill="#333333"/>
<path d="M25.3004 111.38C25.1704 110.58 25.0304 109.78 24.9004 108.98C25.0404 109.78 25.1704 110.58 25.3004 111.38Z" fill="#333333"/>
<path d="M23.5195 98.05C23.5195 98.05 23.5795 98.01 23.6095 97.99C23.5795 98.01 23.5495 98.03 23.5195 98.05Z" fill="#333333"/>
<path d="M34.7802 82.93V82.71C34.6802 82.75 34.5802 82.79 34.4902 82.83C34.4102 82.86 34.3302 82.9 34.2502 82.93C33.2702 83.35 32.3202 83.83 31.4102 84.38C32.5202 83.86 33.6602 83.4 34.7902 82.93H34.7802Z" fill="#333333"/>
<path d="M23.1602 98.6C23.1602 98.6 23.1602 98.55 23.1802 98.53C23.1802 98.55 23.1702 98.58 23.1602 98.6Z" fill="#333333"/>
<path d="M23.8301 97.8801C23.8301 97.8801 23.9301 97.8601 23.9801 97.8501C23.9301 97.8501 23.8801 97.8601 23.8301 97.8801Z" fill="#333333"/>
<path d="M25.4905 101.9C25.5105 102.04 25.5405 102.18 25.5605 102.32C25.8705 104.13 26.1705 105.94 26.4805 107.75C26.5105 108.55 26.5505 109.34 26.5805 110.14C26.6905 110.22 26.8105 110.3 26.9205 110.38C26.4705 107.69 26.0205 105 25.5505 102.32C25.5305 102.18 25.5005 102.04 25.4805 101.9H25.4905Z" fill="#333333"/>
<path d="M23.7402 101.23C23.7402 101.44 23.7702 101.66 23.8202 101.87C24.3002 101.74 24.7902 101.6 25.2702 101.44C25.3202 101.42 25.3702 101.42 25.4102 101.41C25.2402 100.43 25.0702 99.4501 24.9002 98.4701C24.8302 98.0701 24.5602 97.8801 24.2602 97.8401C24.0502 98.7801 23.8902 99.7301 23.7802 100.69C23.7702 100.87 23.7502 101.05 23.7402 101.23Z" fill="#333333"/>
<path d="M23.3105 98.25C23.3105 98.25 23.3405 98.22 23.3505 98.21C23.3405 98.22 23.3205 98.24 23.3105 98.25Z" fill="#333333"/>
<path d="M34.2402 82.9301C34.3202 82.8901 34.4002 82.8601 34.4802 82.8301C34.4002 82.8601 34.3202 82.9001 34.2402 82.9301Z" fill="#333333"/>
<path d="M29.0293 85.67C29.4193 85.42 29.8093 85.19 30.2193 84.97C29.8193 85.19 29.4193 85.42 29.0293 85.67Z" fill="#333333"/>
<path d="M45.7793 89.6899C46.0093 91.4599 46.2493 93.2399 46.4893 95.0099C47.5393 102.68 48.6393 110.34 49.7093 118.01C49.7993 118.67 49.8893 119.33 49.9793 119.98C50.4093 120.06 50.8493 120.14 51.2893 120.21C49.9193 110.42 48.4493 100.63 47.1893 90.8299C46.7093 90.4699 46.2393 90.0899 45.7893 89.6899H45.7793Z" fill="#333333"/>
<path d="M46.8301 88.01C46.5601 85.86 46.3001 83.7 46.0601 81.55C46.0101 81.15 45.76 80.89 45.46 80.77C45.07 80.82 44.74 81.1 44.8 81.61C45.05 83.84 45.3301 86.07 45.6101 88.3C45.6301 88.28 45.6301 88.25 45.6501 88.22C45.9501 87.87 46.4401 87.81 46.8301 88V88.01Z" fill="#333333"/>
<path d="M49.4506 119.88C49.6206 119.91 49.7906 119.94 49.9606 119.97C49.8606 119.26 49.7706 118.55 49.6706 117.84C49.3406 115.43 48.7806 113 48.1406 110.56C48.4906 113.02 48.8406 115.48 49.1806 117.94C49.2706 118.59 49.3506 119.23 49.4406 119.88H49.4506Z" fill="#333333"/>
<path d="M46.4903 95.01C46.2503 93.24 46.0103 91.47 45.7803 89.69C45.7603 89.67 45.7403 89.66 45.7203 89.64C45.3303 89.29 45.2903 88.72 45.5903 88.3C45.3003 86.07 45.0303 83.84 44.7803 81.61C44.7203 81.1 45.0503 80.82 45.4403 80.77C44.8803 80.56 44.1703 80.81 44.2503 81.55C44.7603 86.02 45.3503 90.48 45.9603 94.94C46.6703 100.15 47.4103 105.35 48.1403 110.56C48.7703 113 49.3403 115.43 49.6703 117.84C49.7703 118.55 49.8603 119.26 49.9603 119.97C49.9603 119.97 49.9803 119.97 49.9903 119.97C49.9003 119.31 49.8103 118.65 49.7203 118C48.6503 110.33 47.5403 102.67 46.5003 95L46.4903 95.01Z" fill="#333333"/>
<path d="M65.0707 44.65C65.1407 44.67 65.2007 44.68 65.2707 44.68C65.4707 44.68 65.6407 44.59 65.7707 44.43C65.8007 44.39 65.8307 44.37 65.8707 44.35C65.9707 44.3 66.0607 44.25 66.2607 44.18C66.3607 44.15 66.4507 44.13 66.5507 44.1C66.7507 44.06 66.9607 44.02 67.1507 44L67.3607 43.98H67.6107C67.8407 43.98 68.0607 43.99 68.2807 44.02L68.4407 44.05C68.5407 44.08 68.6507 44.11 68.7507 44.14C68.8007 44.16 68.8607 44.18 68.8807 44.19C68.8907 44.19 69.0007 44.24 69.0107 44.24H69.0207C69.0807 44.28 69.1407 44.32 69.1907 44.36C69.2807 44.42 69.4007 44.45 69.5207 44.45C69.7307 44.45 69.9407 44.35 70.0307 44.19C70.2107 43.89 70.1407 43.52 69.8607 43.33C69.2907 42.94 68.5407 42.74 67.6507 42.74C67.3607 42.74 67.0807 42.76 66.8007 42.8C65.6307 42.94 64.9207 43.31 64.6907 43.89C64.6407 44.02 64.6507 44.18 64.7307 44.33C64.8107 44.49 64.9407 44.61 65.0707 44.65Z" fill="#333333"/>
<path d="M55.04 44.1001C55.14 44.1201 55.23 44.1501 55.42 44.2001C55.52 44.2401 55.62 44.2901 55.71 44.3401C55.75 44.3601 55.78 44.3901 55.81 44.4201C55.93 44.5801 56.11 44.6701 56.31 44.6701C56.37 44.6701 56.44 44.6701 56.51 44.6401C56.65 44.6001 56.78 44.4801 56.85 44.3201C56.92 44.1701 56.94 44.0101 56.88 43.8801C56.8 43.6801 56.64 43.5101 56.44 43.3601C55.89 43.6101 55.32 43.8301 54.75 44.0301C54.84 44.0501 54.94 44.0601 55.03 44.0801L55.04 44.1001Z" fill="#333333"/>
<path d="M53.9206 42.75C53.0306 42.75 52.2806 42.95 51.7106 43.34C51.4306 43.53 51.3606 43.9 51.5406 44.2C51.6406 44.36 51.8306 44.46 52.0506 44.46C52.1706 44.46 52.2906 44.43 52.3806 44.37C52.4406 44.33 52.4906 44.29 52.5506 44.26V44.28C52.5506 44.28 52.6206 44.23 52.6606 44.21C52.7106 44.19 52.7706 44.16 52.8206 44.14C52.9206 44.1 53.0206 44.07 53.1706 44.04L53.2906 44.02C53.5106 43.99 53.7406 43.97 53.9906 43.97H54.2806L54.4206 43.99C54.5306 44 54.6406 44.03 54.7506 44.04C55.3206 43.84 55.8906 43.62 56.4406 43.37C56.0706 43.09 55.5306 42.89 54.7706 42.8C54.4906 42.76 54.2006 42.74 53.9206 42.74V42.75Z" fill="#333333"/>
<path d="M74.9503 88.15C71.0903 91.58 66.1403 93.47 61.0003 93.47C55.8603 93.47 50.9203 91.58 47.0503 88.15C46.9803 88.09 46.9003 88.05 46.8203 88.02C46.9403 88.96 47.0603 89.9 47.1803 90.83C51.1603 93.83 56.0003 95.47 60.9903 95.47C65.9803 95.47 70.8203 93.83 74.8003 90.83C74.9203 89.89 75.0403 88.96 75.1603 88.02C75.0803 88.06 75.0003 88.09 74.9303 88.15H74.9503Z" fill="#333333"/>
<path d="M75.1803 88.0099C75.0603 88.9499 74.9403 89.8799 74.8203 90.8199C75.3003 90.4599 75.7603 90.0899 76.2103 89.6899C76.2703 89.2299 76.3303 88.7699 76.3903 88.3099C76.3703 88.2899 76.3703 88.2599 76.3503 88.2299C76.0503 87.8899 75.5703 87.8199 75.1803 88.0099Z" fill="#333333"/>
<path d="M76.2707 89.64C76.6607 89.29 76.7007 88.72 76.4007 88.3C76.3407 88.76 76.2807 89.22 76.2207 89.68C76.2407 89.66 76.2607 89.65 76.2807 89.63L76.2707 89.64Z" fill="#333333"/>
<path d="M75.1803 88.01C75.0603 88.95 74.9403 89.89 74.8203 90.82C74.9403 89.88 75.0603 88.95 75.1803 88.01Z" fill="#333333"/>
<path d="M45.6396 88.23C45.6396 88.23 45.6096 88.28 45.5996 88.31C45.6596 88.77 45.7196 89.23 45.7796 89.69C46.2296 90.09 46.6996 90.47 47.1796 90.83C47.0596 89.89 46.9396 88.96 46.8196 88.02C46.4296 87.83 45.9396 87.89 45.6396 88.24V88.23Z" fill="#333333"/>
<path d="M45.73 89.6401C45.73 89.6401 45.77 89.6701 45.79 89.6901C45.73 89.2301 45.67 88.7701 45.61 88.3101C45.3 88.7201 45.35 89.3001 45.74 89.6501L45.73 89.6401Z" fill="#333333"/>
<path d="M61 2C93.5848 2 120 28.4152 120 61C120 93.5848 93.5848 120 61 120C28.4152 120 2 93.5848 2 61C2 28.4152 28.4152 2 61 2Z" stroke="#333333" stroke-width="2" stroke-miterlimit="10"/>
</svg>
